<svg xmlns="http://www.w3.org/2000/svg" xmlns:xlink="http://www.w3.org/1999/xlink" width="500" zoomAndPan="magnify" viewBox="0 0 375 374.999991" height="500" preserveAspectRatio="xMidYMid meet" version="1.0"><defs><g/><clipPath id="id1"><path d="M 174.984375 122.839844 L 199.734375 122.839844 L 199.734375 149.808594 L 174.984375 149.808594 Z M 174.984375 122.839844 " clip-rule="nonzero"/></clipPath></defs><rect x="-37.5" width="450" fill="#ffffff" y="-37.499999" height="449.999989" fill-opacity="1"/><rect x="-37.5" width="450" fill="#d9d9d9" y="-37.499999" height="449.999989" fill-opacity="1"/><g fill="#985920" fill-opacity="1"><g transform="translate(132.25923, 233.861761)"><g><path d="M 6.703125 -2.375 C 6.703125 -2.050781 6.640625 -1.742188 6.515625 -1.453125 C 6.390625 -1.160156 6.21875 -0.90625 6 -0.6875 C 5.78125 -0.476562 5.523438 -0.3125 5.234375 -0.1875 C 4.941406 -0.0625 4.632812 0 4.3125 0 L 0.671875 0 L 0.671875 -8.515625 L 4 -8.515625 C 4.28125 -8.515625 4.550781 -8.457031 4.8125 -8.34375 C 5.070312 -8.226562 5.296875 -8.070312 5.484375 -7.875 C 5.671875 -7.6875 5.820312 -7.460938 5.9375 -7.203125 C 6.050781 -6.941406 6.109375 -6.664062 6.109375 -6.375 C 6.109375 -6 6.046875 -5.660156 5.921875 -5.359375 C 5.804688 -5.066406 5.613281 -4.816406 5.34375 -4.609375 C 5.800781 -4.441406 6.140625 -4.15625 6.359375 -3.75 C 6.585938 -3.34375 6.703125 -2.882812 6.703125 -2.375 Z M 1.921875 -5.0625 C 2.242188 -5.050781 2.539062 -5.046875 2.8125 -5.046875 L 4.015625 -5.046875 C 4.316406 -5.046875 4.570312 -5.160156 4.78125 -5.390625 C 4.988281 -5.617188 5.09375 -5.894531 5.09375 -6.21875 C 5.09375 -6.539062 4.988281 -6.8125 4.78125 -7.03125 C 4.570312 -7.257812 4.316406 -7.375 4.015625 -7.375 L 1.921875 -7.375 Z M 1.921875 -1.15625 C 1.972656 -1.15625 2.097656 -1.15625 2.296875 -1.15625 L 4.3125 -1.15625 C 4.476562 -1.15625 4.632812 -1.191406 4.78125 -1.265625 C 4.925781 -1.335938 5.054688 -1.429688 5.171875 -1.546875 C 5.285156 -1.671875 5.375 -1.816406 5.4375 -1.984375 C 5.5 -2.160156 5.53125 -2.34375 5.53125 -2.53125 C 5.53125 -2.71875 5.5 -2.894531 5.4375 -3.0625 C 5.375 -3.226562 5.285156 -3.375 5.171875 -3.5 C 5.054688 -3.625 4.925781 -3.722656 4.78125 -3.796875 C 4.632812 -3.867188 4.476562 -3.90625 4.3125 -3.90625 L 1.921875 -3.90625 Z M 1.921875 -1.15625 "/></g></g></g><g fill="#985920" fill-opacity="1"><g transform="translate(142.459246, 233.861761)"><g><path d="M 1.5 0 L 0.125 0 L 3.671875 -8.515625 L 5.046875 -8.515625 L 8.59375 0 L 7.234375 0 L 6.125 -2.65625 L 2.609375 -2.65625 Z M 3.078125 -3.8125 L 5.640625 -3.8125 L 4.375 -6.890625 Z M 3.078125 -3.8125 "/></g></g></g><g fill="#985920" fill-opacity="1"><g transform="translate(154.24326, 233.861761)"><g><path d="M 7.6875 0 L 6.125 0 L 3.4375 -3.671875 L 1.953125 -3.671875 L 1.953125 0 L 0.703125 0 L 0.703125 -8.515625 L 4.15625 -8.515625 C 4.488281 -8.515625 4.804688 -8.445312 5.109375 -8.3125 C 5.410156 -8.1875 5.671875 -8.015625 5.890625 -7.796875 C 6.109375 -7.578125 6.28125 -7.320312 6.40625 -7.03125 C 6.53125 -6.738281 6.59375 -6.425781 6.59375 -6.09375 C 6.59375 -5.8125 6.550781 -5.546875 6.46875 -5.296875 C 6.382812 -5.054688 6.265625 -4.832031 6.109375 -4.625 C 5.953125 -4.425781 5.765625 -4.253906 5.546875 -4.109375 C 5.328125 -3.960938 5.09375 -3.851562 4.84375 -3.78125 Z M 4.15625 -4.84375 C 4.320312 -4.84375 4.476562 -4.875 4.625 -4.9375 C 4.78125 -5.007812 4.910156 -5.101562 5.015625 -5.21875 C 5.128906 -5.332031 5.21875 -5.46875 5.28125 -5.625 C 5.34375 -5.78125 5.375 -5.945312 5.375 -6.125 C 5.375 -6.300781 5.34375 -6.460938 5.28125 -6.609375 C 5.21875 -6.765625 5.128906 -6.898438 5.015625 -7.015625 C 4.910156 -7.128906 4.78125 -7.21875 4.625 -7.28125 C 4.476562 -7.351562 4.320312 -7.390625 4.15625 -7.390625 L 1.953125 -7.390625 L 1.953125 -4.84375 Z M 4.15625 -4.84375 "/></g></g></g><g fill="#985920" fill-opacity="1"><g transform="translate(165.115273, 233.861761)"><g><path d="M 6.703125 -2.375 C 6.703125 -2.050781 6.640625 -1.742188 6.515625 -1.453125 C 6.390625 -1.160156 6.21875 -0.90625 6 -0.6875 C 5.78125 -0.476562 5.523438 -0.3125 5.234375 -0.1875 C 4.941406 -0.0625 4.632812 0 4.3125 0 L 0.671875 0 L 0.671875 -8.515625 L 4 -8.515625 C 4.28125 -8.515625 4.550781 -8.457031 4.8125 -8.34375 C 5.070312 -8.226562 5.296875 -8.070312 5.484375 -7.875 C 5.671875 -7.6875 5.820312 -7.460938 5.9375 -7.203125 C 6.050781 -6.941406 6.109375 -6.664062 6.109375 -6.375 C 6.109375 -6 6.046875 -5.660156 5.921875 -5.359375 C 5.804688 -5.066406 5.613281 -4.816406 5.34375 -4.609375 C 5.800781 -4.441406 6.140625 -4.15625 6.359375 -3.75 C 6.585938 -3.34375 6.703125 -2.882812 6.703125 -2.375 Z M 1.921875 -5.0625 C 2.242188 -5.050781 2.539062 -5.046875 2.8125 -5.046875 L 4.015625 -5.046875 C 4.316406 -5.046875 4.570312 -5.160156 4.78125 -5.390625 C 4.988281 -5.617188 5.09375 -5.894531 5.09375 -6.21875 C 5.09375 -6.539062 4.988281 -6.8125 4.78125 -7.03125 C 4.570312 -7.257812 4.316406 -7.375 4.015625 -7.375 L 1.921875 -7.375 Z M 1.921875 -1.15625 C 1.972656 -1.15625 2.097656 -1.15625 2.296875 -1.15625 L 4.3125 -1.15625 C 4.476562 -1.15625 4.632812 -1.191406 4.78125 -1.265625 C 4.925781 -1.335938 5.054688 -1.429688 5.171875 -1.546875 C 5.285156 -1.671875 5.375 -1.816406 5.4375 -1.984375 C 5.5 -2.160156 5.53125 -2.34375 5.53125 -2.53125 C 5.53125 -2.71875 5.5 -2.894531 5.4375 -3.0625 C 5.375 -3.226562 5.285156 -3.375 5.171875 -3.5 C 5.054688 -3.625 4.925781 -3.722656 4.78125 -3.796875 C 4.632812 -3.867188 4.476562 -3.90625 4.3125 -3.90625 L 1.921875 -3.90625 Z M 1.921875 -1.15625 "/></g></g></g><g fill="#985920" fill-opacity="1"><g transform="translate(175.315288, 233.861761)"><g><path d="M 5.875 -8.515625 L 5.875 -7.375 L 1.921875 -7.375 L 1.921875 -5.0625 L 5.4375 -5.0625 L 5.4375 -3.90625 L 1.921875 -3.90625 L 1.921875 -1.15625 L 5.875 -1.15625 L 5.875 0 L 0.671875 0 L 0.671875 -8.515625 Z M 5.875 -8.515625 "/></g></g></g><g fill="#985920" fill-opacity="1"><g transform="translate(184.903296, 233.861761)"><g><path d="M 7.6875 0 L 6.125 0 L 3.4375 -3.671875 L 1.953125 -3.671875 L 1.953125 0 L 0.703125 0 L 0.703125 -8.515625 L 4.15625 -8.515625 C 4.488281 -8.515625 4.804688 -8.445312 5.109375 -8.3125 C 5.410156 -8.1875 5.671875 -8.015625 5.890625 -7.796875 C 6.109375 -7.578125 6.28125 -7.320312 6.40625 -7.03125 C 6.53125 -6.738281 6.59375 -6.425781 6.59375 -6.09375 C 6.59375 -5.8125 6.550781 -5.546875 6.46875 -5.296875 C 6.382812 -5.054688 6.265625 -4.832031 6.109375 -4.625 C 5.953125 -4.425781 5.765625 -4.253906 5.546875 -4.109375 C 5.328125 -3.960938 5.09375 -3.851562 4.84375 -3.78125 Z M 4.15625 -4.84375 C 4.320312 -4.84375 4.476562 -4.875 4.625 -4.9375 C 4.78125 -5.007812 4.910156 -5.101562 5.015625 -5.21875 C 5.128906 -5.332031 5.21875 -5.46875 5.28125 -5.625 C 5.34375 -5.78125 5.375 -5.945312 5.375 -6.125 C 5.375 -6.300781 5.34375 -6.460938 5.28125 -6.609375 C 5.21875 -6.765625 5.128906 -6.898438 5.015625 -7.015625 C 4.910156 -7.128906 4.78125 -7.21875 4.625 -7.28125 C 4.476562 -7.351562 4.320312 -7.390625 4.15625 -7.390625 L 1.953125 -7.390625 L 1.953125 -4.84375 Z M 4.15625 -4.84375 "/></g></g></g><g fill="#985920" fill-opacity="1"><g transform="translate(195.775309, 233.861761)"><g/></g></g><g fill="#985920" fill-opacity="1"><g transform="translate(201.907316, 233.861761)"><g><path d="M 6.34375 -2.390625 C 6.34375 -2.023438 6.269531 -1.6875 6.125 -1.375 C 5.988281 -1.070312 5.78125 -0.804688 5.5 -0.578125 C 4.945312 -0.109375 4.238281 0.125 3.375 0.125 C 2.695312 0.125 2.085938 -0.0078125 1.546875 -0.28125 C 1.003906 -0.5625 0.601562 -0.9375 0.34375 -1.40625 L 1.421875 -1.953125 C 1.578125 -1.671875 1.828125 -1.453125 2.171875 -1.296875 C 2.523438 -1.140625 2.925781 -1.0625 3.375 -1.0625 C 4.53125 -1.0625 5.109375 -1.503906 5.109375 -2.390625 C 5.109375 -2.554688 5.078125 -2.695312 5.015625 -2.8125 C 4.960938 -2.9375 4.875 -3.050781 4.75 -3.15625 C 4.457031 -3.394531 3.941406 -3.609375 3.203125 -3.796875 C 2.753906 -3.910156 2.375 -4.035156 2.0625 -4.171875 C 1.75 -4.304688 1.488281 -4.46875 1.28125 -4.65625 C 0.78125 -5.0625 0.53125 -5.601562 0.53125 -6.28125 C 0.53125 -6.613281 0.59375 -6.925781 0.71875 -7.21875 C 0.851562 -7.507812 1.039062 -7.765625 1.28125 -7.984375 C 1.53125 -8.191406 1.820312 -8.347656 2.15625 -8.453125 C 2.488281 -8.566406 2.851562 -8.625 3.25 -8.625 C 3.832031 -8.625 4.367188 -8.507812 4.859375 -8.28125 C 5.359375 -8.0625 5.734375 -7.75 5.984375 -7.34375 L 5.015625 -6.75 C 4.785156 -7.019531 4.515625 -7.210938 4.203125 -7.328125 C 3.898438 -7.453125 3.582031 -7.515625 3.25 -7.515625 C 3.007812 -7.515625 2.789062 -7.472656 2.59375 -7.390625 C 2.394531 -7.304688 2.226562 -7.210938 2.09375 -7.109375 C 1.976562 -7.003906 1.894531 -6.882812 1.84375 -6.75 C 1.789062 -6.613281 1.765625 -6.460938 1.765625 -6.296875 C 1.765625 -6.191406 1.78125 -6.082031 1.8125 -5.96875 C 1.84375 -5.863281 1.914062 -5.753906 2.03125 -5.640625 C 2.15625 -5.523438 2.332031 -5.410156 2.5625 -5.296875 C 2.800781 -5.191406 3.117188 -5.085938 3.515625 -4.984375 C 3.992188 -4.867188 4.394531 -4.738281 4.71875 -4.59375 C 5.050781 -4.457031 5.332031 -4.296875 5.5625 -4.109375 C 6.082031 -3.671875 6.34375 -3.097656 6.34375 -2.390625 Z M 6.34375 -2.390625 "/></g></g></g><g fill="#985920" fill-opacity="1"><g transform="translate(211.867326, 233.861761)"><g><path d="M 6.703125 -8.515625 L 7.9375 -8.515625 L 7.9375 0 L 6.703125 0 L 6.703125 -3.90625 L 1.9375 -3.90625 L 1.9375 0 L 0.671875 0 L 0.671875 -8.515625 L 1.9375 -8.515625 L 1.9375 -5.0625 L 6.703125 -5.0625 Z M 6.703125 -8.515625 "/></g></g></g><g fill="#985920" fill-opacity="1"><g transform="translate(223.543343, 233.861761)"><g><path d="M 4.625 -8.625 C 5.195312 -8.625 5.738281 -8.507812 6.25 -8.28125 C 6.757812 -8.050781 7.203125 -7.738281 7.578125 -7.34375 C 7.960938 -6.945312 8.265625 -6.476562 8.484375 -5.9375 C 8.710938 -5.40625 8.828125 -4.847656 8.828125 -4.265625 C 8.828125 -3.660156 8.710938 -3.09375 8.484375 -2.5625 C 8.265625 -2.039062 7.960938 -1.582031 7.578125 -1.1875 C 7.203125 -0.789062 6.753906 -0.472656 6.234375 -0.234375 C 5.722656 -0.00390625 5.179688 0.109375 4.609375 0.109375 C 4.035156 0.109375 3.488281 -0.00390625 2.96875 -0.234375 C 2.457031 -0.472656 2.007812 -0.789062 1.625 -1.1875 C 1.25 -1.582031 0.953125 -2.039062 0.734375 -2.5625 C 0.515625 -3.09375 0.40625 -3.660156 0.40625 -4.265625 C 0.40625 -4.847656 0.515625 -5.40625 0.734375 -5.9375 C 0.953125 -6.476562 1.253906 -6.945312 1.640625 -7.34375 C 2.023438 -7.738281 2.472656 -8.050781 2.984375 -8.28125 C 3.492188 -8.507812 4.039062 -8.625 4.625 -8.625 Z M 4.625 -1.078125 C 5.03125 -1.078125 5.410156 -1.160156 5.765625 -1.328125 C 6.117188 -1.492188 6.425781 -1.71875 6.6875 -2 C 6.957031 -2.289062 7.164062 -2.628906 7.3125 -3.015625 C 7.46875 -3.398438 7.546875 -3.816406 7.546875 -4.265625 C 7.546875 -4.703125 7.46875 -5.113281 7.3125 -5.5 C 7.164062 -5.882812 6.957031 -6.21875 6.6875 -6.5 C 6.425781 -6.789062 6.117188 -7.015625 5.765625 -7.171875 C 5.410156 -7.335938 5.03125 -7.421875 4.625 -7.421875 C 4.21875 -7.421875 3.832031 -7.335938 3.46875 -7.171875 C 3.113281 -7.015625 2.800781 -6.789062 2.53125 -6.5 C 2.269531 -6.21875 2.0625 -5.882812 1.90625 -5.5 C 1.757812 -5.113281 1.6875 -4.703125 1.6875 -4.265625 C 1.6875 -3.816406 1.757812 -3.398438 1.90625 -3.015625 C 2.0625 -2.628906 2.269531 -2.289062 2.53125 -2 C 2.800781 -1.71875 3.113281 -1.492188 3.46875 -1.328125 C 3.832031 -1.160156 4.21875 -1.078125 4.625 -1.078125 Z M 4.625 -1.078125 "/></g></g></g><g fill="#985920" fill-opacity="1"><g transform="translate(235.747356, 233.861761)"><g><path d="M 4.109375 -8.515625 C 4.441406 -8.515625 4.753906 -8.445312 5.046875 -8.3125 C 5.347656 -8.1875 5.609375 -8.015625 5.828125 -7.796875 C 6.046875 -7.578125 6.21875 -7.320312 6.34375 -7.03125 C 6.476562 -6.738281 6.546875 -6.425781 6.546875 -6.09375 C 6.546875 -5.757812 6.476562 -5.441406 6.34375 -5.140625 C 6.21875 -4.847656 6.046875 -4.59375 5.828125 -4.375 C 5.609375 -4.164062 5.347656 -4 5.046875 -3.875 C 4.753906 -3.75 4.441406 -3.6875 4.109375 -3.6875 L 1.890625 -3.671875 L 1.890625 0 L 0.640625 0 L 0.640625 -8.515625 Z M 4.109375 -4.84375 C 4.273438 -4.84375 4.429688 -4.875 4.578125 -4.9375 C 4.722656 -5.007812 4.851562 -5.101562 4.96875 -5.21875 C 5.082031 -5.332031 5.171875 -5.46875 5.234375 -5.625 C 5.296875 -5.78125 5.328125 -5.945312 5.328125 -6.125 C 5.328125 -6.300781 5.296875 -6.460938 5.234375 -6.609375 C 5.171875 -6.765625 5.082031 -6.898438 4.96875 -7.015625 C 4.851562 -7.128906 4.722656 -7.21875 4.578125 -7.28125 C 4.429688 -7.351562 4.273438 -7.390625 4.109375 -7.390625 L 1.890625 -7.390625 L 1.890625 -4.84375 Z M 4.109375 -4.84375 "/></g></g></g><g fill="#343434" fill-opacity="1"><g transform="translate(67.507125, 203.999987)"><g><path d="M 18.941406 -27.550781 C 18.941406 -31.5 16.800781 -33.601562 12.894531 -33.601562 L 8.191406 -33.601562 C 4.242188 -33.601562 2.101562 -31.5 2.101562 -27.550781 L 2.101562 -6.046875 C 2.101562 -2.101562 4.242188 0 8.191406 0 L 12.894531 0 C 16.800781 0 18.941406 -2.101562 18.941406 -6.046875 L 18.941406 -10.585938 C 18.941406 -11.003906 18.691406 -11.257812 18.269531 -11.257812 L 14.070312 -11.257812 C 13.609375 -11.257812 13.398438 -11.003906 13.398438 -10.585938 L 13.398438 -7.222656 C 13.398438 -6.089844 12.808594 -5.542969 11.71875 -5.542969 L 9.535156 -5.542969 C 8.441406 -5.542969 7.855469 -6.089844 7.855469 -7.222656 L 7.855469 -26.375 C 7.855469 -27.46875 8.398438 -28.054688 9.535156 -28.054688 L 11.71875 -28.054688 C 12.808594 -28.054688 13.398438 -27.46875 13.398438 -26.375 L 13.398438 -23.015625 C 13.398438 -22.597656 13.609375 -22.34375 14.070312 -22.34375 L 18.269531 -22.34375 C 18.691406 -22.34375 18.941406 -22.597656 18.941406 -23.015625 Z M 18.941406 -27.550781 "/></g></g></g><g fill="#343434" fill-opacity="1"><g transform="translate(88.549124, 203.999987)"><g><path d="M 7.8125 -5.542969 L 17.808594 -5.542969 C 18.269531 -5.542969 18.480469 -5.292969 18.480469 -4.871094 L 18.480469 -0.671875 C 18.480469 -0.210938 18.269531 0 17.808594 0 L 2.773438 0 C 2.351562 0 2.101562 -0.210938 2.101562 -0.671875 L 2.101562 -32.929688 C 2.101562 -33.347656 2.351562 -33.601562 2.773438 -33.601562 L 7.140625 -33.601562 C 7.601562 -33.601562 7.8125 -33.347656 7.8125 -32.929688 Z M 7.8125 -5.542969 "/></g></g></g><g fill="#343434" fill-opacity="1"><g transform="translate(109.129124, 203.999987)"><g><path d="M 22.34375 0 C 22.847656 0 23.015625 -0.253906 22.933594 -0.714844 L 15.960938 -33.011719 C 15.875 -33.433594 15.625 -33.601562 15.246094 -33.601562 L 9.40625 -33.601562 C 9.03125 -33.601562 8.777344 -33.433594 8.695312 -33.011719 L 1.722656 -0.714844 C 1.597656 -0.253906 1.804688 0 2.269531 0 L 6.761719 0 C 7.140625 0 7.351562 -0.210938 7.433594 -0.589844 L 8.566406 -6.71875 L 16.042969 -6.71875 L 17.21875 -0.589844 C 17.304688 -0.210938 17.515625 0 17.890625 0 Z M 14.992188 -11.59375 L 9.617188 -11.59375 L 12.304688 -26.25 Z M 14.992188 -11.59375 "/></g></g></g><g fill="#343434" fill-opacity="1"><g transform="translate(133.741118, 203.999987)"><g><path d="M 19.363281 -27.550781 C 19.363281 -31.5 17.261719 -33.601562 13.3125 -33.601562 L 2.773438 -33.601562 C 2.351562 -33.601562 2.101562 -33.347656 2.101562 -32.929688 L 2.101562 -0.671875 C 2.101562 -0.253906 2.351562 0 2.773438 0 L 7.140625 0 C 7.558594 0 7.8125 -0.253906 7.8125 -0.671875 L 7.8125 -11.257812 L 10.710938 -11.257812 L 13.523438 -0.589844 C 13.609375 -0.210938 13.816406 0 14.238281 0 L 18.605469 0 C 19.066406 0 19.320312 -0.253906 19.195312 -0.757812 L 16.296875 -11.761719 C 18.3125 -12.640625 19.363281 -14.488281 19.363281 -17.304688 Z M 7.8125 -16.800781 L 7.8125 -28.054688 L 11.96875 -28.054688 C 13.0625 -28.054688 13.648438 -27.46875 13.648438 -26.375 L 13.648438 -18.480469 C 13.648438 -17.386719 13.0625 -16.800781 11.96875 -16.800781 Z M 7.8125 -16.800781 "/></g></g></g><g fill="#343434" fill-opacity="1"><g transform="translate(155.203114, 203.999987)"><g><path d="M 20.074219 0 C 20.746094 0 21 -0.421875 20.707031 -0.964844 L 13.105469 -17.933594 L 20.242188 -32.59375 C 20.539062 -33.179688 20.285156 -33.601562 19.65625 -33.601562 L 15.246094 -33.601562 C 14.785156 -33.601562 14.488281 -33.390625 14.28125 -32.96875 L 7.8125 -19.738281 L 7.8125 -32.761719 C 7.8125 -33.304688 7.519531 -33.601562 6.972656 -33.601562 L 2.941406 -33.601562 C 2.394531 -33.601562 2.101562 -33.304688 2.101562 -32.761719 L 2.101562 -0.839844 C 2.101562 -0.292969 2.394531 0 2.941406 0 L 6.972656 0 C 7.519531 0 7.8125 -0.292969 7.8125 -0.839844 L 7.8125 -10.121094 L 9.367188 -13.105469 L 14.65625 -0.628906 C 14.824219 -0.210938 15.121094 0 15.625 0 Z M 20.074219 0 "/></g></g></g><g fill="#343434" fill-opacity="1"><g transform="translate(177.710243, 203.999987)"><g/></g><g transform="translate(188.210243, 203.999987)"><g><path d="M 8.191406 -33.601562 C 4.242188 -33.601562 2.101562 -31.5 2.101562 -27.550781 L 2.101562 -20.242188 C 2.101562 -18.691406 3.234375 -17.515625 4.746094 -17.261719 L 4.746094 -17.179688 C 3.234375 -16.925781 2.101562 -15.75 2.101562 -14.195312 L 2.101562 -6.046875 C 2.101562 -2.101562 4.242188 0 8.191406 0 L 18.101562 0 C 18.648438 0 18.941406 -0.292969 18.941406 -0.839844 L 18.941406 -14.449219 L 20.707031 -14.449219 C 21.253906 -14.449219 21.546875 -14.742188 21.546875 -15.289062 L 21.546875 -19.152344 C 21.546875 -19.699219 21.253906 -19.992188 20.707031 -19.992188 L 18.941406 -19.992188 L 18.941406 -21.671875 C 18.941406 -22.21875 18.648438 -22.511719 18.101562 -22.511719 L 14.113281 -22.511719 C 13.566406 -22.511719 13.273438 -22.21875 13.273438 -21.671875 L 13.273438 -19.992188 L 9.367188 -19.992188 C 8.273438 -19.992188 7.6875 -20.578125 7.6875 -21.628906 L 7.6875 -26.375 C 7.6875 -27.46875 8.230469 -28.054688 9.367188 -28.054688 L 15.792969 -28.054688 C 16.339844 -28.054688 16.632812 -28.351562 16.632812 -28.894531 L 16.632812 -32.761719 C 16.632812 -33.304688 16.339844 -33.601562 15.792969 -33.601562 Z M 13.273438 -14.449219 L 13.273438 -5.542969 L 9.367188 -5.542969 C 8.273438 -5.542969 7.6875 -6.089844 7.6875 -7.222656 L 7.6875 -12.769531 C 7.6875 -13.859375 8.230469 -14.449219 9.367188 -14.449219 Z M 13.273438 -14.449219 "/></g></g><g transform="translate(211.856243, 203.999987)"><g/></g><g transform="translate(222.356242, 203.999987)"><g><path d="M 8.148438 -33.601562 C 4.242188 -33.601562 2.101562 -31.5 2.101562 -27.550781 L 2.101562 -17.640625 C 2.101562 -16.84375 2.476562 -16.339844 3.234375 -16.085938 L 13.1875 -12.808594 L 13.1875 -7.222656 C 13.1875 -6.089844 12.601562 -5.542969 11.507812 -5.542969 L 9.492188 -5.542969 C 8.441406 -5.542969 7.8125 -6.089844 7.8125 -7.222656 L 7.8125 -10.457031 C 7.8125 -10.921875 7.601562 -11.128906 7.140625 -11.128906 L 2.773438 -11.128906 C 2.351562 -11.128906 2.101562 -10.921875 2.101562 -10.457031 L 2.101562 -6.046875 C 2.101562 -2.101562 4.242188 0 8.148438 0 L 12.851562 0 C 16.800781 0 18.898438 -2.101562 18.898438 -6.046875 L 18.898438 -15.75 C 18.898438 -16.546875 18.523438 -17.011719 17.808594 -17.304688 L 7.8125 -20.578125 L 7.8125 -26.375 C 7.8125 -27.46875 8.441406 -28.054688 9.492188 -28.054688 L 11.507812 -28.054688 C 12.640625 -28.054688 13.1875 -27.46875 13.1875 -26.375 L 13.1875 -23.101562 C 13.1875 -22.679688 13.441406 -22.429688 13.859375 -22.429688 L 18.226562 -22.429688 C 18.691406 -22.429688 18.898438 -22.679688 18.898438 -23.101562 L 18.898438 -27.550781 C 18.898438 -31.5 16.800781 -33.601562 12.851562 -33.601562 Z M 8.148438 -33.601562 "/></g></g><g transform="translate(243.356242, 203.999987)"><g><path d="M 2.101562 -6.046875 C 2.101562 -2.101562 4.199219 0 8.148438 0 L 12.851562 0 C 16.800781 0 18.898438 -2.101562 18.898438 -6.046875 L 18.898438 -27.550781 C 18.898438 -31.5 16.800781 -33.601562 12.851562 -33.601562 L 8.148438 -33.601562 C 4.199219 -33.601562 2.101562 -31.5 2.101562 -27.550781 Z M 9.367188 -5.417969 C 8.273438 -5.417969 7.6875 -5.964844 7.6875 -7.097656 L 7.6875 -26.503906 C 7.6875 -27.59375 8.273438 -28.183594 9.367188 -28.183594 L 11.800781 -28.183594 C 12.894531 -28.183594 13.480469 -27.59375 13.480469 -26.503906 L 13.480469 -7.097656 C 13.480469 -5.964844 12.894531 -5.417969 11.800781 -5.417969 Z M 9.367188 -5.417969 "/></g></g><g transform="translate(264.356242, 203.999987)"><g><path d="M 14.992188 -33.601562 C 14.53125 -33.601562 14.320312 -33.347656 14.320312 -32.929688 L 14.320312 -15.203125 L 14.070312 -15.203125 L 7.6875 -33.054688 C 7.558594 -33.433594 7.308594 -33.601562 6.929688 -33.601562 L 2.773438 -33.601562 C 2.351562 -33.601562 2.101562 -33.347656 2.101562 -32.929688 L 2.101562 -0.671875 C 2.101562 -0.253906 2.351562 0 2.773438 0 L 7.140625 0 C 7.601562 0 7.8125 -0.253906 7.8125 -0.671875 L 7.8125 -18.480469 L 8.023438 -18.480469 L 14.449219 -0.546875 C 14.574219 -0.167969 14.824219 0 15.203125 0 L 19.363281 0 C 19.78125 0 20.035156 -0.253906 20.035156 -0.671875 L 20.035156 -32.929688 C 20.035156 -33.347656 19.78125 -33.601562 19.363281 -33.601562 Z M 14.992188 -33.601562 "/></g></g></g><g fill="#343434" fill-opacity="1"><g transform="translate(286.490231, 203.999987)"><g><path d="M 8.148438 -33.601562 C 4.242188 -33.601562 2.101562 -31.5 2.101562 -27.550781 L 2.101562 -17.640625 C 2.101562 -16.84375 2.476562 -16.339844 3.234375 -16.085938 L 13.1875 -12.808594 L 13.1875 -7.222656 C 13.1875 -6.089844 12.601562 -5.542969 11.507812 -5.542969 L 9.492188 -5.542969 C 8.441406 -5.542969 7.8125 -6.089844 7.8125 -7.222656 L 7.8125 -10.457031 C 7.8125 -10.921875 7.601562 -11.128906 7.140625 -11.128906 L 2.773438 -11.128906 C 2.351562 -11.128906 2.101562 -10.921875 2.101562 -10.457031 L 2.101562 -6.046875 C 2.101562 -2.101562 4.242188 0 8.148438 0 L 12.851562 0 C 16.800781 0 18.898438 -2.101562 18.898438 -6.046875 L 18.898438 -15.75 C 18.898438 -16.546875 18.523438 -17.011719 17.808594 -17.304688 L 7.8125 -20.578125 L 7.8125 -26.375 C 7.8125 -27.46875 8.441406 -28.054688 9.492188 -28.054688 L 11.507812 -28.054688 C 12.640625 -28.054688 13.1875 -27.46875 13.1875 -26.375 L 13.1875 -23.101562 C 13.1875 -22.679688 13.441406 -22.429688 13.859375 -22.429688 L 18.226562 -22.429688 C 18.691406 -22.429688 18.898438 -22.679688 18.898438 -23.101562 L 18.898438 -27.550781 C 18.898438 -31.5 16.800781 -33.601562 12.851562 -33.601562 Z M 8.148438 -33.601562 "/></g></g></g><g clip-path="url(#id1)"><path fill="#985920" d="M 199.097656 140.953125 C 198.070312 138.894531 196.019531 137.609375 193.75 137.609375 C 193.089844 137.609375 192.429688 137.722656 191.804688 137.941406 L 189.464844 135.007812 L 197 125.535156 C 197.566406 124.824219 197.457031 123.773438 196.757812 123.195312 C 196.058594 122.617188 195.027344 122.730469 194.460938 123.441406 L 187.363281 132.363281 L 180.261719 123.449219 C 179.691406 122.730469 178.667969 122.625 177.960938 123.203125 C 177.257812 123.78125 177.152344 124.824219 177.722656 125.535156 L 185.253906 135 L 182.917969 137.9375 C 182.292969 137.71875 181.632812 137.605469 180.972656 137.605469 C 178.699219 137.605469 176.652344 138.886719 175.625 140.945312 C 174.136719 143.949219 175.324219 147.613281 178.269531 149.128906 C 179.105469 149.5625 180.03125 149.789062 180.964844 149.789062 C 183.238281 149.789062 185.289062 148.503906 186.3125 146.445312 C 187.410156 144.234375 187.050781 141.65625 185.609375 139.847656 L 187.363281 137.644531 L 189.121094 139.847656 C 188.664062 140.421875 188.304688 141.078125 188.074219 141.800781 C 187.574219 143.351562 187.695312 144.996094 188.421875 146.453125 C 189.445312 148.511719 191.496094 149.792969 193.769531 149.792969 C 194.695312 149.792969 195.628906 149.566406 196.464844 149.136719 C 199.394531 147.613281 200.585938 143.949219 199.097656 140.953125 Z M 183.394531 144.945312 C 182.929688 145.882812 181.996094 146.464844 180.964844 146.464844 C 180.542969 146.464844 180.128906 146.367188 179.746094 146.167969 C 178.40625 145.476562 177.863281 143.808594 178.542969 142.445312 C 179.007812 141.511719 179.941406 140.925781 180.972656 140.925781 C 181.398438 140.925781 181.808594 141.023438 182.191406 141.222656 C 183.539062 141.914062 184.074219 143.582031 183.394531 144.945312 Z M 194.976562 146.167969 C 194.589844 146.367188 194.179688 146.464844 193.753906 146.464844 C 192.722656 146.464844 191.789062 145.882812 191.328125 144.945312 C 191 144.285156 190.941406 143.535156 191.171875 142.832031 C 191.398438 142.128906 191.875 141.558594 192.527344 141.222656 C 192.914062 141.023438 193.324219 140.925781 193.75 140.925781 C 194.78125 140.925781 195.714844 141.511719 196.175781 142.445312 C 196.855469 143.808594 196.320312 145.476562 194.976562 146.167969 Z M 194.976562 146.167969 " fill-opacity="1" fill-rule="nonzero"/></g></svg>