<svg xmlns="http://www.w3.org/2000/svg" xmlns:xlink="http://www.w3.org/1999/xlink" width="375" zoomAndPan="magnify" viewBox="0 0 281.25 281.249989" height="375" preserveAspectRatio="xMidYMid meet" version="1.0"><defs><clipPath id="af71931e94"><path d="M 56.101562 59.464844 L 224 59.464844 L 224 221 L 56.101562 221 Z M 56.101562 59.464844 " clip-rule="nonzero"/></clipPath></defs><g clip-path="url(#af71931e94)"><path fill="#100f0d" d="M 102.261719 220.671875 C 98.570312 220.671875 93.890625 219.988281 90.222656 219.144531 C 83.179688 217.519531 76.023438 210.71875 74.902344 204.585938 C 74.234375 200.910156 76.539062 197.984375 78.222656 195.84375 C 79.320312 194.441406 80.191406 193.34375 79.839844 192.597656 C 78.8125 190.429688 83.296875 182.613281 86.785156 180.472656 C 87.703125 179.914062 88.285156 179.039062 88.527344 177.871094 C 89.039062 175.371094 87.878906 172.039062 86.464844 170.042969 C 84.441406 167.167969 85.457031 163.292969 86.007812 161.210938 C 86.53125 159.207031 85.582031 151.273438 84.324219 148.921875 C 83.035156 146.5 79.96875 136.925781 79.058594 129.175781 C 78.726562 126.347656 78.882812 123.808594 79.027344 121.570312 C 79.289062 117.429688 79.5 114.15625 76.796875 110.839844 C 74.070312 107.480469 70.570312 97.71875 68.015625 90.589844 C 66.667969 86.816406 65.5 83.5625 65.136719 83.261719 C 64.761719 82.960938 61.496094 80.257812 61.761719 79.03125 C 61.800781 78.855469 61.933594 78.621094 62.339844 78.515625 C 63.296875 78.265625 64.789062 76.6875 65.585938 75.707031 C 63.957031 77.015625 61.011719 78.136719 60.046875 77.519531 C 59.484375 77.152344 58.691406 77.042969 57.992188 76.9375 C 57.566406 76.878906 57.171875 76.820312 56.859375 76.714844 C 56.492188 76.589844 56.492188 76.355469 56.507812 76.257812 C 56.589844 75.746094 57.75 75.203125 58.769531 75.203125 C 59.453125 75.203125 60.183594 75.371094 60.722656 75.496094 C 60.859375 75.53125 61.003906 75.5625 61.128906 75.589844 C 60.628906 75.210938 59.253906 74.464844 58.425781 74.371094 C 58.011719 74.324219 57.578125 74.449219 57.226562 74.554688 C 56.867188 74.660156 56.585938 74.746094 56.382812 74.621094 C 56.289062 74.566406 56.230469 74.476562 56.203125 74.351562 C 56.179688 74.214844 56.21875 74.0625 56.328125 73.90625 C 56.75 73.304688 58.148438 72.636719 59.453125 72.414062 C 60.539062 72.238281 61.566406 72.746094 62.175781 73.160156 C 61.847656 72.570312 61.292969 71.714844 60.644531 71.222656 C 60.082031 70.804688 59.289062 70.785156 58.523438 70.765625 C 57.867188 70.75 57.253906 70.730469 56.828125 70.46875 C 56.519531 70.273438 56.539062 70.070312 56.578125 69.964844 C 56.792969 69.363281 58.824219 69.042969 60.753906 69.296875 C 62.699219 69.558594 64.09375 70.535156 64.644531 70.980469 C 64.636719 70.507812 64.527344 69.550781 63.824219 68.445312 C 62.96875 67.085938 62.175781 64.40625 62.632812 63.894531 C 62.679688 63.84375 62.816406 63.734375 63.046875 63.84375 C 63.839844 64.242188 65.84375 67.109375 66.730469 69.402344 C 67.609375 71.640625 69.1875 74.664062 69.605469 74.71875 C 69.605469 74.710938 69.652344 74.625 69.652344 74.324219 C 69.652344 72.648438 71 71.242188 71.871094 71.136719 C 72.296875 71.089844 72.597656 71.320312 72.703125 71.773438 C 72.808594 72.242188 72.710938 73.226562 72.578125 74.476562 C 72.308594 77.101562 71.90625 81.070312 73.226562 83.203125 C 75.222656 86.425781 85.652344 108.207031 87.238281 112.761719 C 88.886719 117.484375 93.410156 126.5 94.765625 128.582031 C 96.195312 130.78125 101.3125 137.03125 103.148438 136.824219 C 103.308594 136.804688 103.421875 136.726562 103.492188 136.585938 C 104.078125 135.449219 101.953125 130.761719 99.742188 126.890625 C 98.210938 124.199219 98.175781 113.613281 99.703125 110.472656 C 99.957031 109.941406 100.257812 109.644531 100.601562 109.59375 C 100.777344 109.566406 100.945312 109.621094 101.109375 109.746094 C 102.347656 110.695312 103.003906 116.496094 103.578125 121.613281 C 103.894531 124.402344 104.1875 127.042969 104.519531 128.1875 C 104.683594 128.761719 105.109375 129.242188 105.785156 129.601562 C 108.410156 131.023438 114.34375 130.359375 116.785156 129.609375 C 119.558594 128.757812 119.394531 123.085938 119.296875 119.710938 C 119.1875 116.003906 114.929688 108.964844 112.808594 107.589844 C 111.875 106.980469 111.152344 106.871094 110.726562 106.804688 C 110.453125 106.757812 110.277344 106.734375 110.21875 106.570312 C 110.144531 106.371094 110.308594 106.175781 110.804688 105.601562 C 111.3125 105.003906 111.460938 104.402344 111.226562 103.890625 C 110.988281 103.367188 110.382812 103.019531 109.726562 103.019531 C 109.136719 103.019531 108.644531 102.875 108.023438 102.695312 C 107.207031 102.457031 106.199219 102.164062 104.460938 102.039062 C 103.328125 101.960938 102.445312 102.253906 101.816406 102.921875 C 100.972656 103.828125 100.652344 105.390625 100.914062 107.320312 C 100.984375 107.828125 101.242188 108.238281 101.671875 108.558594 C 103.550781 109.929688 108.121094 109.160156 108.167969 109.15625 C 108.261719 109.140625 108.339844 109.203125 108.351562 109.285156 C 108.363281 109.371094 108.304688 109.457031 108.21875 109.46875 C 108.03125 109.503906 103.472656 110.269531 101.488281 108.816406 C 100.980469 108.441406 100.679688 107.957031 100.601562 107.367188 C 100.316406 105.339844 100.671875 103.683594 101.589844 102.707031 C 102.28125 101.960938 103.257812 101.632812 104.488281 101.71875 C 106.25 101.84375 107.285156 102.144531 108.109375 102.390625 C 108.710938 102.5625 109.183594 102.707031 109.726562 102.707031 C 110.503906 102.707031 111.226562 103.125 111.511719 103.753906 C 111.683594 104.121094 111.847656 104.875 111.046875 105.804688 C 110.839844 106.050781 110.605469 106.320312 110.539062 106.445312 C 110.597656 106.457031 110.6875 106.476562 110.78125 106.492188 C 111.199219 106.554688 111.992188 106.675781 112.980469 107.320312 C 115.148438 108.730469 119.507812 115.910156 119.617188 119.695312 C 119.71875 123.171875 119.886719 128.984375 116.882812 129.914062 C 114.78125 130.558594 108.566406 131.46875 105.628906 129.882812 C 104.882812 129.476562 104.410156 128.941406 104.214844 128.277344 C 103.875 127.101562 103.589844 124.574219 103.257812 121.648438 C 102.722656 116.839844 102.046875 110.863281 100.914062 109.992188 C 100.824219 109.921875 100.738281 109.894531 100.644531 109.910156 C 100.421875 109.941406 100.195312 110.183594 99.992188 110.609375 C 98.53125 113.613281 98.558594 124.160156 100.023438 126.726562 C 100.5 127.566406 104.671875 134.96875 103.773438 136.730469 C 103.65625 136.96875 103.453125 137.105469 103.179688 137.136719 C 103.148438 137.144531 103.105469 137.144531 103.066406 137.144531 C 100.886719 137.144531 95.839844 130.820312 94.496094 128.757812 C 93.105469 126.601562 88.625 117.707031 86.941406 112.867188 C 85.351562 108.316406 74.949219 86.589844 72.957031 83.375 C 71.578125 81.148438 71.988281 77.113281 72.265625 74.441406 C 72.382812 73.269531 72.488281 72.261719 72.390625 71.84375 C 72.324219 71.554688 72.167969 71.425781 71.90625 71.457031 C 71.144531 71.542969 69.972656 72.867188 69.972656 74.324219 C 69.972656 74.503906 69.972656 74.972656 69.664062 75.03125 C 68.742188 75.203125 66.464844 69.574219 66.4375 69.511719 C 65.535156 67.195312 63.578125 64.464844 62.910156 64.132812 C 62.875 64.113281 62.863281 64.117188 62.863281 64.117188 C 62.621094 64.328125 63.144531 66.777344 64.09375 68.277344 C 65.15625 69.953125 64.953125 71.289062 64.9375 71.339844 C 64.933594 71.398438 64.886719 71.445312 64.832031 71.464844 C 64.773438 71.484375 64.714844 71.472656 64.671875 71.433594 C 64.65625 71.417969 63.09375 69.933594 60.714844 69.613281 C 58.566406 69.332031 56.976562 69.796875 56.878906 70.070312 C 56.867188 70.097656 56.917969 70.148438 56.992188 70.195312 C 57.351562 70.417969 57.921875 70.429688 58.527344 70.449219 C 59.308594 70.460938 60.191406 70.488281 60.832031 70.96875 C 61.945312 71.804688 62.765625 73.578125 62.796875 73.65625 C 62.832031 73.722656 62.804688 73.808594 62.746094 73.847656 C 62.679688 73.894531 62.601562 73.886719 62.542969 73.835938 C 62.527344 73.820312 61.050781 72.472656 59.503906 72.726562 C 58.167969 72.949219 56.917969 73.613281 56.589844 74.082031 C 56.53125 74.167969 56.511719 74.242188 56.519531 74.292969 C 56.527344 74.324219 56.53125 74.339844 56.546875 74.351562 C 56.625 74.398438 56.898438 74.320312 57.140625 74.246094 C 57.515625 74.136719 57.980469 74.003906 58.457031 74.058594 C 59.414062 74.160156 61.375 75.195312 61.59375 75.613281 C 61.652344 75.738281 61.597656 75.824219 61.574219 75.851562 C 61.460938 76 61.238281 75.949219 60.648438 75.8125 C 60.125 75.6875 59.414062 75.515625 58.769531 75.515625 C 57.789062 75.515625 56.867188 76.046875 56.820312 76.308594 C 56.8125 76.363281 56.917969 76.402344 56.957031 76.414062 C 57.246094 76.503906 57.632812 76.566406 58.03125 76.625 C 58.769531 76.726562 59.601562 76.851562 60.222656 77.253906 C 61.054688 77.789062 64.25 76.570312 65.738281 75.148438 C 66.117188 74.789062 66.222656 74.746094 66.339844 74.804688 C 66.398438 74.828125 66.4375 74.921875 66.429688 74.988281 C 66.390625 75.398438 63.871094 78.445312 62.417969 78.824219 C 62.148438 78.894531 62.089844 79.019531 62.078125 79.105469 C 61.90625 79.882812 63.984375 81.914062 65.332031 83.011719 C 65.75 83.355469 66.648438 85.808594 68.316406 90.476562 C 70.863281 97.585938 74.351562 107.320312 77.042969 110.636719 C 79.820312 114.050781 79.605469 117.546875 79.339844 121.589844 C 79.203125 123.8125 79.046875 126.339844 79.375 129.144531 C 80.285156 136.855469 83.324219 146.367188 84.605469 148.765625 C 85.890625 151.167969 86.851562 159.246094 86.3125 161.296875 C 85.777344 163.324219 84.78125 167.101562 86.726562 169.859375 C 88.179688 171.914062 89.371094 175.34375 88.835938 177.9375 C 88.578125 179.195312 87.945312 180.136719 86.957031 180.746094 C 83.636719 182.777344 79.171875 190.441406 80.128906 192.460938 C 80.566406 193.382812 79.644531 194.554688 78.472656 196.039062 C 76.828125 198.136719 74.574219 200.996094 75.21875 204.523438 C 76.308594 210.546875 83.363281 217.234375 90.292969 218.835938 C 97.855469 220.578125 106.746094 221.109375 107.945312 218.914062 C 108.625 217.664062 105.71875 215 102.640625 212.183594 C 100.21875 209.960938 97.46875 207.4375 96.03125 205.1875 C 94.113281 202.179688 89.789062 199.726562 86.636719 197.9375 C 84.292969 196.601562 82.59375 195.640625 82.453125 194.855469 C 82.089844 192.925781 88.671875 181.105469 91.066406 180.457031 C 92.554688 180.050781 98.164062 179.609375 103.597656 179.175781 C 107.132812 178.894531 110.480469 178.625 112.769531 178.371094 C 113.648438 178.277344 114.492188 178.1875 115.296875 178.101562 C 119.738281 177.644531 123.253906 177.277344 124.136719 176.03125 C 124.207031 175.933594 124.1875 175.894531 124.183594 175.882812 C 123.90625 175.34375 120.351562 175.300781 116.585938 175.253906 C 113.40625 175.214844 109.804688 175.164062 106.425781 174.859375 C 105.207031 174.75 104.035156 174.65625 102.925781 174.558594 C 96.082031 173.984375 91.566406 173.605469 90.230469 171.960938 C 90.195312 171.921875 86.8125 167.746094 87.304688 166.703125 C 87.355469 166.585938 87.480469 166.453125 87.75 166.453125 C 88.171875 166.453125 88.625 166.734375 89.070312 167.011719 C 89.449219 167.242188 89.875 167.507812 90.058594 167.398438 C 90.175781 167.320312 90.347656 166.992188 90.195312 165.648438 C 89.777344 161.9375 90.753906 152.167969 91.527344 149.183594 C 92.285156 146.265625 98.40625 138.269531 99.480469 137.714844 C 99.617188 137.640625 99.710938 137.714844 99.730469 137.734375 C 99.9375 137.929688 99.722656 138.484375 97.972656 142.335938 C 96.554688 145.472656 94.78125 149.375 94.019531 152.003906 C 91.953125 159.179688 92.625 164.6875 94.214844 166.957031 C 96.0625 169.597656 96.621094 169.695312 99.695312 170.257812 C 100.382812 170.382812 101.15625 170.527344 102.105469 170.722656 C 107.59375 171.863281 117.941406 172.878906 122.34375 170.738281 C 126.609375 168.648438 128.28125 164.210938 127.175781 157.890625 C 126.570312 154.488281 125.277344 153.988281 123.3125 153.234375 C 121.792969 152.652344 119.894531 151.933594 117.804688 149.550781 C 114.367188 145.628906 111.21875 140.253906 112.15625 138 C 112.398438 137.40625 112.902344 137.085938 113.65625 137.039062 C 117.261719 136.816406 122.550781 140.816406 122.890625 142.859375 C 123.011719 143.539062 124.398438 144.476562 126.125 145.039062 C 127.554688 145.503906 129.355469 145.726562 130.132812 144.960938 C 130.558594 144.542969 130.628906 143.859375 130.347656 142.929688 C 129.378906 139.757812 124.484375 138.539062 120.910156 137.65625 C 118.867188 137.144531 117.386719 136.777344 117.125 136.167969 C 116 133.535156 115.617188 131.964844 116 131.492188 C 116.0625 131.414062 116.140625 131.375 116.242188 131.382812 C 116.515625 131.402344 116.757812 131.800781 117.234375 132.640625 C 117.765625 133.550781 118.484375 134.800781 119.140625 134.851562 C 119.148438 134.851562 119.152344 134.851562 119.160156 134.851562 C 120.261719 134.851562 123.769531 127.230469 125.433594 122.921875 C 125.988281 121.484375 126.527344 118.132812 127.089844 114.578125 C 127.855469 109.75 128.726562 104.277344 129.917969 101.699219 C 132.246094 96.675781 138.976562 80.734375 138.976562 78.039062 C 138.976562 75.582031 140.25 72.851562 141.582031 69.957031 C 141.8125 69.460938 142.046875 68.964844 142.269531 68.460938 C 143.804688 65.082031 147.953125 59.890625 148.8125 59.523438 C 148.960938 59.457031 149.046875 59.527344 149.074219 59.5625 C 149.25 59.765625 149.039062 60.203125 147.566406 62.710938 C 146.738281 64.113281 145.800781 65.703125 145.746094 66.140625 C 145.734375 66.257812 145.773438 66.292969 145.789062 66.304688 C 145.996094 66.480469 146.816406 66.277344 147.476562 66.121094 C 148.011719 65.992188 148.570312 65.855469 148.96875 65.855469 C 149.152344 65.855469 149.328125 65.945312 149.503906 66.136719 C 150.496094 67.195312 151.3125 71.351562 151.222656 72.695312 C 151.140625 73.722656 150.539062 75.273438 149.597656 75.523438 C 149.210938 75.628906 148.621094 75.542969 147.972656 74.574219 C 146.722656 72.695312 145 71.667969 144.695312 71.832031 C 144.660156 71.851562 144.628906 71.96875 144.753906 72.296875 C 145.015625 72.949219 145.742188 73.546875 146.441406 74.128906 C 147.4375 74.949219 148.457031 75.796875 148.03125 76.789062 C 147.746094 77.453125 147.160156 77.800781 146.539062 78.167969 C 145.675781 78.671875 144.777344 79.195312 144.65625 80.675781 C 144.636719 80.976562 144.589844 81.433594 144.53125 82.011719 C 144.089844 86.46875 142.914062 98.320312 144.648438 102.640625 C 146.597656 107.519531 147.953125 115.441406 147.445312 117.339844 C 147.0625 118.714844 152.660156 127.152344 155.050781 130.753906 C 155.632812 131.632812 156.066406 132.28125 156.242188 132.566406 C 156.597656 132.160156 157.488281 129.660156 158.355469 127.230469 C 160.222656 122.007812 162.78125 114.851562 164.90625 113.234375 C 167.226562 111.460938 166.621094 110.609375 166.03125 109.777344 C 165.773438 109.425781 165.53125 109.089844 165.550781 108.703125 C 165.570312 108.332031 165.855469 107.9375 166.363281 107.566406 C 167.511719 106.734375 169.675781 106.109375 171.4375 106.589844 C 173.46875 107.144531 174.785156 106.785156 176.460938 106.328125 C 176.734375 106.253906 177.015625 106.175781 177.316406 106.097656 C 179.511719 105.535156 181.613281 106.097656 182.304688 107.433594 C 182.757812 108.292969 182.882812 109.542969 182.382812 109.941406 C 182.167969 110.109375 181.769531 110.191406 181.082031 109.601562 C 179.976562 108.652344 173.691406 108.257812 170.5625 108.933594 C 169.480469 109.167969 169.207031 109.449219 169.132812 109.601562 C 169.066406 109.738281 169.085938 109.894531 169.191406 110.085938 C 170.023438 111.585938 175.464844 113.691406 178.03125 114.019531 C 179.476562 114.203125 180.113281 113.042969 180.667969 112.023438 C 181.03125 111.355469 181.34375 110.777344 181.847656 110.679688 C 182.128906 110.621094 182.425781 110.726562 182.757812 110.996094 C 184.160156 112.109375 194.523438 122.125 194.523438 128.5625 C 194.523438 130.6875 194.988281 130.890625 195.136719 130.90625 C 196.066406 130.976562 198.289062 126.929688 199.125 121.972656 C 200.21875 115.519531 204.152344 96.0625 205.246094 91.125 C 205.863281 88.355469 205.613281 87.132812 205.363281 85.945312 C 205.179688 85.054688 205.003906 84.21875 205.246094 82.824219 C 205.542969 81.101562 206.589844 78.941406 207.503906 77.03125 C 208.257812 75.476562 208.964844 74.011719 208.964844 73.335938 C 208.964844 73.160156 208.980469 73.027344 209.011719 72.9375 C 209.082031 72.742188 209.222656 72.722656 209.273438 72.722656 C 209.746094 72.722656 210.457031 74.441406 210.574219 75.222656 C 210.976562 74.804688 211.984375 73.355469 212.808594 72.164062 C 214.367188 69.917969 215.34375 68.542969 215.730469 68.378906 C 216.4375 68.078125 218.355469 68.039062 220.597656 70.050781 C 222.65625 71.882812 224.234375 79.472656 223.695312 80.414062 C 223.492188 80.773438 222.851562 81.023438 221.96875 81.371094 C 220.789062 81.828125 219.164062 82.464844 218.210938 83.609375 C 217.785156 84.121094 217.246094 84.617188 216.679688 85.132812 C 215.054688 86.621094 213.222656 88.304688 213.222656 91.164062 C 213.222656 92.792969 212.835938 96.835938 212.390625 101.503906 C 211.769531 108.03125 211.0625 115.433594 211.25 118.054688 C 211.589844 122.707031 209.894531 139.296875 208.507812 142.832031 C 208.273438 143.429688 208.023438 143.710938 207.726562 143.710938 C 207.726562 143.710938 207.726562 143.710938 207.722656 143.710938 C 207.152344 143.710938 206.714844 142.648438 206.050781 141.046875 C 205.195312 138.976562 204.023438 136.140625 202.3125 135.820312 C 201.507812 135.671875 200.957031 135.90625 200.691406 136.515625 C 199.984375 138.132812 201.363281 141.8125 203.203125 143.191406 C 204.644531 144.273438 206.085938 144.320312 206.949219 144.351562 C 207.445312 144.363281 207.746094 144.378906 207.851562 144.585938 C 207.9375 144.757812 207.828125 144.953125 207.722656 145.105469 C 207.628906 145.234375 207.492188 145.425781 207.308594 145.675781 C 205.925781 147.566406 202.253906 152.589844 202.066406 155.253906 C 202.03125 155.699219 202.007812 156.226562 201.988281 156.792969 C 201.84375 160.078125 201.625 165.054688 199.019531 166.210938 C 198.484375 166.449219 197.941406 166.375 197.457031 165.996094 C 195.375 164.371094 194.226562 157.164062 195.191406 151.710938 C 196.21875 145.84375 195.394531 139.089844 194 135.953125 C 193.972656 135.894531 193.941406 135.855469 193.921875 135.855469 C 193.238281 135.859375 191.035156 141.144531 189.082031 145.804688 C 185.527344 154.316406 182.882812 160.351562 181.277344 160.351562 C 181.273438 160.351562 181.265625 160.351562 181.257812 160.351562 C 180.898438 160.339844 180.625 160.058594 180.433594 159.5 C 178.542969 154.035156 172.054688 138.675781 167.167969 139.757812 C 164.355469 140.382812 161.675781 137.746094 159.902344 136 C 159.183594 135.285156 158.363281 134.480469 158.128906 134.589844 C 158.082031 134.605469 157.957031 134.722656 157.996094 135.441406 C 158.101562 137.40625 158.847656 138.785156 159.792969 140.535156 C 160.761719 142.335938 161.859375 144.378906 162.585938 147.660156 C 163.175781 150.328125 163.429688 152.285156 163.671875 154.179688 C 164.027344 156.921875 164.367188 159.507812 165.644531 164.050781 C 166.320312 166.441406 166.835938 168.910156 167.332031 171.292969 C 168.441406 176.554688 169.480469 181.527344 171.949219 183.992188 C 175.191406 187.242188 178.890625 186.875 184.316406 182.777344 C 187.019531 180.734375 189.476562 175.75 191.4375 171.75 C 193.277344 168.019531 194.351562 165.910156 195.257812 166.015625 C 195.523438 166.046875 195.722656 166.160156 195.84375 166.34375 C 196.167969 166.835938 195.882812 167.757812 195.464844 169.152344 C 194.953125 170.859375 194.246094 173.199219 194.410156 175.785156 C 194.832031 182.480469 196.839844 187.855469 200.382812 191.765625 C 201.945312 193.488281 203.191406 194.496094 204.289062 195.390625 C 206.128906 196.890625 207.464844 197.972656 208.722656 201.332031 C 210.191406 205.238281 209.769531 211.328125 207.792969 214.890625 C 206.777344 216.710938 205.398438 217.84375 203.792969 218.164062 C 198.386719 219.242188 187.714844 219.335938 185.074219 218.320312 C 184.929688 218.261719 184.636719 218.148438 184.667969 217.925781 C 184.707031 217.601562 185.273438 217.507812 187.882812 217.195312 C 191.96875 216.710938 198.816406 215.898438 200.792969 213.101562 C 203.636719 209.082031 203.542969 203.175781 203.503906 200.34375 C 203.5 200.054688 203.5 199.796875 203.5 199.582031 C 203.5 198.691406 200.984375 196.957031 197.625 195.960938 C 195.6875 195.386719 189.140625 193.867188 186.183594 198.410156 C 183.6875 202.246094 184.042969 208.015625 184.304688 212.230469 C 184.472656 215.074219 184.605469 217.128906 183.902344 217.875 C 183.71875 218.066406 183.484375 218.164062 183.210938 218.164062 C 182.59375 218.164062 181.265625 218.273438 179.574219 218.410156 C 172.867188 218.960938 160.375 219.976562 154.71875 217.71875 C 152.027344 216.644531 149.539062 216.164062 147.542969 215.792969 C 144.210938 215.15625 141.804688 214.707031 141.171875 212.027344 C 140.960938 211.15625 140.71875 210.679688 140.453125 210.609375 C 140.050781 210.503906 139.441406 211.175781 138.65625 212.027344 C 137.695312 213.074219 136.378906 214.507812 134.617188 215.414062 C 130.53125 217.507812 114.054688 220.839844 111.730469 219.679688 C 110.8125 219.222656 110.363281 218.757812 110.277344 218.183594 C 110.132812 217.1875 111.109375 215.8125 113.773438 213.296875 C 118.285156 209.03125 131.78125 196.746094 134.519531 196.308594 C 135.816406 196.097656 137.597656 195.667969 138.179688 194.28125 C 138.769531 192.863281 138.015625 190.683594 135.945312 187.8125 C 134.8125 186.234375 133.765625 184.898438 132.835938 183.710938 C 129.621094 179.621094 127.855469 177.367188 129.597656 173.976562 C 131.769531 169.734375 134.285156 155.292969 134.5 150.53125 C 134.597656 148.253906 135.199219 145.425781 135.902344 142.144531 C 136.667969 138.542969 137.539062 134.453125 137.886719 130.296875 C 138.574219 122.046875 138.296875 113.140625 138.210938 111.726562 C 138.132812 110.378906 139.28125 105.1875 140.03125 101.757812 C 140.3125 100.480469 140.535156 99.480469 140.570312 99.238281 C 140.582031 99.105469 140.648438 99.058594 140.699219 99.039062 C 140.746094 99.019531 140.832031 99 140.929688 99.085938 C 141.550781 99.589844 144.378906 106.175781 143.261719 112.488281 C 142.691406 115.714844 141.851562 117.011719 141.183594 118.058594 C 140.453125 119.199219 139.921875 120.023438 140.15625 122.859375 L 140.164062 122.96875 C 140.601562 128.265625 141.945312 144.371094 145.917969 148.234375 C 147.960938 150.226562 149.753906 152.019531 151.0625 153.878906 C 152.511719 155.933594 153.183594 157.824219 153.183594 159.835938 C 153.183594 161.007812 153.09375 162.335938 153.007812 163.625 C 152.773438 167.039062 152.523438 170.566406 153.890625 171.625 C 156.007812 173.269531 155.972656 179.011719 153.832031 184.171875 C 153.046875 186.042969 152.917969 187.222656 152.824219 188 C 152.65625 189.539062 152.503906 189.769531 149.238281 190.605469 C 144.085938 191.921875 140.855469 193.671875 140.144531 195.535156 C 139.757812 196.558594 140.53125 199.589844 141.210938 202.261719 C 141.828125 204.664062 142.402344 206.941406 142.25 207.96875 C 142.132812 208.75 143.160156 210.523438 151.332031 213.703125 C 151.378906 213.71875 151.398438 213.71875 151.398438 213.71875 C 151.660156 213.496094 150.972656 211.113281 150.363281 209.011719 C 148.832031 203.6875 146.730469 196.394531 149.433594 194.476562 C 149.503906 194.421875 149.605469 194.441406 149.65625 194.515625 C 149.707031 194.585938 149.6875 194.683594 149.617188 194.738281 C 147.097656 196.523438 149.25 203.980469 150.671875 208.917969 C 151.582031 212.066406 152 213.597656 151.605469 213.953125 C 151.542969 214.019531 151.417969 214.078125 151.222656 214 C 144.824219 211.511719 141.703125 209.46875 141.9375 207.921875 C 142.082031 206.953125 141.480469 204.609375 140.902344 202.339844 C 140.175781 199.492188 139.421875 196.539062 139.847656 195.425781 C 140.601562 193.433594 143.824219 191.660156 149.160156 190.296875 C 152.339844 189.488281 152.359375 189.308594 152.511719 187.96875 C 152.601562 187.167969 152.738281 185.964844 153.539062 184.046875 C 155.59375 179.101562 155.671875 173.414062 153.695312 171.875 C 152.195312 170.714844 152.445312 167.101562 152.6875 163.605469 C 152.773438 162.324219 152.863281 160.996094 152.863281 159.835938 C 152.863281 155.742188 150.03125 152.679688 145.703125 148.464844 C 141.636719 144.515625 140.339844 128.882812 139.847656 122.996094 L 139.835938 122.882812 C 139.59375 119.9375 140.148438 119.082031 140.917969 117.882812 C 141.570312 116.859375 142.382812 115.589844 142.945312 112.429688 C 143.980469 106.601562 141.578125 100.492188 140.851562 99.464844 C 140.773438 99.878906 140.589844 100.722656 140.347656 101.824219 C 139.640625 105.03125 138.453125 110.40625 138.53125 111.707031 C 138.617188 113.121094 138.894531 122.054688 138.207031 130.320312 C 137.859375 134.5 136.980469 138.597656 136.214844 142.21875 C 135.519531 145.476562 134.917969 148.292969 134.8125 150.546875 C 134.597656 155.324219 132.070312 169.847656 129.878906 174.121094 C 128.226562 177.335938 129.851562 179.398438 133.085938 183.515625 C 134.015625 184.699219 135.070312 186.042969 136.207031 187.621094 C 138.34375 190.601562 139.101562 192.878906 138.472656 194.398438 C 137.832031 195.9375 135.941406 196.402344 134.570312 196.625 C 132.109375 197.015625 119.636719 208.183594 113.988281 213.527344 C 111.449219 215.929688 110.464844 217.265625 110.597656 218.136719 C 110.664062 218.59375 111.054688 218.988281 111.875 219.394531 C 113.902344 220.410156 130.164062 217.335938 134.472656 215.132812 C 136.183594 214.253906 137.425781 212.90625 138.421875 211.820312 C 139.34375 210.808594 139.953125 210.148438 140.535156 210.300781 C 140.941406 210.40625 141.238281 210.914062 141.480469 211.957031 C 142.070312 214.429688 144.269531 214.84375 147.601562 215.476562 C 149.609375 215.859375 152.117188 216.335938 154.835938 217.421875 C 160.417969 219.65625 172.867188 218.640625 179.550781 218.089844 C 181.3125 217.953125 182.582031 217.847656 183.210938 217.847656 C 183.398438 217.847656 183.550781 217.78125 183.667969 217.652344 C 184.277344 217.011719 184.140625 214.804688 183.980469 212.25 C 183.71875 207.996094 183.359375 202.160156 185.921875 198.242188 C 188.996094 193.507812 195.726562 195.066406 197.710938 195.652344 C 201.078125 196.65625 203.8125 198.417969 203.8125 199.582031 C 203.8125 199.796875 203.820312 200.046875 203.820312 200.335938 C 203.867188 203.210938 203.957031 209.179688 201.050781 213.285156 C 198.996094 216.199219 192.0625 217.023438 187.921875 217.515625 C 186.679688 217.660156 185.394531 217.808594 185.050781 217.960938 C 185.082031 217.972656 185.128906 218 185.195312 218.019531 C 187.792969 219.019531 198.367188 218.921875 203.734375 217.847656 C 205.261719 217.546875 206.53125 216.5 207.511719 214.738281 C 209.457031 211.242188 209.863281 205.277344 208.429688 201.441406 C 207.199219 198.160156 205.960938 197.160156 204.089844 195.640625 C 202.980469 194.738281 201.722656 193.714844 200.148438 191.980469 C 196.550781 188.015625 194.515625 182.574219 194.089844 175.808594 C 193.925781 173.160156 194.640625 170.796875 195.164062 169.058594 C 195.53125 167.847656 195.820312 166.886719 195.578125 166.519531 C 195.53125 166.449219 195.445312 166.363281 195.21875 166.332031 C 194.503906 166.257812 193.15625 168.988281 191.726562 171.894531 C 189.742188 175.921875 187.273438 180.941406 184.507812 183.03125 C 179 187.1875 175.058594 187.554688 171.71875 184.222656 C 169.1875 181.691406 168.136719 176.667969 167.027344 171.359375 C 166.527344 168.976562 166.011719 166.519531 165.335938 164.144531 C 164.054688 159.574219 163.710938 156.972656 163.359375 154.21875 C 163.109375 152.339844 162.863281 150.386719 162.273438 147.730469 C 161.558594 144.488281 160.472656 142.464844 159.507812 140.6875 C 158.585938 138.96875 157.789062 137.492188 157.675781 135.453125 C 157.644531 134.773438 157.742188 134.414062 157.992188 134.296875 C 158.429688 134.097656 159.070312 134.726562 160.125 135.769531 C 161.847656 137.472656 164.453125 140.039062 167.097656 139.449219 C 172.242188 138.308594 178.6875 153.457031 180.734375 159.398438 C 180.878906 159.816406 181.054688 160.027344 181.265625 160.03125 C 181.273438 160.03125 181.273438 160.03125 181.277344 160.03125 C 182.796875 160.03125 186.261719 151.742188 188.789062 145.679688 C 191.492188 139.207031 193.0625 135.546875 193.914062 135.535156 C 194.03125 135.539062 194.183594 135.585938 194.289062 135.820312 C 195.703125 139.003906 196.539062 145.839844 195.5 151.769531 C 194.582031 157.019531 195.683594 164.210938 197.652344 165.742188 C 198.050781 166.054688 198.457031 166.113281 198.890625 165.917969 C 201.320312 164.84375 201.527344 159.984375 201.664062 156.777344 C 201.691406 156.214844 201.71875 155.679688 201.746094 155.226562 C 201.945312 152.476562 205.660156 147.394531 207.054688 145.484375 C 207.230469 145.242188 207.375 145.050781 207.460938 144.929688 C 207.570312 144.769531 207.570312 144.71875 207.570312 144.71875 C 207.519531 144.6875 207.199219 144.671875 206.941406 144.667969 C 206.039062 144.640625 204.535156 144.59375 203.015625 143.449219 C 201.042969 141.976562 199.628906 138.144531 200.402344 136.390625 C 200.632812 135.859375 201.160156 135.285156 202.371094 135.511719 C 204.25 135.859375 205.410156 138.667969 206.347656 140.921875 C 206.84375 142.140625 207.367188 143.394531 207.722656 143.394531 L 207.726562 143.394531 C 207.792969 143.394531 207.96875 143.324219 208.210938 142.714844 C 209.59375 139.207031 211.269531 122.707031 210.929688 118.074219 C 210.738281 115.425781 211.445312 108.015625 212.070312 101.46875 C 212.515625 96.808594 212.898438 92.78125 212.898438 91.164062 C 212.898438 88.164062 214.792969 86.429688 216.460938 84.898438 C 217.023438 84.386719 217.554688 83.902344 217.96875 83.40625 C 218.976562 82.195312 220.640625 81.546875 221.851562 81.070312 C 222.609375 80.773438 223.269531 80.519531 223.421875 80.257812 C 223.839844 79.523438 222.417969 72.105469 220.390625 70.285156 C 218.417969 68.523438 216.597656 68.355469 215.851562 68.675781 C 215.527344 68.8125 214.164062 70.777344 213.070312 72.347656 C 211.046875 75.261719 210.675781 75.71875 210.417969 75.636719 C 210.386719 75.628906 210.273438 75.582031 210.273438 75.417969 C 210.273438 74.765625 209.585938 73.296875 209.304688 73.070312 C 209.292969 73.109375 209.28125 73.191406 209.28125 73.335938 C 209.28125 74.082031 208.59375 75.515625 207.792969 77.167969 C 206.882812 79.058594 205.847656 81.199219 205.5625 82.875 C 205.332031 84.210938 205.503906 85.023438 205.679688 85.882812 C 205.921875 87.039062 206.191406 88.363281 205.5625 91.195312 C 204.46875 96.125 200.53125 115.578125 199.441406 122.027344 C 198.738281 126.132812 196.605469 131.226562 195.15625 131.226562 C 195.144531 131.226562 195.125 131.226562 195.105469 131.226562 C 194.496094 131.171875 194.203125 130.300781 194.203125 128.5625 C 194.203125 122.640625 184.617188 112.886719 182.5625 111.242188 C 182.304688 111.035156 182.089844 110.957031 181.90625 110.996094 C 181.554688 111.066406 181.273438 111.578125 180.949219 112.171875 C 180.382812 113.234375 179.667969 114.550781 177.992188 114.339844 C 175.300781 113.992188 169.800781 111.839844 168.917969 110.234375 C 168.761719 109.960938 168.742188 109.699219 168.84375 109.464844 C 169.015625 109.101562 169.550781 108.828125 170.496094 108.625 C 173.507812 107.96875 180.027344 108.273438 181.285156 109.359375 C 181.699219 109.707031 182.019531 109.828125 182.1875 109.6875 C 182.515625 109.429688 182.4375 108.363281 182.023438 107.585938 C 181.394531 106.371094 179.453125 105.882812 177.394531 106.40625 C 177.101562 106.484375 176.8125 106.5625 176.539062 106.636719 C 174.824219 107.105469 173.46875 107.472656 171.351562 106.898438 C 169.691406 106.445312 167.632812 107.035156 166.554688 107.820312 C 166.128906 108.132812 165.886719 108.449219 165.867188 108.714844 C 165.855469 109 166.054688 109.273438 166.285156 109.59375 C 166.867188 110.414062 167.671875 111.527344 165.09375 113.488281 C 163.050781 115.046875 160.511719 122.152344 158.652344 127.34375 C 157.152344 131.53125 156.636719 132.886719 156.234375 132.925781 C 156.191406 132.925781 156.078125 132.921875 156.007812 132.796875 C 155.875 132.566406 155.417969 131.878906 154.789062 130.929688 C 150.597656 124.613281 146.769531 118.582031 147.136719 117.253906 C 147.625 115.441406 146.246094 107.492188 144.347656 102.757812 C 142.59375 98.367188 143.769531 86.464844 144.210938 81.980469 C 144.269531 81.402344 144.3125 80.949219 144.339844 80.648438 C 144.476562 79.007812 145.484375 78.417969 146.375 77.894531 C 146.953125 77.554688 147.496094 77.238281 147.738281 76.664062 C 148.070312 75.890625 147.179688 75.148438 146.238281 74.371094 C 145.503906 73.769531 144.753906 73.140625 144.457031 72.414062 C 144.234375 71.851562 144.386719 71.632812 144.550781 71.550781 C 145.179688 71.214844 147.109375 72.707031 148.234375 74.398438 C 148.675781 75.050781 149.105469 75.328125 149.511719 75.214844 C 150.277344 75.019531 150.835938 73.597656 150.898438 72.667969 C 150.992188 71.40625 150.191406 67.339844 149.269531 66.351562 C 149.191406 66.265625 149.082031 66.175781 148.96875 66.175781 C 148.609375 66.175781 148.070312 66.300781 147.554688 66.429688 C 146.671875 66.644531 145.910156 66.828125 145.578125 66.542969 C 145.5 66.476562 145.40625 66.339844 145.433594 66.101562 C 145.484375 65.636719 146.199219 64.394531 147.292969 62.546875 C 147.847656 61.597656 148.523438 60.453125 148.738281 59.949219 C 147.660156 60.824219 144.007812 65.410156 142.566406 68.589844 C 142.335938 69.09375 142.109375 69.597656 141.871094 70.097656 C 140.550781 72.957031 139.300781 75.65625 139.300781 78.039062 C 139.300781 80.917969 132.328125 97.265625 130.207031 101.835938 C 129.035156 104.375 128.167969 109.824219 127.402344 114.621094 C 126.808594 118.347656 126.296875 121.570312 125.726562 123.042969 C 125.679688 123.160156 120.921875 135.171875 119.148438 135.171875 C 119.132812 135.171875 119.128906 135.171875 119.113281 135.167969 C 118.296875 135.101562 117.554688 133.824219 116.96875 132.796875 C 116.71875 132.378906 116.382812 131.800781 116.234375 131.710938 C 116.039062 132.023438 116.246094 133.3125 117.417969 136.042969 C 117.617188 136.507812 119.253906 136.914062 120.988281 137.347656 C 124.640625 138.25 129.636719 139.488281 130.652344 142.839844 C 130.972656 143.894531 130.875 144.679688 130.355469 145.191406 C 129.601562 145.921875 127.992188 145.980469 126.027344 145.339844 C 124.476562 144.835938 122.742188 143.859375 122.578125 142.910156 C 122.265625 141.011719 117.070312 137.148438 113.675781 137.351562 C 113.046875 137.398438 112.644531 137.648438 112.449219 138.121094 C 111.683594 139.960938 114.140625 144.890625 118.046875 149.339844 C 120.082031 151.664062 121.9375 152.371094 123.421875 152.933594 C 125.417969 153.699219 126.859375 154.25 127.488281 157.839844 C 128.621094 164.308594 126.890625 168.871094 122.480469 171.019531 C 118.007812 173.199219 107.574219 172.183594 102.039062 171.03125 C 101.097656 170.835938 100.324219 170.695312 99.644531 170.574219 C 96.527344 170.003906 95.878906 169.886719 93.960938 167.140625 C 91.6875 163.902344 92.199219 157.15625 93.71875 151.914062 C 94.484375 149.261719 96.257812 145.355469 97.6875 142.203125 C 98.453125 140.523438 99.238281 138.78125 99.433594 138.140625 C 98.085938 139.3125 92.554688 146.492188 91.839844 149.269531 C 91.066406 152.226562 90.09375 161.929688 90.511719 165.609375 C 90.648438 166.835938 90.5625 167.449219 90.230469 167.664062 C 89.875 167.882812 89.40625 167.585938 88.898438 167.28125 C 88.515625 167.042969 88.082031 166.769531 87.75 166.769531 C 87.625 166.769531 87.597656 166.820312 87.589844 166.839844 C 87.34375 167.359375 88.878906 169.800781 90.476562 171.765625 C 91.730469 173.304688 96.4375 173.695312 102.949219 174.246094 C 104.0625 174.335938 105.234375 174.433594 106.460938 174.546875 C 109.816406 174.847656 113.417969 174.894531 116.59375 174.933594 C 121.53125 175 124.125 175.058594 124.464844 175.738281 C 124.515625 175.84375 124.546875 176.007812 124.398438 176.214844 C 123.421875 177.578125 120.03125 177.929688 115.332031 178.421875 C 114.523438 178.507812 113.679688 178.59375 112.804688 178.691406 C 110.503906 178.945312 107.160156 179.207031 103.617188 179.488281 C 98.203125 179.921875 92.605469 180.367188 91.152344 180.765625 C 88.933594 181.367188 82.425781 193.003906 82.757812 194.796875 C 82.882812 195.4375 84.695312 196.464844 86.792969 197.65625 C 89.980469 199.464844 94.339844 201.945312 96.296875 205.015625 C 97.710938 207.234375 100.449219 209.738281 102.859375 211.949219 C 106.171875 214.980469 109.027344 217.601562 108.226562 219.066406 C 107.59375 220.226562 105.253906 220.671875 102.261719 220.671875 " fill-opacity="1" fill-rule="nonzero"/></g></svg>