<svg xmlns="http://www.w3.org/2000/svg" xmlns:xlink="http://www.w3.org/1999/xlink" width="500" zoomAndPan="magnify" viewBox="0 0 375 374.999991" height="500" preserveAspectRatio="xMidYMid meet" version="1.0"><defs><g/><clipPath id="886561b185"><path d="M 54 126 L 113.984375 126 L 113.984375 187.542969 L 54 187.542969 Z M 54 126 " clip-rule="nonzero"/></clipPath><clipPath id="b04c0bc973"><path d="M 78 106.542969 L 100 106.542969 L 100 126 L 78 126 Z M 78 106.542969 " clip-rule="nonzero"/></clipPath><clipPath id="7d6fa8d796"><path d="M 53.234375 115 L 79 115 L 79 130 L 53.234375 130 Z M 53.234375 115 " clip-rule="nonzero"/></clipPath></defs><g clip-path="url(#886561b185)"><path fill="#f28c45" d="M 67.84375 130.875 C 64.71875 132.941406 62.207031 135.804688 59.933594 138.789062 C 57.882812 141.480469 55.964844 144.355469 55.035156 147.613281 C 53.875 151.695312 54.351562 156.039062 54.835938 160.253906 C 55.167969 163.121094 55.507812 166.027344 56.585938 168.699219 C 57.832031 171.800781 60.007812 174.421875 62.214844 176.925781 C 65.335938 180.457031 68.757812 183.96875 73.160156 185.625 C 75.683594 186.574219 78.398438 186.859375 81.085938 187.070312 C 85.179688 187.386719 89.359375 187.546875 93.332031 186.511719 C 97.214844 185.5 100.761719 183.367188 103.699219 180.628906 C 108.703125 175.96875 111.976562 169.515625 112.957031 162.738281 C 113.9375 155.957031 112.648438 148.890625 109.480469 142.820312 C 106.601562 137.296875 102.136719 132.554688 96.613281 129.699219 C 92.050781 127.335938 86.691406 126.265625 81.582031 126.980469 C 77.007812 127.621094 71.789062 128.269531 67.84375 130.875 Z M 67.84375 130.875 " fill-opacity="1" fill-rule="nonzero"/></g><path fill="#fde2d2" d="M 70.304688 138.308594 C 70.253906 138.308594 70.207031 138.308594 70.15625 138.308594 C 70.09375 138.304688 70.035156 138.316406 69.980469 138.347656 C 69.925781 138.363281 69.878906 138.394531 69.835938 138.441406 C 69.792969 138.480469 69.761719 138.53125 69.742188 138.585938 C 69.714844 138.640625 69.699219 138.699219 69.703125 138.761719 C 69.707031 138.804688 69.714844 138.84375 69.71875 138.882812 C 69.742188 138.960938 69.78125 139.027344 69.835938 139.085938 C 69.867188 139.109375 69.898438 139.132812 69.929688 139.15625 C 70 139.195312 70.074219 139.21875 70.15625 139.21875 C 70.207031 139.21875 70.253906 139.21875 70.304688 139.21875 C 70.367188 139.21875 70.425781 139.207031 70.476562 139.179688 C 70.535156 139.160156 70.582031 139.128906 70.625 139.085938 C 70.667969 139.042969 70.699219 138.996094 70.71875 138.9375 C 70.746094 138.882812 70.757812 138.824219 70.757812 138.761719 C 70.753906 138.722656 70.746094 138.679688 70.742188 138.640625 C 70.71875 138.5625 70.679688 138.496094 70.625 138.441406 C 70.59375 138.417969 70.5625 138.390625 70.53125 138.367188 C 70.460938 138.328125 70.386719 138.308594 70.304688 138.308594 Z M 70.304688 138.308594 " fill-opacity="1" fill-rule="nonzero"/><path fill="#fde2d2" d="M 66.230469 149.078125 C 66.28125 149.027344 66.328125 148.980469 66.378906 148.929688 C 66.421875 148.890625 66.453125 148.839844 66.472656 148.785156 C 66.5 148.730469 66.515625 148.671875 66.511719 148.609375 C 66.515625 148.546875 66.5 148.488281 66.472656 148.433594 C 66.453125 148.375 66.421875 148.328125 66.378906 148.285156 C 66.347656 148.261719 66.316406 148.238281 66.285156 148.214844 C 66.214844 148.175781 66.140625 148.152344 66.058594 148.152344 C 66.015625 148.160156 65.976562 148.164062 65.9375 148.167969 C 65.859375 148.191406 65.792969 148.230469 65.738281 148.285156 C 65.6875 148.335938 65.640625 148.382812 65.589844 148.433594 C 65.546875 148.472656 65.515625 148.523438 65.496094 148.578125 C 65.46875 148.632812 65.453125 148.691406 65.457031 148.753906 C 65.453125 148.816406 65.46875 148.875 65.496094 148.929688 C 65.515625 148.988281 65.546875 149.035156 65.589844 149.078125 C 65.621094 149.101562 65.652344 149.125 65.683594 149.148438 C 65.753906 149.191406 65.828125 149.210938 65.910156 149.210938 C 65.953125 149.207031 65.992188 149.199219 66.03125 149.195312 C 66.109375 149.171875 66.175781 149.132812 66.230469 149.078125 Z M 66.230469 149.078125 " fill-opacity="1" fill-rule="nonzero"/><path fill="#fde2d2" d="M 72.207031 151.269531 C 72.792969 151.269531 72.792969 150.355469 72.207031 150.355469 C 71.621094 150.355469 71.621094 151.269531 72.207031 151.269531 Z M 72.207031 151.269531 " fill-opacity="1" fill-rule="nonzero"/><path fill="#fde2d2" d="M 68.679688 158.160156 C 68.679688 158.210938 68.679688 158.257812 68.679688 158.308594 C 68.675781 158.371094 68.6875 158.429688 68.71875 158.484375 C 68.734375 158.539062 68.765625 158.589844 68.8125 158.628906 C 68.851562 158.675781 68.902344 158.707031 68.957031 158.722656 C 69.011719 158.753906 69.070312 158.765625 69.132812 158.761719 C 69.171875 158.757812 69.210938 158.753906 69.253906 158.746094 C 69.328125 158.726562 69.398438 158.6875 69.453125 158.628906 C 69.476562 158.597656 69.5 158.570312 69.523438 158.539062 C 69.566406 158.464844 69.585938 158.390625 69.585938 158.308594 C 69.585938 158.257812 69.585938 158.210938 69.585938 158.160156 C 69.589844 158.097656 69.574219 158.039062 69.546875 157.984375 C 69.527344 157.929688 69.496094 157.878906 69.453125 157.839844 C 69.410156 157.792969 69.363281 157.761719 69.308594 157.746094 C 69.253906 157.714844 69.195312 157.703125 69.132812 157.707031 C 69.09375 157.710938 69.050781 157.714844 69.011719 157.722656 C 68.933594 157.742188 68.867188 157.78125 68.8125 157.839844 C 68.789062 157.871094 68.765625 157.898438 68.742188 157.929688 C 68.699219 158 68.679688 158.078125 68.679688 158.160156 Z M 68.679688 158.160156 " fill-opacity="1" fill-rule="nonzero"/><path fill="#fde2d2" d="M 62.835938 160.820312 C 63.421875 160.820312 63.421875 159.910156 62.835938 159.910156 C 62.253906 159.910156 62.25 160.820312 62.835938 160.820312 Z M 62.835938 160.820312 " fill-opacity="1" fill-rule="nonzero"/><path fill="#fde2d2" d="M 60.640625 147.59375 C 60.6875 147.59375 60.738281 147.59375 60.785156 147.59375 C 60.847656 147.597656 60.90625 147.582031 60.960938 147.554688 C 61.015625 147.535156 61.066406 147.503906 61.105469 147.460938 C 61.152344 147.417969 61.183594 147.371094 61.199219 147.3125 C 61.230469 147.261719 61.242188 147.203125 61.242188 147.136719 C 61.234375 147.097656 61.230469 147.058594 61.222656 147.015625 C 61.203125 146.941406 61.164062 146.875 61.109375 146.816406 C 61.078125 146.792969 61.046875 146.769531 61.015625 146.746094 C 60.945312 146.703125 60.867188 146.683594 60.785156 146.683594 C 60.738281 146.683594 60.6875 146.683594 60.640625 146.683594 C 60.578125 146.679688 60.519531 146.695312 60.464844 146.722656 C 60.410156 146.742188 60.359375 146.773438 60.320312 146.816406 C 60.273438 146.859375 60.242188 146.90625 60.226562 146.964844 C 60.195312 147.015625 60.183594 147.074219 60.1875 147.140625 C 60.191406 147.179688 60.195312 147.21875 60.203125 147.261719 C 60.222656 147.335938 60.261719 147.402344 60.320312 147.460938 C 60.347656 147.484375 60.378906 147.507812 60.410156 147.53125 C 60.480469 147.574219 60.558594 147.59375 60.640625 147.59375 Z M 60.640625 147.59375 " fill-opacity="1" fill-rule="nonzero"/><path fill="#fde2d2" d="M 64.445312 154.648438 C 65.03125 154.648438 65.03125 153.738281 64.445312 153.738281 C 63.863281 153.738281 63.863281 154.648438 64.445312 154.648438 Z M 64.445312 154.648438 " fill-opacity="1" fill-rule="nonzero"/><path fill="#fde2d2" d="M 59.9375 153.632812 C 59.984375 153.585938 60.035156 153.535156 60.082031 153.484375 C 60.125 153.445312 60.15625 153.394531 60.175781 153.339844 C 60.203125 153.285156 60.21875 153.226562 60.214844 153.164062 C 60.21875 153.101562 60.203125 153.042969 60.175781 152.988281 C 60.15625 152.933594 60.125 152.882812 60.082031 152.839844 C 60.050781 152.816406 60.019531 152.792969 59.988281 152.769531 C 59.917969 152.730469 59.84375 152.707031 59.761719 152.707031 C 59.722656 152.714844 59.679688 152.71875 59.640625 152.726562 C 59.5625 152.746094 59.496094 152.785156 59.441406 152.839844 C 59.390625 152.890625 59.34375 152.941406 59.292969 152.988281 C 59.25 153.03125 59.21875 153.078125 59.199219 153.136719 C 59.171875 153.191406 59.160156 153.25 59.160156 153.3125 C 59.15625 153.375 59.171875 153.433594 59.199219 153.488281 C 59.21875 153.542969 59.25 153.59375 59.292969 153.632812 C 59.324219 153.65625 59.355469 153.679688 59.386719 153.703125 C 59.457031 153.746094 59.53125 153.765625 59.613281 153.765625 C 59.65625 153.761719 59.695312 153.753906 59.734375 153.75 C 59.8125 153.730469 59.878906 153.691406 59.9375 153.632812 Z M 59.9375 153.632812 " fill-opacity="1" fill-rule="nonzero"/><path fill="#fde2d2" d="M 71.621094 145.683594 C 72.207031 145.683594 72.207031 144.773438 71.621094 144.773438 C 71.039062 144.773438 71.035156 145.683594 71.621094 145.683594 Z M 71.621094 145.683594 " fill-opacity="1" fill-rule="nonzero"/><path fill="#fde2d2" d="M 64.738281 142.597656 C 64.789062 142.597656 64.835938 142.597656 64.886719 142.597656 C 64.949219 142.601562 65.007812 142.585938 65.0625 142.558594 C 65.117188 142.539062 65.167969 142.507812 65.207031 142.464844 C 65.25 142.421875 65.28125 142.375 65.300781 142.316406 C 65.328125 142.261719 65.34375 142.203125 65.339844 142.140625 C 65.335938 142.101562 65.328125 142.0625 65.324219 142.019531 C 65.300781 141.945312 65.261719 141.875 65.207031 141.820312 C 65.175781 141.796875 65.144531 141.773438 65.117188 141.75 C 65.042969 141.707031 64.96875 141.6875 64.886719 141.6875 C 64.835938 141.6875 64.789062 141.6875 64.738281 141.6875 C 64.675781 141.683594 64.617188 141.695312 64.566406 141.726562 C 64.507812 141.742188 64.460938 141.777344 64.417969 141.820312 C 64.375 141.863281 64.34375 141.910156 64.324219 141.964844 C 64.296875 142.019531 64.285156 142.078125 64.285156 142.140625 C 64.292969 142.183594 64.296875 142.222656 64.300781 142.261719 C 64.324219 142.339844 64.363281 142.40625 64.417969 142.464844 C 64.449219 142.488281 64.480469 142.511719 64.511719 142.535156 C 64.582031 142.578125 64.65625 142.597656 64.738281 142.597656 Z M 64.738281 142.597656 " fill-opacity="1" fill-rule="nonzero"/><path fill="#fde2d2" d="M 77.039062 141.570312 C 77.625 141.570312 77.625 140.65625 77.039062 140.65625 C 76.453125 140.65625 76.453125 141.570312 77.039062 141.570312 Z M 77.039062 141.570312 " fill-opacity="1" fill-rule="nonzero"/><path fill="#fde2d2" d="M 99.585938 157.734375 C 100.171875 157.734375 100.171875 156.824219 99.585938 156.824219 C 99.003906 156.824219 99.003906 157.734375 99.585938 157.734375 Z M 99.585938 157.734375 " fill-opacity="1" fill-rule="nonzero"/><path fill="#fde2d2" d="M 92.851562 165.671875 C 92.902344 165.671875 92.949219 165.671875 93 165.671875 C 93.0625 165.671875 93.121094 165.660156 93.175781 165.632812 C 93.230469 165.613281 93.277344 165.582031 93.320312 165.535156 C 93.363281 165.496094 93.394531 165.445312 93.414062 165.390625 C 93.441406 165.335938 93.457031 165.277344 93.453125 165.214844 C 93.449219 165.175781 93.441406 165.132812 93.4375 165.09375 C 93.414062 165.015625 93.375 164.949219 93.320312 164.890625 C 93.289062 164.867188 93.257812 164.84375 93.226562 164.820312 C 93.15625 164.78125 93.082031 164.757812 93 164.757812 C 92.949219 164.757812 92.902344 164.757812 92.851562 164.757812 C 92.789062 164.757812 92.730469 164.769531 92.675781 164.796875 C 92.621094 164.816406 92.574219 164.847656 92.53125 164.890625 C 92.488281 164.933594 92.457031 164.984375 92.4375 165.039062 C 92.410156 165.09375 92.394531 165.152344 92.398438 165.214844 C 92.402344 165.253906 92.410156 165.296875 92.414062 165.335938 C 92.4375 165.414062 92.476562 165.480469 92.53125 165.535156 C 92.5625 165.558594 92.59375 165.585938 92.625 165.609375 C 92.695312 165.648438 92.769531 165.671875 92.851562 165.671875 Z M 92.851562 165.671875 " fill-opacity="1" fill-rule="nonzero"/><path fill="#fde2d2" d="M 100.464844 176.105469 C 100.515625 176.105469 100.5625 176.105469 100.613281 176.105469 C 100.675781 176.105469 100.734375 176.09375 100.789062 176.066406 C 100.84375 176.046875 100.894531 176.015625 100.933594 175.96875 C 100.976562 175.929688 101.007812 175.878906 101.027344 175.824219 C 101.054688 175.769531 101.070312 175.710938 101.066406 175.648438 C 101.0625 175.609375 101.054688 175.566406 101.050781 175.527344 C 101.027344 175.449219 100.988281 175.382812 100.933594 175.328125 C 100.902344 175.300781 100.871094 175.277344 100.84375 175.253906 C 100.769531 175.214844 100.695312 175.191406 100.613281 175.191406 C 100.5625 175.191406 100.515625 175.191406 100.464844 175.191406 C 100.402344 175.191406 100.347656 175.203125 100.292969 175.230469 C 100.234375 175.25 100.1875 175.28125 100.144531 175.328125 C 100.101562 175.367188 100.070312 175.417969 100.050781 175.472656 C 100.023438 175.527344 100.011719 175.585938 100.011719 175.648438 C 100.019531 175.6875 100.023438 175.730469 100.027344 175.769531 C 100.050781 175.847656 100.089844 175.914062 100.144531 175.972656 C 100.175781 175.996094 100.207031 176.019531 100.238281 176.042969 C 100.308594 176.082031 100.382812 176.105469 100.464844 176.105469 Z M 100.464844 176.105469 " fill-opacity="1" fill-rule="nonzero"/><path fill="#fde2d2" d="M 88.804688 180.671875 C 88.800781 180.671875 88.796875 180.671875 88.796875 180.675781 C 88.832031 180.660156 88.867188 180.644531 88.902344 180.628906 C 88.898438 180.628906 88.898438 180.632812 88.894531 180.632812 C 88.933594 180.625 88.972656 180.621094 89.015625 180.617188 C 89.011719 180.617188 89.007812 180.617188 89.007812 180.617188 C 89.046875 180.621094 89.085938 180.625 89.128906 180.632812 C 89.125 180.632812 89.125 180.632812 89.121094 180.628906 C 89.15625 180.644531 89.195312 180.660156 89.230469 180.675781 C 89.226562 180.675781 89.226562 180.675781 89.222656 180.671875 C 89.253906 180.695312 89.285156 180.71875 89.316406 180.742188 C 89.3125 180.742188 89.3125 180.742188 89.308594 180.738281 C 89.332031 180.769531 89.355469 180.800781 89.382812 180.832031 C 89.378906 180.828125 89.375 180.824219 89.375 180.820312 C 89.390625 180.855469 89.40625 180.890625 89.421875 180.929688 C 89.417969 180.921875 89.414062 180.914062 89.414062 180.90625 C 89.421875 180.945312 89.425781 180.988281 89.429688 181.027344 C 89.429688 181.015625 89.429688 181.007812 89.429688 180.996094 C 89.425781 181.039062 89.421875 181.078125 89.414062 181.117188 C 89.414062 181.109375 89.417969 181.101562 89.421875 181.09375 C 89.40625 181.132812 89.390625 181.167969 89.375 181.203125 C 89.375 181.199219 89.378906 181.195312 89.382812 181.191406 C 89.359375 181.222656 89.335938 181.253906 89.308594 181.285156 C 89.3125 181.28125 89.316406 181.28125 89.316406 181.277344 C 89.285156 181.300781 89.253906 181.324219 89.226562 181.347656 C 89.226562 181.347656 89.226562 181.347656 89.230469 181.347656 C 89.195312 181.363281 89.15625 181.375 89.121094 181.390625 C 89.125 181.390625 89.125 181.390625 89.128906 181.390625 C 89.085938 181.394531 89.046875 181.402344 89.007812 181.40625 C 89.011719 181.40625 89.011719 181.40625 89.015625 181.40625 C 88.972656 181.402344 88.933594 181.394531 88.894531 181.390625 C 88.898438 181.390625 88.898438 181.390625 88.902344 181.394531 C 88.867188 181.378906 88.832031 181.363281 88.792969 181.347656 C 88.796875 181.347656 88.800781 181.351562 88.804688 181.351562 C 88.855469 181.386719 88.914062 181.402344 88.972656 181.40625 C 89.03125 181.417969 89.09375 181.417969 89.152344 181.398438 C 89.210938 181.382812 89.265625 181.355469 89.308594 181.316406 C 89.355469 181.285156 89.394531 181.242188 89.425781 181.1875 C 89.441406 181.152344 89.457031 181.117188 89.46875 181.078125 C 89.492188 181 89.492188 180.917969 89.46875 180.835938 C 89.457031 180.800781 89.441406 180.765625 89.425781 180.730469 C 89.382812 180.660156 89.328125 180.605469 89.261719 180.566406 C 89.261719 180.5625 89.257812 180.5625 89.257812 180.5625 C 89.253906 180.5625 89.253906 180.5625 89.253906 180.5625 C 89.234375 180.550781 89.195312 180.535156 89.199219 180.539062 C 89.214844 180.542969 89.160156 180.519531 89.144531 180.515625 C 89.140625 180.511719 89.140625 180.511719 89.136719 180.511719 C 89.128906 180.511719 89.019531 180.496094 89.015625 180.496094 C 89.015625 180.496094 89.015625 180.496094 89.011719 180.496094 C 89.011719 180.496094 89.011719 180.496094 89.007812 180.496094 C 89.003906 180.496094 88.890625 180.511719 88.886719 180.511719 C 88.886719 180.511719 88.886719 180.511719 88.882812 180.511719 C 88.882812 180.511719 88.882812 180.511719 88.878906 180.511719 C 88.875 180.515625 88.773438 180.558594 88.769531 180.558594 C 88.769531 180.558594 88.769531 180.5625 88.769531 180.5625 C 88.695312 180.609375 88.640625 180.660156 88.59375 180.738281 C 88.574219 180.773438 88.558594 180.816406 88.542969 180.855469 C 88.542969 180.859375 88.542969 180.859375 88.542969 180.863281 C 88.539062 180.867188 88.539062 180.871094 88.539062 180.875 C 88.535156 180.90625 88.527344 180.96875 88.523438 180.996094 C 88.523438 180.996094 88.523438 181 88.523438 181 C 88.523438 181.003906 88.523438 181.003906 88.523438 181.007812 C 88.523438 181.011719 88.523438 181.015625 88.523438 181.019531 C 88.523438 181.019531 88.523438 181.023438 88.523438 181.023438 C 88.523438 181.046875 88.527344 181.070312 88.53125 181.085938 C 88.535156 181.105469 88.535156 181.128906 88.539062 181.152344 C 88.539062 181.15625 88.539062 181.160156 88.542969 181.160156 C 88.542969 181.164062 88.542969 181.164062 88.542969 181.167969 C 88.550781 181.183594 88.582031 181.261719 88.589844 181.277344 C 88.589844 181.277344 88.589844 181.28125 88.589844 181.28125 C 88.59375 181.28125 88.59375 181.285156 88.597656 181.289062 C 88.601562 181.296875 88.664062 181.375 88.667969 181.382812 C 88.671875 181.386719 88.671875 181.386719 88.671875 181.386719 C 88.703125 181.414062 88.734375 181.441406 88.769531 181.460938 C 88.773438 181.464844 88.875 181.507812 88.878906 181.507812 C 88.882812 181.507812 88.882812 181.507812 88.882812 181.511719 C 88.882812 181.511719 88.882812 181.511719 88.886719 181.511719 C 88.890625 181.511719 89.003906 181.527344 89.007812 181.527344 C 89.011719 181.527344 89.011719 181.527344 89.011719 181.527344 C 89.019531 181.527344 89.125 181.511719 89.132812 181.511719 C 89.136719 181.511719 89.136719 181.507812 89.140625 181.507812 C 89.179688 181.496094 89.222656 181.480469 89.261719 181.457031 C 89.3125 181.429688 89.355469 181.390625 89.386719 181.339844 C 89.425781 181.296875 89.453125 181.246094 89.46875 181.183594 C 89.488281 181.125 89.492188 181.0625 89.476562 181.003906 C 89.472656 180.941406 89.457031 180.886719 89.421875 180.835938 C 89.398438 180.804688 89.375 180.773438 89.351562 180.742188 C 89.296875 180.6875 89.230469 180.648438 89.152344 180.625 C 89.109375 180.621094 89.070312 180.613281 89.03125 180.609375 C 88.949219 180.609375 88.875 180.628906 88.804688 180.671875 Z M 88.804688 180.671875 " fill-opacity="1" fill-rule="nonzero"/><path fill="#fde2d2" d="M 105.003906 169.609375 C 104.957031 169.609375 104.90625 169.609375 104.859375 169.609375 C 104.796875 169.605469 104.738281 169.621094 104.683594 169.648438 C 104.628906 169.667969 104.578125 169.699219 104.539062 169.742188 C 104.492188 169.785156 104.460938 169.832031 104.445312 169.890625 C 104.414062 169.941406 104.402344 170 104.40625 170.0625 C 104.410156 170.105469 104.414062 170.144531 104.421875 170.183594 C 104.441406 170.261719 104.480469 170.328125 104.539062 170.386719 C 104.570312 170.410156 104.597656 170.433594 104.628906 170.457031 C 104.699219 170.5 104.777344 170.519531 104.859375 170.519531 C 104.90625 170.519531 104.957031 170.519531 105.003906 170.519531 C 105.066406 170.523438 105.125 170.507812 105.179688 170.480469 C 105.238281 170.460938 105.285156 170.429688 105.324219 170.386719 C 105.371094 170.34375 105.402344 170.296875 105.421875 170.238281 C 105.449219 170.183594 105.460938 170.128906 105.460938 170.0625 C 105.453125 170.023438 105.449219 169.984375 105.441406 169.941406 C 105.421875 169.867188 105.382812 169.800781 105.328125 169.742188 C 105.296875 169.71875 105.265625 169.695312 105.234375 169.671875 C 105.164062 169.628906 105.085938 169.609375 105.003906 169.609375 Z M 105.003906 169.609375 " fill-opacity="1" fill-rule="nonzero"/><path fill="#fde2d2" d="M 96.820312 170.945312 C 96.820312 170.898438 96.820312 170.847656 96.820312 170.800781 C 96.824219 170.738281 96.808594 170.679688 96.78125 170.625 C 96.761719 170.566406 96.730469 170.519531 96.6875 170.476562 C 96.644531 170.433594 96.597656 170.402344 96.542969 170.382812 C 96.488281 170.355469 96.429688 170.339844 96.367188 170.34375 C 96.324219 170.347656 96.285156 170.355469 96.246094 170.359375 C 96.167969 170.382812 96.101562 170.421875 96.046875 170.476562 C 96.023438 170.507812 95.996094 170.539062 95.972656 170.570312 C 95.933594 170.640625 95.914062 170.714844 95.914062 170.800781 C 95.914062 170.847656 95.914062 170.898438 95.914062 170.945312 C 95.910156 171.007812 95.921875 171.066406 95.953125 171.121094 C 95.96875 171.179688 96 171.226562 96.046875 171.269531 C 96.085938 171.3125 96.136719 171.34375 96.191406 171.363281 C 96.246094 171.390625 96.304688 171.402344 96.367188 171.402344 C 96.40625 171.394531 96.445312 171.390625 96.488281 171.386719 C 96.5625 171.363281 96.628906 171.324219 96.6875 171.269531 C 96.710938 171.238281 96.734375 171.207031 96.757812 171.175781 C 96.800781 171.105469 96.820312 171.027344 96.820312 170.945312 Z M 96.820312 170.945312 " fill-opacity="1" fill-rule="nonzero"/><path fill="#fde2d2" d="M 101.492188 164.90625 C 101.460938 164.90625 101.429688 164.90625 101.402344 164.90625 C 100.816406 164.90625 100.816406 165.816406 101.402344 165.816406 C 101.429688 165.816406 101.460938 165.816406 101.492188 165.816406 C 102.074219 165.816406 102.078125 164.90625 101.492188 164.90625 C 101.460938 164.90625 101.429688 164.90625 101.402344 164.90625 C 100.816406 164.90625 100.816406 165.816406 101.402344 165.816406 C 101.429688 165.816406 101.460938 165.816406 101.492188 165.816406 C 102.074219 165.816406 102.078125 164.90625 101.492188 164.90625 Z M 101.492188 164.90625 " fill-opacity="1" fill-rule="nonzero"/><path fill="#fde2d2" d="M 108.667969 160.527344 C 108.714844 160.527344 108.765625 160.527344 108.8125 160.527344 C 108.875 160.527344 108.933594 160.515625 108.988281 160.488281 C 109.042969 160.46875 109.09375 160.4375 109.132812 160.394531 C 109.179688 160.351562 109.207031 160.304688 109.226562 160.246094 C 109.257812 160.191406 109.269531 160.132812 109.265625 160.070312 C 109.261719 160.03125 109.253906 159.992188 109.25 159.949219 C 109.230469 159.871094 109.191406 159.804688 109.132812 159.75 C 109.101562 159.726562 109.074219 159.703125 109.042969 159.675781 C 108.972656 159.636719 108.894531 159.617188 108.8125 159.617188 C 108.765625 159.617188 108.714844 159.617188 108.667969 159.617188 C 108.605469 159.613281 108.546875 159.625 108.492188 159.65625 C 108.433594 159.671875 108.386719 159.703125 108.34375 159.75 C 108.300781 159.789062 108.269531 159.839844 108.25 159.894531 C 108.222656 159.949219 108.210938 160.007812 108.210938 160.070312 C 108.21875 160.113281 108.222656 160.152344 108.226562 160.191406 C 108.25 160.269531 108.289062 160.335938 108.34375 160.394531 C 108.375 160.417969 108.40625 160.441406 108.4375 160.464844 C 108.507812 160.503906 108.585938 160.527344 108.667969 160.527344 Z M 108.667969 160.527344 " fill-opacity="1" fill-rule="nonzero"/><path fill="#fde2d2" d="M 107.933594 150.09375 C 107.984375 150.09375 108.03125 150.09375 108.082031 150.09375 C 108.144531 150.09375 108.203125 150.082031 108.253906 150.054688 C 108.3125 150.035156 108.359375 150.003906 108.402344 149.957031 C 108.445312 149.917969 108.476562 149.867188 108.496094 149.8125 C 108.523438 149.757812 108.535156 149.699219 108.535156 149.636719 C 108.527344 149.597656 108.523438 149.554688 108.519531 149.515625 C 108.496094 149.4375 108.457031 149.371094 108.402344 149.316406 C 108.371094 149.292969 108.339844 149.265625 108.308594 149.242188 C 108.238281 149.203125 108.164062 149.179688 108.082031 149.179688 C 108.03125 149.179688 107.984375 149.179688 107.933594 149.179688 C 107.871094 149.179688 107.8125 149.191406 107.757812 149.21875 C 107.703125 149.238281 107.652344 149.269531 107.613281 149.316406 C 107.570312 149.355469 107.539062 149.40625 107.519531 149.460938 C 107.492188 149.515625 107.476562 149.574219 107.480469 149.636719 C 107.484375 149.675781 107.492188 149.71875 107.496094 149.757812 C 107.519531 149.835938 107.558594 149.902344 107.613281 149.960938 C 107.644531 149.984375 107.675781 150.007812 107.703125 150.03125 C 107.777344 150.070312 107.851562 150.09375 107.933594 150.09375 Z M 107.933594 150.09375 " fill-opacity="1" fill-rule="nonzero"/><path fill="#fde2d2" d="M 99.574219 146.402344 C 99.574219 146.503906 99.574219 146.601562 99.574219 146.699219 C 99.570312 146.761719 99.585938 146.820312 99.613281 146.875 C 99.628906 146.929688 99.664062 146.980469 99.707031 147.019531 C 99.746094 147.066406 99.796875 147.097656 99.851562 147.113281 C 99.90625 147.144531 99.964844 147.15625 100.027344 147.152344 C 100.066406 147.148438 100.109375 147.144531 100.148438 147.136719 C 100.226562 147.117188 100.292969 147.078125 100.347656 147.019531 C 100.371094 146.988281 100.394531 146.957031 100.417969 146.929688 C 100.460938 146.855469 100.480469 146.78125 100.480469 146.699219 C 100.480469 146.601562 100.480469 146.503906 100.480469 146.402344 C 100.484375 146.339844 100.46875 146.28125 100.441406 146.230469 C 100.425781 146.171875 100.390625 146.125 100.347656 146.082031 C 100.308594 146.039062 100.257812 146.007812 100.203125 145.988281 C 100.148438 145.960938 100.089844 145.945312 100.027344 145.949219 C 99.988281 145.953125 99.945312 145.960938 99.90625 145.964844 C 99.828125 145.988281 99.761719 146.027344 99.707031 146.082031 C 99.683594 146.113281 99.660156 146.144531 99.636719 146.175781 C 99.59375 146.246094 99.574219 146.320312 99.574219 146.402344 Z M 99.574219 146.402344 " fill-opacity="1" fill-rule="nonzero"/><path fill="#fde2d2" d="M 88.035156 171.238281 C 88.035156 171.191406 88.035156 171.140625 88.035156 171.09375 C 88.039062 171.03125 88.023438 170.972656 87.996094 170.917969 C 87.976562 170.859375 87.945312 170.8125 87.902344 170.769531 C 87.859375 170.726562 87.8125 170.695312 87.757812 170.675781 C 87.703125 170.648438 87.644531 170.636719 87.582031 170.636719 C 87.539062 170.640625 87.5 170.648438 87.460938 170.652344 C 87.382812 170.675781 87.316406 170.714844 87.261719 170.769531 C 87.238281 170.800781 87.210938 170.832031 87.1875 170.863281 C 87.148438 170.933594 87.128906 171.011719 87.128906 171.09375 C 87.128906 171.140625 87.128906 171.191406 87.128906 171.238281 C 87.125 171.300781 87.136719 171.359375 87.167969 171.414062 C 87.183594 171.472656 87.214844 171.519531 87.261719 171.5625 C 87.300781 171.605469 87.351562 171.636719 87.40625 171.65625 C 87.460938 171.683594 87.519531 171.699219 87.582031 171.695312 C 87.621094 171.691406 87.660156 171.683594 87.703125 171.679688 C 87.777344 171.65625 87.84375 171.617188 87.902344 171.5625 C 87.925781 171.53125 87.949219 171.5 87.972656 171.46875 C 88.015625 171.398438 88.035156 171.320312 88.035156 171.238281 Z M 88.035156 171.238281 " fill-opacity="1" fill-rule="nonzero"/><path fill="#fde2d2" d="M 89.046875 160.671875 C 89.628906 160.671875 89.628906 159.761719 89.046875 159.761719 C 88.460938 159.761719 88.460938 160.671875 89.046875 160.671875 Z M 89.046875 160.671875 " fill-opacity="1" fill-rule="nonzero"/><path fill="#cc662b" d="M 58.296875 156.707031 C 58.347656 156.707031 58.394531 156.707031 58.445312 156.707031 C 58.507812 156.707031 58.5625 156.695312 58.617188 156.667969 C 58.675781 156.648438 58.722656 156.617188 58.765625 156.570312 C 58.808594 156.53125 58.839844 156.480469 58.859375 156.425781 C 58.886719 156.371094 58.898438 156.3125 58.898438 156.25 C 58.890625 156.210938 58.886719 156.167969 58.882812 156.128906 C 58.859375 156.050781 58.820312 155.984375 58.765625 155.929688 C 58.734375 155.902344 58.703125 155.878906 58.671875 155.855469 C 58.601562 155.816406 58.527344 155.792969 58.445312 155.792969 C 58.394531 155.792969 58.347656 155.792969 58.296875 155.792969 C 58.234375 155.792969 58.175781 155.804688 58.121094 155.832031 C 58.066406 155.851562 58.015625 155.882812 57.976562 155.929688 C 57.933594 155.96875 57.902344 156.019531 57.882812 156.074219 C 57.855469 156.128906 57.839844 156.1875 57.84375 156.25 C 57.847656 156.289062 57.855469 156.332031 57.859375 156.371094 C 57.882812 156.449219 57.921875 156.515625 57.976562 156.574219 C 58.007812 156.597656 58.039062 156.621094 58.066406 156.644531 C 58.140625 156.683594 58.214844 156.707031 58.296875 156.707031 Z M 58.296875 156.707031 " fill-opacity="1" fill-rule="nonzero"/><path fill="#cc662b" d="M 63.566406 150.386719 C 64.152344 150.386719 64.152344 149.476562 63.566406 149.476562 C 62.984375 149.476562 62.984375 150.386719 63.566406 150.386719 Z M 63.566406 150.386719 " fill-opacity="1" fill-rule="nonzero"/><path fill="#cc662b" d="M 59.777344 147.875 C 59.777344 147.824219 59.777344 147.777344 59.777344 147.726562 C 59.777344 147.664062 59.765625 147.605469 59.738281 147.550781 C 59.71875 147.496094 59.6875 147.445312 59.644531 147.40625 C 59.601562 147.359375 59.554688 147.328125 59.496094 147.308594 C 59.441406 147.28125 59.382812 147.269531 59.320312 147.269531 C 59.28125 147.277344 59.242188 147.28125 59.199219 147.289062 C 59.125 147.308594 59.058594 147.347656 59 147.40625 C 58.976562 147.433594 58.953125 147.464844 58.929688 147.496094 C 58.890625 147.566406 58.867188 147.644531 58.867188 147.726562 C 58.867188 147.773438 58.867188 147.824219 58.867188 147.875 C 58.867188 147.9375 58.878906 147.996094 58.90625 148.050781 C 58.925781 148.105469 58.957031 148.15625 59 148.195312 C 59.042969 148.238281 59.089844 148.269531 59.148438 148.289062 C 59.199219 148.320312 59.257812 148.332031 59.320312 148.328125 C 59.363281 148.324219 59.402344 148.316406 59.441406 148.3125 C 59.519531 148.292969 59.585938 148.253906 59.644531 148.195312 C 59.667969 148.164062 59.691406 148.132812 59.714844 148.101562 C 59.753906 148.03125 59.777344 147.957031 59.777344 147.875 Z M 59.777344 147.875 " fill-opacity="1" fill-rule="nonzero"/><path fill="#cc662b" d="M 62.417969 139.765625 C 62.457031 139.761719 62.496094 139.753906 62.535156 139.75 C 62.53125 139.75 62.527344 139.75 62.527344 139.75 C 62.566406 139.757812 62.605469 139.761719 62.644531 139.765625 C 62.644531 139.765625 62.640625 139.765625 62.636719 139.765625 C 62.671875 139.78125 62.707031 139.792969 62.746094 139.808594 C 62.742188 139.808594 62.738281 139.808594 62.738281 139.804688 C 62.769531 139.828125 62.796875 139.851562 62.828125 139.878906 C 62.824219 139.875 62.824219 139.871094 62.820312 139.871094 C 62.84375 139.898438 62.867188 139.929688 62.890625 139.960938 C 62.890625 139.957031 62.886719 139.953125 62.886719 139.949219 C 62.902344 139.984375 62.917969 140.023438 62.929688 140.058594 C 62.929688 140.050781 62.925781 140.046875 62.925781 140.039062 C 62.929688 140.078125 62.9375 140.121094 62.941406 140.160156 C 62.941406 140.152344 62.941406 140.144531 62.941406 140.136719 C 62.9375 140.175781 62.929688 140.214844 62.925781 140.257812 C 62.925781 140.25 62.929688 140.242188 62.933594 140.234375 C 62.917969 140.269531 62.902344 140.308594 62.886719 140.34375 C 62.886719 140.339844 62.890625 140.335938 62.894531 140.332031 C 62.871094 140.359375 62.847656 140.390625 62.824219 140.421875 C 62.824219 140.417969 62.828125 140.417969 62.832031 140.414062 C 62.800781 140.4375 62.769531 140.460938 62.738281 140.484375 C 62.742188 140.484375 62.742188 140.480469 62.746094 140.480469 C 62.710938 140.496094 62.675781 140.511719 62.636719 140.527344 C 62.640625 140.527344 62.644531 140.523438 62.648438 140.523438 C 62.605469 140.53125 62.566406 140.535156 62.527344 140.539062 C 62.53125 140.539062 62.535156 140.539062 62.535156 140.539062 C 62.496094 140.535156 62.457031 140.53125 62.417969 140.523438 C 62.417969 140.523438 62.421875 140.523438 62.421875 140.523438 C 62.484375 140.542969 62.542969 140.546875 62.601562 140.535156 C 62.664062 140.53125 62.71875 140.511719 62.773438 140.480469 C 62.824219 140.449219 62.867188 140.410156 62.898438 140.363281 C 62.9375 140.316406 62.964844 140.265625 62.980469 140.207031 C 62.984375 140.167969 62.992188 140.125 62.996094 140.085938 C 62.996094 140.003906 62.976562 139.925781 62.933594 139.855469 C 62.910156 139.824219 62.886719 139.792969 62.863281 139.765625 C 62.808594 139.707031 62.742188 139.667969 62.664062 139.648438 C 62.660156 139.648438 62.660156 139.644531 62.65625 139.644531 C 62.644531 139.644531 62.550781 139.628906 62.535156 139.628906 C 62.488281 139.628906 62.445312 139.636719 62.402344 139.644531 C 62.402344 139.648438 62.402344 139.648438 62.398438 139.648438 C 62.363281 139.660156 62.324219 139.675781 62.289062 139.695312 C 62.253906 139.710938 62.179688 139.777344 62.1875 139.769531 C 62.1875 139.773438 62.183594 139.773438 62.183594 139.777344 C 62.183594 139.777344 62.183594 139.777344 62.179688 139.777344 C 62.171875 139.789062 62.121094 139.855469 62.109375 139.871094 C 62.109375 139.871094 62.109375 139.875 62.105469 139.875 C 62.105469 139.878906 62.105469 139.878906 62.101562 139.882812 C 62.101562 139.882812 62.066406 139.960938 62.054688 140 C 62.054688 140.003906 62.050781 140.007812 62.050781 140.011719 C 62.042969 140.054688 62.035156 140.097656 62.035156 140.140625 C 62.035156 140.144531 62.035156 140.148438 62.035156 140.152344 C 62.035156 140.195312 62.042969 140.242188 62.050781 140.28125 C 62.050781 140.285156 62.050781 140.289062 62.054688 140.292969 C 62.0625 140.332031 62.105469 140.414062 62.101562 140.410156 C 62.101562 140.414062 62.105469 140.414062 62.105469 140.417969 C 62.128906 140.453125 62.15625 140.488281 62.183594 140.515625 C 62.242188 140.582031 62.316406 140.613281 62.398438 140.644531 C 62.398438 140.644531 62.402344 140.644531 62.402344 140.644531 C 62.445312 140.652344 62.484375 140.660156 62.527344 140.664062 C 62.53125 140.664062 62.53125 140.664062 62.535156 140.664062 C 62.574219 140.660156 62.617188 140.652344 62.660156 140.644531 C 62.71875 140.632812 62.769531 140.605469 62.8125 140.5625 C 62.863281 140.53125 62.902344 140.488281 62.929688 140.4375 C 62.964844 140.382812 62.980469 140.328125 62.984375 140.265625 C 63 140.207031 62.996094 140.144531 62.976562 140.085938 C 62.960938 140.050781 62.945312 140.011719 62.929688 139.976562 C 62.890625 139.90625 62.835938 139.855469 62.769531 139.8125 C 62.730469 139.796875 62.695312 139.78125 62.660156 139.765625 C 62.578125 139.746094 62.5 139.746094 62.417969 139.765625 Z M 62.417969 139.765625 " fill-opacity="1" fill-rule="nonzero"/><path fill="#cc662b" d="M 68.546875 143.773438 C 69.128906 143.773438 69.132812 142.863281 68.546875 142.863281 C 67.960938 142.863281 67.960938 143.773438 68.546875 143.773438 Z M 68.546875 143.773438 " fill-opacity="1" fill-rule="nonzero"/><path fill="#cc662b" d="M 68.691406 135.398438 C 69.277344 135.398438 69.277344 134.484375 68.691406 134.484375 C 68.109375 134.484375 68.109375 135.398438 68.691406 135.398438 Z M 68.691406 135.398438 " fill-opacity="1" fill-rule="nonzero"/><path fill="#cc662b" d="M 72.925781 133.914062 C 72.925781 133.960938 72.925781 134.011719 72.925781 134.058594 C 72.921875 134.121094 72.933594 134.179688 72.964844 134.234375 C 72.980469 134.292969 73.011719 134.339844 73.058594 134.382812 C 73.097656 134.425781 73.148438 134.457031 73.203125 134.476562 C 73.257812 134.503906 73.316406 134.515625 73.378906 134.515625 C 73.417969 134.507812 73.460938 134.503906 73.5 134.5 C 73.574219 134.476562 73.644531 134.4375 73.699219 134.382812 C 73.722656 134.351562 73.746094 134.320312 73.769531 134.289062 C 73.8125 134.21875 73.832031 134.140625 73.832031 134.058594 C 73.832031 134.011719 73.832031 133.960938 73.832031 133.914062 C 73.835938 133.851562 73.820312 133.792969 73.792969 133.738281 C 73.773438 133.679688 73.742188 133.632812 73.699219 133.589844 C 73.65625 133.546875 73.609375 133.515625 73.554688 133.496094 C 73.5 133.46875 73.441406 133.453125 73.378906 133.457031 C 73.339844 133.460938 73.296875 133.46875 73.257812 133.472656 C 73.179688 133.496094 73.113281 133.535156 73.058594 133.589844 C 73.035156 133.621094 73.011719 133.652344 72.988281 133.683594 C 72.945312 133.753906 72.925781 133.832031 72.925781 133.914062 Z M 72.925781 133.914062 " fill-opacity="1" fill-rule="nonzero"/><path fill="#cc662b" d="M 109.984375 153.621094 C 110.566406 153.621094 110.570312 152.707031 109.984375 152.707031 C 109.398438 152.707031 109.398438 153.621094 109.984375 153.621094 Z M 109.984375 153.621094 " fill-opacity="1" fill-rule="nonzero"/><path fill="#cc662b" d="M 109.558594 165.507812 C 109.558594 165.460938 109.558594 165.410156 109.558594 165.363281 C 109.5625 165.300781 109.546875 165.242188 109.519531 165.1875 C 109.5 165.128906 109.46875 165.082031 109.425781 165.039062 C 109.386719 164.996094 109.335938 164.964844 109.28125 164.945312 C 109.226562 164.917969 109.167969 164.902344 109.105469 164.90625 C 109.066406 164.910156 109.023438 164.917969 108.984375 164.921875 C 108.90625 164.945312 108.839844 164.984375 108.785156 165.039062 C 108.761719 165.070312 108.738281 165.101562 108.714844 165.132812 C 108.671875 165.203125 108.652344 165.277344 108.652344 165.363281 C 108.652344 165.410156 108.652344 165.460938 108.652344 165.507812 C 108.648438 165.570312 108.660156 165.628906 108.691406 165.683594 C 108.707031 165.742188 108.738281 165.789062 108.785156 165.832031 C 108.824219 165.875 108.875 165.90625 108.929688 165.925781 C 108.984375 165.953125 109.042969 165.964844 109.105469 165.964844 C 109.144531 165.957031 109.1875 165.953125 109.226562 165.949219 C 109.304688 165.925781 109.371094 165.886719 109.425781 165.832031 C 109.449219 165.800781 109.472656 165.769531 109.496094 165.738281 C 109.539062 165.667969 109.558594 165.589844 109.558594 165.507812 Z M 109.558594 165.507812 " fill-opacity="1" fill-rule="nonzero"/><path fill="#cc662b" d="M 104.859375 161.261719 C 105.441406 161.261719 105.445312 160.351562 104.859375 160.351562 C 104.273438 160.351562 104.273438 161.261719 104.859375 161.261719 Z M 104.859375 161.261719 " fill-opacity="1" fill-rule="nonzero"/><path fill="#cc662b" d="M 105.738281 158.46875 C 106.320312 158.46875 106.324219 157.558594 105.738281 157.558594 C 105.152344 157.558594 105.152344 158.46875 105.738281 158.46875 Z M 105.738281 158.46875 " fill-opacity="1" fill-rule="nonzero"/><path fill="#cc662b" d="M 103.542969 176.546875 C 104.125 176.546875 104.125 175.632812 103.542969 175.632812 C 102.957031 175.632812 102.957031 176.546875 103.542969 176.546875 Z M 103.542969 176.546875 " fill-opacity="1" fill-rule="nonzero"/><path fill="#cc662b" d="M 94.316406 178.015625 C 94.902344 178.015625 94.902344 177.105469 94.316406 177.105469 C 93.734375 177.105469 93.730469 178.015625 94.316406 178.015625 Z M 94.316406 178.015625 " fill-opacity="1" fill-rule="nonzero"/><path fill="#cc662b" d="M 93.4375 183.160156 C 94.023438 183.160156 94.023438 182.246094 93.4375 182.246094 C 92.855469 182.246094 92.851562 183.160156 93.4375 183.160156 Z M 93.4375 183.160156 " fill-opacity="1" fill-rule="nonzero"/><path fill="#cc662b" d="M 83.742188 183.378906 C 83.789062 183.28125 83.839844 183.183594 83.886719 183.085938 C 83.921875 183.035156 83.9375 182.976562 83.941406 182.917969 C 83.957031 182.855469 83.953125 182.796875 83.933594 182.734375 C 83.917969 182.675781 83.890625 182.625 83.851562 182.582031 C 83.820312 182.53125 83.777344 182.492188 83.726562 182.464844 C 83.6875 182.449219 83.652344 182.433594 83.617188 182.417969 C 83.535156 182.394531 83.457031 182.394531 83.375 182.417969 C 83.339844 182.433594 83.304688 182.449219 83.265625 182.464844 C 83.199219 182.503906 83.144531 182.558594 83.105469 182.628906 C 83.054688 182.726562 83.007812 182.824219 82.957031 182.921875 C 82.925781 182.972656 82.90625 183.03125 82.902344 183.089844 C 82.890625 183.152344 82.890625 183.210938 82.910156 183.273438 C 82.925781 183.332031 82.953125 183.382812 82.992188 183.425781 C 83.023438 183.476562 83.066406 183.515625 83.121094 183.542969 C 83.15625 183.558594 83.191406 183.574219 83.226562 183.589844 C 83.308594 183.613281 83.390625 183.613281 83.46875 183.589844 C 83.503906 183.574219 83.542969 183.558594 83.578125 183.542969 C 83.644531 183.503906 83.699219 183.449219 83.742188 183.378906 Z M 83.742188 183.378906 " fill-opacity="1" fill-rule="nonzero"/><path fill="#cc662b" d="M 82.75 178.160156 C 82.796875 178.160156 82.847656 178.160156 82.894531 178.160156 C 82.957031 178.164062 83.015625 178.152344 83.070312 178.121094 C 83.128906 178.105469 83.175781 178.074219 83.21875 178.027344 C 83.261719 177.988281 83.292969 177.9375 83.3125 177.882812 C 83.339844 177.828125 83.351562 177.769531 83.351562 177.707031 C 83.34375 177.664062 83.339844 177.625 83.332031 177.585938 C 83.3125 177.507812 83.273438 177.441406 83.21875 177.382812 C 83.1875 177.359375 83.15625 177.335938 83.125 177.3125 C 83.054688 177.273438 82.976562 177.25 82.894531 177.25 C 82.847656 177.25 82.796875 177.25 82.75 177.25 C 82.6875 177.25 82.628906 177.261719 82.574219 177.289062 C 82.519531 177.308594 82.46875 177.339844 82.429688 177.382812 C 82.382812 177.425781 82.351562 177.472656 82.335938 177.53125 C 82.304688 177.585938 82.292969 177.644531 82.296875 177.707031 C 82.300781 177.746094 82.304688 177.785156 82.3125 177.828125 C 82.332031 177.90625 82.371094 177.972656 82.429688 178.027344 C 82.460938 178.050781 82.488281 178.074219 82.519531 178.101562 C 82.589844 178.140625 82.667969 178.160156 82.75 178.160156 Z M 82.75 178.160156 " fill-opacity="1" fill-rule="nonzero"/><path fill="#cc662b" d="M 101.652344 152.28125 C 101.652344 152.234375 101.652344 152.183594 101.652344 152.136719 C 101.65625 152.074219 101.640625 152.015625 101.613281 151.960938 C 101.59375 151.902344 101.5625 151.855469 101.519531 151.8125 C 101.476562 151.769531 101.429688 151.738281 101.375 151.71875 C 101.320312 151.691406 101.261719 151.675781 101.199219 151.679688 C 101.15625 151.683594 101.117188 151.691406 101.078125 151.695312 C 101 151.71875 100.933594 151.757812 100.878906 151.8125 C 100.855469 151.84375 100.828125 151.875 100.804688 151.90625 C 100.765625 151.976562 100.746094 152.054688 100.746094 152.136719 C 100.746094 152.183594 100.746094 152.234375 100.746094 152.28125 C 100.742188 152.34375 100.753906 152.402344 100.785156 152.457031 C 100.800781 152.515625 100.832031 152.5625 100.878906 152.605469 C 100.917969 152.648438 100.96875 152.679688 101.023438 152.699219 C 101.078125 152.726562 101.136719 152.738281 101.199219 152.738281 C 101.238281 152.734375 101.277344 152.726562 101.320312 152.722656 C 101.394531 152.699219 101.460938 152.660156 101.519531 152.605469 C 101.542969 152.574219 101.566406 152.542969 101.589844 152.511719 C 101.632812 152.441406 101.652344 152.363281 101.652344 152.28125 Z M 101.652344 152.28125 " fill-opacity="1" fill-rule="nonzero"/><path fill="#cc662b" d="M 106.03125 145.242188 C 106.613281 145.242188 106.617188 144.332031 106.03125 144.332031 C 105.445312 144.332031 105.445312 145.242188 106.03125 145.242188 Z M 106.03125 145.242188 " fill-opacity="1" fill-rule="nonzero"/><path fill="#cc662b" d="M 98.882812 137.859375 C 98.9375 137.910156 99 137.957031 99.074219 137.976562 C 99.214844 138.007812 99.355469 137.917969 99.441406 137.808594 C 99.765625 137.394531 99.574219 136.785156 99.332031 136.320312 C 98.765625 135.25 97.859375 133.953125 96.773438 133.355469 C 96.308594 133.101562 94.652344 132.558594 94.25 133.207031 C 93.820312 133.90625 95.765625 134.554688 96.222656 134.960938 C 97.210938 135.828125 97.878906 137.003906 98.882812 137.859375 Z M 98.882812 137.859375 " fill-opacity="1" fill-rule="nonzero"/><path fill="#cc662b" d="M 88.515625 138.035156 C 88.796875 138.238281 89.101562 138.429688 89.441406 138.488281 C 89.78125 138.546875 90.167969 138.445312 90.371094 138.164062 C 90.71875 137.683594 90.371094 137.007812 89.945312 136.597656 C 89.519531 136.1875 88.992188 135.863281 88.40625 135.785156 C 86.070312 135.484375 87.542969 137.328125 88.515625 138.035156 Z M 88.515625 138.035156 " fill-opacity="1" fill-rule="nonzero"/><g clip-path="url(#b04c0bc973)"><path fill="#3ea073" d="M 81.910156 117.285156 C 83.855469 114.863281 86.367188 112.972656 88.960938 111.273438 C 89.941406 110.628906 90.941406 110.007812 91.980469 109.464844 C 94.367188 108.214844 96.941406 107.382812 99.507812 106.554688 C 98.960938 109.007812 97.972656 111.363281 96.597656 113.46875 C 94.589844 116.542969 91.796875 119.046875 88.734375 121.066406 C 87.171875 122.097656 85.535156 123.007812 83.863281 123.847656 C 82.902344 124.332031 80.304688 126.144531 79.246094 125.605469 C 77.035156 124.476562 80.996094 118.417969 81.910156 117.285156 Z M 81.910156 117.285156 " fill-opacity="1" fill-rule="nonzero"/></g><g clip-path="url(#7d6fa8d796)"><path fill="#3ea073" d="M 69.226562 126.71875 C 66.0625 125.066406 62.875 123.394531 60.085938 121.164062 C 58.628906 120 57.265625 118.671875 55.589844 117.863281 C 54.789062 117.476562 53.90625 117.199219 53.296875 116.554688 C 55.5 115.5625 57.996094 115.375 60.394531 115.640625 C 62.792969 115.90625 65.125 116.601562 67.429688 117.320312 C 69.546875 117.976562 71.710938 118.683594 73.433594 120.085938 C 74.671875 121.097656 75.617188 122.421875 76.535156 123.734375 C 77.546875 125.171875 80.203125 128.597656 76.980469 129.277344 C 74.507812 129.796875 71.320312 127.8125 69.226562 126.71875 Z M 69.226562 126.71875 " fill-opacity="1" fill-rule="nonzero"/></g><path fill="#45b280" d="M 81.960938 134.597656 C 83.71875 134.449219 85.511719 133.222656 85.722656 131.464844 C 84.558594 131.449219 83.523438 132.152344 82.402344 132.472656 C 81.527344 132.722656 75.328125 132.296875 75.328125 132.296875 C 76.375 135.550781 81.148438 134.660156 81.960938 134.597656 Z M 81.960938 134.597656 " fill-opacity="1" fill-rule="nonzero"/><path fill="#45b280" d="M 78.8125 116.128906 L 76.007812 116.128906 C 76.289062 121.035156 78.332031 129.574219 78.1875 133.902344 C 78.644531 134.613281 81.917969 134.453125 82.53125 133.210938 C 81.605469 131.003906 78.398438 121.960938 78.8125 116.128906 Z M 78.8125 116.128906 " fill-opacity="1" fill-rule="nonzero"/><path fill="#5e2617" d="M 75.238281 112.789062 C 75.3125 112.214844 75.597656 111.640625 76.101562 111.367188 C 76.433594 111.183594 76.828125 111.144531 77.207031 111.128906 C 77.585938 111.113281 77.96875 111.113281 78.351562 111.128906 C 78.683594 111.144531 79.039062 111.183594 79.300781 111.386719 C 79.730469 111.726562 79.75 112.367188 79.648438 112.902344 C 79.484375 113.765625 79.105469 114.597656 79.121094 115.472656 C 79.128906 115.742188 79.167969 116.035156 79.023438 116.265625 C 78.769531 116.683594 78.078125 116.714844 77.65625 116.808594 C 77.253906 116.898438 76.808594 117.015625 76.414062 116.84375 C 75.726562 116.542969 75.582031 115.554688 75.445312 114.90625 C 75.300781 114.222656 75.144531 113.488281 75.238281 112.789062 Z M 75.238281 112.789062 " fill-opacity="1" fill-rule="nonzero"/><g fill="#1c2120" fill-opacity="1"><g transform="translate(121.174384, 151.896758)"><g><path d="M -0.359375 2.347656 C -0.359375 6.894531 0.828125 15.195312 6.894531 15.195312 C 11.367188 15.195312 16.566406 9.636719 18.621094 6.894531 C 19.34375 5.917969 19.957031 4.980469 20.644531 3.96875 L 26.019531 -5.847656 C 26.019531 -6.097656 25.804688 -6.386719 25.480469 -6.386719 C 25.15625 -6.386719 24.722656 -6.136719 24.289062 -5.304688 C 21.652344 -0.289062 18.984375 5.050781 15.050781 9.058594 C 14.582031 9.527344 14.21875 9.746094 13.75 10.175781 L 12.523438 11.261719 C 11.078125 12.378906 8.988281 13.714844 6.929688 13.714844 C 4.621094 13.714844 3.210938 11.945312 2.597656 9.925781 C 0.757812 5.089844 1.695312 -1.40625 2.707031 -6.207031 C 3.898438 -12.019531 6.785156 -20.570312 10.933594 -24.722656 C 12.164062 -25.949219 13.535156 -26.597656 14.726562 -26.597656 C 16.203125 -26.597656 17.359375 -25.515625 17.359375 -23.0625 C 17.359375 -19.164062 15.878906 -15.734375 14.4375 -12.414062 C 14.253906 -11.945312 14.039062 -11.511719 13.859375 -11.007812 C 13.496094 -10.320312 13.425781 -10.105469 14.039062 -9.671875 C 14.761719 -9.816406 14.796875 -10.105469 15.050781 -10.683594 C 16.492188 -13.605469 18.765625 -18.875 18.765625 -22.050781 C 18.765625 -23.890625 18.875 -25.15625 17.757812 -26.742188 C 16.925781 -27.863281 15.84375 -28.332031 14.6875 -28.332031 C 13.136719 -28.332031 11.441406 -27.5 10.105469 -26.453125 C 7.183594 -24.144531 4.910156 -19.667969 3.535156 -16.203125 C 1.589844 -11.261719 -0.359375 -4.476562 -0.359375 2.347656 Z M -0.359375 2.347656 "/></g></g></g><g fill="#1c2120" fill-opacity="1"><g transform="translate(145.74621, 151.896758)"><g><path d="M 0 -3.644531 C 0 -2.347656 0.109375 -1.730469 1.445312 -1.730469 C 2.488281 -1.730469 3.609375 -5.125 4.292969 -5.59375 C 4.292969 -4.042969 5.449219 -2.164062 7.253906 -2.164062 C 7.867188 -2.164062 8.554688 -2.382812 9.273438 -2.886719 L 10.359375 -3.753906 C 12.199219 -5.523438 11.980469 -6.425781 11.441406 -6.425781 C 11.222656 -6.425781 10.972656 -6.316406 10.789062 -6.0625 C 10.285156 -5.523438 10.175781 -5.195312 9.492188 -4.582031 C 8.699219 -3.789062 7.941406 -3.355469 7.253906 -3.355469 C 6.496094 -3.355469 5.847656 -3.933594 5.558594 -5.234375 C 5.234375 -6.605469 5.847656 -8.230469 4.582031 -8.230469 C 4.113281 -8.230469 2.632812 -5.160156 1.914062 -4.042969 L 1.625 -3.609375 C 1.445312 -3.390625 1.550781 -3.535156 1.445312 -3.429688 C 1.445312 -4.621094 1.949219 -5.992188 2.417969 -6.75 C 3.464844 -8.554688 4.1875 -9.058594 4.726562 -9.058594 C 5.414062 -9.058594 5.847656 -8.230469 6.351562 -8.230469 C 7.289062 -8.230469 6.351562 -10.285156 4.65625 -10.285156 C 2.128906 -10.285156 0 -5.703125 0 -3.644531 Z M 0 -3.644531 "/></g></g></g><g fill="#1c2120" fill-opacity="1"><g transform="translate(156.209977, 151.896758)"><g><path d="M 0.503906 -0.144531 C 1.625 -0.144531 1.191406 -1.371094 1.40625 -2.308594 C 1.550781 -3.175781 1.875 -3.898438 2.238281 -4.511719 C 2.816406 -5.449219 2.996094 -5.449219 4.367188 -5.449219 C 4.765625 -5.449219 5.304688 -5.414062 5.773438 -5.414062 C 6.496094 -5.414062 7.074219 -5.484375 7.074219 -5.992188 C 7.074219 -6.460938 5.953125 -6.53125 4.910156 -6.53125 C 4.292969 -6.53125 3.679688 -6.496094 3.355469 -6.496094 C 2.238281 -6.496094 2.019531 -5.808594 1.480469 -5.449219 C 1.480469 -5.917969 1.550781 -5.882812 1.550781 -6.386719 C 1.550781 -6.75 1.550781 -7.183594 1.589844 -7.542969 C 1.695312 -8.554688 1.875 -9.238281 0.902344 -9.238281 C 0.109375 -9.238281 0.0351562 -5.484375 0.0351562 -4.835938 C 0.0703125 -3.933594 0.0351562 -3.03125 0.0703125 -2.164062 C 0.0703125 -1.914062 -0.214844 -0.144531 0.503906 -0.144531 Z M 0.503906 -0.144531 "/></g></g></g><g fill="#1c2120" fill-opacity="1"><g transform="translate(162.091336, 151.896758)"><g><path d="M 1.804688 -0.828125 C 1.011719 -2.488281 2.671875 -5.738281 2.921875 -6.785156 C 4.1875 -5.953125 3.285156 -1.226562 1.804688 -0.828125 Z M 0 -2.058594 C 0 -0.179688 0.792969 0.757812 1.730469 0.757812 C 2.816406 0.757812 4.148438 -0.503906 4.691406 -2.996094 C 5.484375 -6.710938 3.753906 -7.328125 3.574219 -8.011719 C 3.753906 -8.300781 4.078125 -8.515625 4.1875 -8.769531 C 4.292969 -9.058594 4.078125 -9.636719 3.609375 -9.636719 C 1.839844 -9.636719 0 -3.679688 0 -2.058594 Z M 0 -2.058594 "/></g></g></g><g fill="#1c2120" fill-opacity="1"><g transform="translate(168.441765, 151.896758)"><g><path d="M 0.0703125 -2.777344 C 0.0703125 -0.433594 0.144531 4.007812 2.09375 4.007812 C 2.996094 4.007812 3.679688 2.632812 4.078125 2.019531 C 4.871094 0.6875 5.847656 -1.839844 6.605469 -3.390625 C 6.785156 -3.753906 7.902344 -5.847656 7.902344 -6.0625 C 7.902344 -6.242188 7.757812 -6.460938 7.578125 -6.460938 C 7.398438 -6.460938 7.183594 -6.316406 6.964844 -5.882812 C 5.808594 -3.824219 4.765625 -1.300781 3.679688 0.792969 C 3.285156 1.625 2.777344 2.597656 1.984375 3.03125 C 0.359375 -0.0703125 2.382812 -11.296875 3.390625 -14.941406 C 3.5 -15.300781 4.4375 -17.394531 3.25 -17.394531 C 2.308594 -17.394531 1.984375 -15.589844 1.660156 -14.542969 C 0.757812 -11.222656 0.0703125 -6.351562 0.0703125 -2.777344 Z M 0.0703125 -2.777344 "/></g></g></g><g fill="#1c2120" fill-opacity="1"><g transform="translate(174.792194, 151.896758)"><g><path d="M 2.996094 0.144531 C 4.691406 0.144531 6.0625 -1.445312 6.929688 -2.347656 C 7.507812 -2.921875 9.671875 -5.339844 9.671875 -6.027344 C 9.671875 -6.351562 9.5625 -6.460938 9.417969 -6.460938 C 8.734375 -6.460938 6.820312 -3.898438 6.675781 -3.71875 C 6.136719 -3.03125 4.257812 -1.117188 3.105469 -1.117188 C 2.128906 -1.117188 1.730469 -3.25 1.730469 -4.332031 C 1.730469 -8.011719 3.175781 -9.636719 1.515625 -9.636719 C 0.792969 -9.636719 0.433594 -8.011719 0.324219 -7.253906 C -0.0703125 -5.414062 0 -2.921875 0.867188 -1.300781 C 1.261719 -0.613281 2.019531 0.144531 2.996094 0.144531 Z M 1.839844 -14.183594 C 1.839844 -13.390625 2.308594 -13.027344 2.816406 -13.027344 C 3.535156 -13.027344 4.292969 -13.824219 3.609375 -15.15625 C 3.390625 -15.554688 3.140625 -15.699219 2.886719 -15.699219 C 2.347656 -15.699219 1.839844 -15.011719 1.839844 -14.183594 Z M 1.839844 -14.183594 "/></g></g></g><g fill="#1c2120" fill-opacity="1"><g transform="translate(183.018882, 151.896758)"><g><path d="M 1.011719 -1.875 C 2.417969 -1.875 3.863281 -6.496094 5.050781 -7.289062 C 5.378906 -6.605469 4.871094 -5.160156 5.59375 -2.996094 C 5.917969 -2.019531 6.53125 -1.046875 7.652344 -1.046875 C 7.867188 -1.046875 8.085938 -1.082031 8.335938 -1.15625 C 9.167969 -1.371094 10.320312 -2.816406 10.828125 -3.464844 C 11.042969 -3.753906 13.171875 -6.425781 11.765625 -6.425781 C 11.117188 -6.425781 9.203125 -2.128906 7.757812 -2.128906 C 6.425781 -2.128906 6.351562 -5.339844 6.351562 -6.242188 L 6.136719 -8.265625 C 5.953125 -8.660156 5.703125 -8.84375 5.449219 -8.84375 C 4.582031 -8.84375 3.5 -7 3.285156 -6.605469 L 1.550781 -3.96875 C 1.550781 -6.785156 3.898438 -10.175781 2.308594 -10.175781 C 0.9375 -10.175781 -1.300781 -1.875 1.011719 -1.875 Z M 1.011719 -1.875 "/></g></g></g><g fill="#1c2120" fill-opacity="1"><g transform="translate(193.84347, 151.896758)"><g><path d="M 1.660156 -6.53125 C 1.914062 -7.433594 3.105469 -8.84375 4.078125 -9.023438 C 3.96875 -7.867188 2.5625 -7 1.660156 -6.53125 Z M 0.0351562 -5.667969 C 0.0351562 -4.65625 0 -3.753906 0.867188 -2.886719 C 1.480469 -2.273438 2.203125 -2.019531 2.960938 -2.019531 C 5.160156 -2.019531 7.652344 -4.222656 8.988281 -5.558594 C 9.3125 -5.953125 9.3125 -5.992188 9.203125 -6.53125 C 8.121094 -6.53125 8.699219 -6.386719 7.21875 -5.234375 C 6.964844 -5.050781 6.855469 -4.910156 6.570312 -4.691406 C 5.847656 -4.148438 4.332031 -3.105469 3.066406 -3.105469 C 2.632812 -3.105469 2.203125 -3.25 1.875 -3.574219 C 1.261719 -4.1875 1.335938 -4.765625 1.335938 -5.523438 C 2.453125 -5.59375 3.753906 -6.640625 4.332031 -7.289062 C 5.449219 -8.699219 5.449219 -10.140625 3.863281 -10.140625 C 2.128906 -10.140625 0.0351562 -7.46875 0.0351562 -5.667969 Z M 0.0351562 -5.667969 "/></g></g></g><g fill="#1c2120" fill-opacity="1"><g transform="translate(201.673254, 151.896758)"><g><path d="M 9.746094 0.9375 C 9.492188 0.828125 9.058594 0.722656 8.699219 0.613281 C 8.265625 0.503906 7.796875 0.433594 7.507812 0.324219 C 7.652344 0.144531 9.492188 -1.011719 9.886719 -1.046875 C 9.671875 -0.613281 9.746094 0.289062 9.746094 0.9375 Z M 11.875 -4.691406 C 11.875 -5.882812 12.488281 -10.175781 12.667969 -11.65625 C 12.921875 -13.859375 13.207031 -16.203125 13.640625 -18.296875 C 13.859375 -19.378906 14.074219 -20.390625 14.253906 -21.4375 C 14.472656 -22.554688 14.761719 -23.566406 14.941406 -24.6875 C 15.085938 -25.550781 14.90625 -25.515625 15.628906 -25.875 C 17.648438 -26.886719 18.910156 -27.210938 21.222656 -27.210938 C 23.277344 -27.210938 24.972656 -25.515625 24.972656 -23.457031 C 24.972656 -20.03125 23.242188 -17.214844 21.472656 -14.617188 C 19.273438 -11.367188 15.15625 -6.964844 11.875 -4.691406 Z M 1.839844 -7.46875 C 1.839844 -6.640625 1.660156 -4.078125 3.105469 -4.078125 C 4.546875 -4.078125 4.65625 -5.339844 3.863281 -5.339844 C 3.71875 -5.339844 3.535156 -5.234375 3.390625 -5.234375 C 3.175781 -5.234375 2.996094 -5.449219 2.996094 -6.605469 C 2.996094 -11.511719 7.109375 -18.910156 11.042969 -22.519531 C 11.40625 -22.84375 11.65625 -22.988281 11.980469 -23.351562 C 12.269531 -23.601562 12.703125 -23.964844 13.027344 -24.070312 L 12.125 -20.535156 C 11.222656 -15.988281 10.539062 -11.40625 10.140625 -6.75 L 9.996094 -4.582031 C 9.996094 -3.464844 10.214844 -3.390625 9.457031 -2.886719 C 8.914062 -2.5625 8.625 -2.308594 8.121094 -2.019531 C 7.074219 -1.371094 6.28125 -0.867188 5.234375 -0.289062 C 4.367188 0.144531 3.25 0.324219 3.429688 1.15625 C 3.5 1.550781 3.753906 1.660156 4.078125 1.660156 C 4.546875 1.660156 5.125 1.445312 5.484375 1.445312 C 6.894531 1.445312 8.699219 1.839844 9.636719 2.308594 C 9.636719 5.015625 9.382812 9.816406 9.601562 12.164062 C 9.707031 13.207031 9.347656 18.910156 11.152344 18.910156 C 12.234375 18.910156 11.65625 17.503906 11.546875 16.386719 C 11.261719 12.921875 11.40625 8.085938 11.40625 4.4375 C 11.40625 3.824219 11.511719 3.898438 11.511719 3.355469 C 12.269531 3.5 15.15625 5.773438 15.878906 6.351562 C 17.285156 7.507812 27.824219 16.132812 28.621094 16.132812 C 28.945312 16.132812 28.945312 16.058594 29.234375 15.988281 C 29.234375 15.085938 29.160156 15.195312 28.621094 14.796875 C 23.457031 11.117188 18.839844 6.855469 14.003906 3.25 C 13.136719 2.632812 12.34375 2.273438 11.511719 1.660156 C 11.511719 0.757812 11.65625 0.324219 11.65625 -0.578125 C 11.65625 -3.25 11.945312 -2.308594 14.867188 -4.871094 L 18.730469 -8.445312 C 20.570312 -10.503906 21.582031 -11.476562 23.242188 -13.894531 C 24.867188 -16.386719 26.707031 -19.417969 26.707031 -22.917969 C 26.707031 -26.488281 24.359375 -28.691406 20.679688 -28.691406 C 18.152344 -28.691406 15.339844 -27.355469 13.351562 -26.09375 C 11.875 -25.082031 11.765625 -24.792969 10.574219 -23.890625 C 7 -21.148438 1.839844 -12.199219 1.839844 -7.46875 Z M 1.839844 -7.46875 "/></g></g></g><g fill="#1c2120" fill-opacity="1"><g transform="translate(224.116238, 151.896758)"><g><path d="M 14.328125 6.496094 L 14.328125 11.042969 L 13.496094 11.042969 C 11.945312 11.042969 9.382812 10.25 10.285156 8.660156 C 10.753906 7.722656 12.992188 6.785156 14.328125 6.496094 Z M 15.878906 10.828125 L 15.988281 7.542969 C 16.097656 6.351562 15.589844 6.171875 16.746094 5.992188 C 18.371094 5.738281 19.667969 5.59375 20.96875 5.59375 C 21.941406 5.59375 22.953125 5.667969 24.144531 5.847656 C 24.828125 5.953125 25.730469 6.207031 26.417969 6.207031 C 25.625 7.328125 18.261719 10.828125 15.878906 10.828125 Z M 27.898438 5.269531 C 27.285156 5.269531 26.921875 5.160156 26.417969 5.050781 C 24.289062 4.691406 22.519531 4.476562 20.605469 4.476562 C 19.523438 4.476562 18.40625 4.546875 17.144531 4.726562 C 16.671875 4.800781 16.386719 4.871094 16.203125 4.871094 C 15.664062 4.871094 16.277344 4.148438 16.242188 0.214844 L 16.746094 -7.328125 C 17.070312 -9.707031 17.214844 -11.910156 17.648438 -14.542969 C 18.117188 -17.539062 18.585938 -19.707031 19.128906 -22.59375 C 19.378906 -23.925781 19.488281 -23.785156 21.761719 -24.792969 L 25.371094 -26.058594 C 27.320312 -26.632812 29.523438 -27.066406 31.722656 -27.066406 C 33.3125 -27.066406 34.933594 -26.851562 36.414062 -26.203125 C 43.992188 -23.0625 42.007812 -12.378906 38.722656 -6.675781 C 37.929688 -5.339844 36.992188 -3.789062 36.019531 -2.527344 C 35.800781 -2.273438 35.691406 -2.164062 35.511719 -1.914062 C 34.898438 -1.117188 32.445312 1.625 31.722656 2.203125 C 31.433594 2.417969 31.363281 2.453125 31.074219 2.707031 L 29.269531 4.257812 C 29.125 4.367188 27.898438 5.269531 27.898438 5.269531 Z M 19.847656 -25.515625 C 19.847656 -26.128906 19.742188 -26.019531 19.273438 -26.273438 C 18.40625 -26.058594 18.371094 -25.371094 18.046875 -24.6875 C 17.863281 -24.179688 17.144531 -23.890625 16.421875 -23.496094 C 14.363281 -22.230469 12.488281 -20.714844 10.683594 -19.128906 C 7.722656 -16.167969 5.808594 -14.183594 3.429688 -10.609375 C 1.769531 -8.15625 -0.722656 -3.5 -0.722656 -0.214844 C -0.722656 1.730469 0.578125 2.488281 1.371094 2.488281 C 1.769531 2.488281 2.019531 2.308594 1.949219 1.984375 C 1.769531 1.15625 0.398438 2.128906 0.398438 -0.214844 C 0.398438 -4.511719 5.125 -11.296875 8.085938 -14.6875 L 10.464844 -17.214844 C 11.945312 -18.695312 15.808594 -21.691406 17.46875 -22.519531 L 16.167969 -16.167969 C 15.734375 -13.496094 14.761719 -5.050781 14.796875 -2.203125 C 14.796875 -1.046875 14.542969 0.324219 14.542969 1.480469 C 14.542969 2.742188 14.4375 3.824219 14.4375 5.160156 C 13.027344 5.882812 8.914062 6.316406 8.914062 9.457031 C 8.914062 11.332031 11.585938 12.308594 13.207031 12.308594 C 13.535156 12.308594 13.75 12.269531 13.929688 12.269531 C 14.21875 12.269531 14.292969 12.449219 14.398438 13.351562 C 14.4375 13.929688 14.4375 14.253906 14.582031 14.761719 C 14.796875 15.375 15.121094 15.589844 15.410156 15.589844 C 15.734375 15.589844 16.023438 15.339844 15.988281 15.085938 L 15.84375 12.199219 C 16.78125 12.164062 18.695312 11.621094 19.453125 11.332031 C 21.761719 10.609375 24.972656 8.988281 26.996094 7.652344 C 27.789062 7.109375 28.078125 6.785156 28.582031 6.785156 C 28.90625 6.785156 29.269531 6.929688 29.917969 7.253906 C 30.605469 7.613281 30.460938 7.902344 30.964844 8.230469 C 32.121094 7.433594 30.820312 6.242188 29.703125 5.992188 C 29.847656 5.523438 30.242188 5.304688 30.855469 4.871094 C 31.289062 4.511719 31.6875 4.1875 32.121094 3.824219 C 32.660156 3.390625 34.429688 1.660156 34.972656 0.972656 L 36.054688 -0.214844 C 39.300781 -4.042969 41.574219 -7.941406 42.765625 -13.027344 C 43.742188 -17.285156 43.417969 -22.195312 40.167969 -25.445312 C 37.929688 -27.71875 34.828125 -28.546875 31.6875 -28.546875 C 29.523438 -28.546875 27.355469 -28.148438 25.371094 -27.574219 L 21.257812 -26.019531 C 20.789062 -25.839844 20.390625 -25.515625 19.847656 -25.515625 Z M 19.847656 -25.515625 "/></g></g></g><g fill="#1c2120" fill-opacity="1"><g transform="translate(121.795143, 184.737695)"><g><path d="M 1.457031 -5.03125 L 5.292969 0.421875 L 5.292969 -6.832031 L 4.589844 -6.832031 L 4.589844 -1.808594 L 0.753906 -7.261719 L 0.753906 0 L 1.457031 0 Z M 1.457031 -5.03125 "/></g></g></g><g fill="#1c2120" fill-opacity="1"><g transform="translate(133.236224, 184.737695)"><g><path d="M 5.695312 -2.261719 L 5.695312 -6.832031 L 4.992188 -6.832031 L 4.992188 -2.160156 C 4.992188 -1.878906 4.941406 -1.648438 4.839844 -1.457031 C 4.550781 -0.894531 3.988281 -0.613281 3.152344 -0.613281 C 2.613281 -0.613281 2.179688 -0.734375 1.859375 -0.972656 C 1.488281 -1.246094 1.304688 -1.636719 1.304688 -2.160156 L 1.304688 -6.832031 L 0.601562 -6.832031 L 0.601562 -2.261719 C 0.601562 -1.515625 0.84375 -0.933594 1.324219 -0.511719 C 1.777344 -0.109375 2.390625 0.0898438 3.152344 0.0898438 C 3.90625 0.0898438 4.511719 -0.109375 4.972656 -0.511719 C 5.453125 -0.933594 5.695312 -1.515625 5.695312 -2.261719 Z M 5.695312 -2.261719 "/></g></g></g><g fill="#1c2120" fill-opacity="1"><g transform="translate(144.928419, 184.737695)"><g><path d="M 0.199219 -6.199219 L 1.859375 -6.199219 L 1.859375 -0.0195312 L 2.5625 -0.0195312 L 2.5625 -6.199219 L 4.21875 -6.199219 L 4.21875 -6.851562 L 0.199219 -6.851562 Z M 0.199219 -6.199219 "/></g></g></g><g fill="#1c2120" fill-opacity="1"><g transform="translate(154.742243, 184.737695)"><g><path d="M 1.457031 -3.375 L 1.457031 -6.15625 L 3.042969 -6.15625 C 3.457031 -6.15625 3.785156 -6.027344 4.039062 -5.765625 C 4.277344 -5.503906 4.410156 -5.183594 4.410156 -4.78125 C 4.410156 -4.378906 4.277344 -4.046875 4.019531 -3.777344 C 3.757812 -3.503906 3.433594 -3.375 3.042969 -3.375 Z M 5.113281 -4.769531 C 5.113281 -5.355469 4.890625 -5.855469 4.46875 -6.246094 C 4.058594 -6.628906 3.546875 -6.832031 2.941406 -6.832031 L 0.753906 -6.832031 L 0.753906 0 L 1.457031 0 L 1.457031 -2.703125 L 2.269531 -2.703125 L 4.277344 0 L 5.222656 0 L 3.113281 -2.703125 C 3.644531 -2.730469 4.097656 -2.921875 4.46875 -3.273438 C 4.890625 -3.667969 5.113281 -4.167969 5.113281 -4.769531 Z M 5.113281 -4.769531 "/></g></g></g><g fill="#1c2120" fill-opacity="1"><g transform="translate(165.600734, 184.737695)"><g><path d="M 1.457031 0 L 1.457031 -6.832031 L 0.753906 -6.832031 L 0.753906 0 Z M 1.457031 0 "/></g></g></g><g fill="#1c2120" fill-opacity="1"><g transform="translate(173.204713, 184.737695)"><g><path d="M 0.199219 -6.199219 L 1.859375 -6.199219 L 1.859375 -0.0195312 L 2.5625 -0.0195312 L 2.5625 -6.199219 L 4.21875 -6.199219 L 4.21875 -6.851562 L 0.199219 -6.851562 Z M 0.199219 -6.199219 "/></g></g></g><g fill="#1c2120" fill-opacity="1"><g transform="translate(183.018539, 184.737695)"><g><path d="M 1.457031 0 L 1.457031 -6.832031 L 0.753906 -6.832031 L 0.753906 0 Z M 1.457031 0 "/></g></g></g><g fill="#1c2120" fill-opacity="1"><g transform="translate(190.622518, 184.737695)"><g><path d="M 6.769531 -3.433594 C 6.769531 -2.652344 6.488281 -1.988281 5.945312 -1.445312 C 5.394531 -0.894531 4.730469 -0.621094 3.957031 -0.621094 C 3.183594 -0.621094 2.519531 -0.894531 1.980469 -1.445312 C 1.425781 -1.988281 1.15625 -2.652344 1.15625 -3.433594 C 1.15625 -4.199219 1.425781 -4.863281 1.980469 -5.414062 C 2.519531 -5.957031 3.183594 -6.238281 3.957031 -6.238281 C 4.730469 -6.238281 5.394531 -5.957031 5.945312 -5.414062 C 6.488281 -4.863281 6.769531 -4.199219 6.769531 -3.433594 Z M 7.472656 -3.433594 C 7.472656 -3.917969 7.371094 -4.371094 7.191406 -4.800781 C 7.011719 -5.222656 6.761719 -5.59375 6.4375 -5.917969 C 6.117188 -6.226562 5.746094 -6.480469 5.324219 -6.660156 C 4.890625 -6.839844 4.441406 -6.941406 3.957031 -6.941406 C 3.476562 -6.941406 3.011719 -6.839844 2.589844 -6.660156 C 2.167969 -6.480469 1.796875 -6.226562 1.476562 -5.917969 C 1.15625 -5.59375 0.902344 -5.222656 0.722656 -4.800781 C 0.542969 -4.371094 0.453125 -3.917969 0.453125 -3.433594 C 0.453125 -2.953125 0.542969 -2.492188 0.722656 -2.070312 C 0.902344 -1.636719 1.15625 -1.265625 1.476562 -0.945312 C 1.796875 -0.621094 2.167969 -0.371094 2.589844 -0.191406 C 3.011719 -0.0117188 3.476562 0.0820312 3.957031 0.0820312 C 4.441406 0.0820312 4.890625 -0.0117188 5.324219 -0.191406 C 5.746094 -0.371094 6.117188 -0.621094 6.4375 -0.945312 C 6.761719 -1.265625 7.011719 -1.636719 7.191406 -2.070312 C 7.371094 -2.492188 7.472656 -2.953125 7.472656 -3.433594 Z M 7.472656 -3.433594 "/></g></g></g><g fill="#1c2120" fill-opacity="1"><g transform="translate(203.941966, 184.737695)"><g><path d="M 1.457031 -5.03125 L 5.292969 0.421875 L 5.292969 -6.832031 L 4.589844 -6.832031 L 4.589844 -1.808594 L 0.753906 -7.261719 L 0.753906 0 L 1.457031 0 Z M 1.457031 -5.03125 "/></g></g></g><g fill="#1c2120" fill-opacity="1"><g transform="translate(215.383048, 184.737695)"><g/></g></g><g fill="#1c2120" fill-opacity="1"><g transform="translate(223.489266, 184.737695)"><g><path d="M 0.199219 -6.199219 L 1.859375 -6.199219 L 1.859375 -0.0195312 L 2.5625 -0.0195312 L 2.5625 -6.199219 L 4.21875 -6.199219 L 4.21875 -6.851562 L 0.199219 -6.851562 Z M 0.199219 -6.199219 "/></g></g></g><g fill="#1c2120" fill-opacity="1"><g transform="translate(233.303093, 184.737695)"><g><path d="M 1.457031 0 L 1.457031 -3.054688 L 4.558594 -3.054688 L 4.558594 0 L 5.261719 0 L 5.261719 -6.832031 L 4.558594 -6.832031 L 4.558594 -3.757812 L 1.457031 -3.757812 L 1.457031 -6.832031 L 0.753906 -6.832031 L 0.753906 0 Z M 1.457031 0 "/></g></g></g><g fill="#1c2120" fill-opacity="1"><g transform="translate(244.714038, 184.737695)"><g><path d="M 4.8125 0 L 4.8125 -0.652344 L 1.457031 -0.652344 L 1.457031 -3.082031 L 4.710938 -3.082031 L 4.710938 -3.746094 L 1.457031 -3.746094 L 1.457031 -6.175781 L 4.8125 -6.175781 L 4.8125 -6.832031 L 0.753906 -6.832031 L 0.753906 0 Z M 4.8125 0 "/></g></g></g><g fill="#1c2120" fill-opacity="1"><g transform="translate(255.672969, 184.737695)"><g><path d="M 1.457031 -3.375 L 1.457031 -6.15625 L 3.042969 -6.15625 C 3.457031 -6.15625 3.785156 -6.027344 4.039062 -5.765625 C 4.277344 -5.503906 4.410156 -5.183594 4.410156 -4.78125 C 4.410156 -4.378906 4.277344 -4.046875 4.019531 -3.777344 C 3.757812 -3.503906 3.433594 -3.375 3.042969 -3.375 Z M 5.113281 -4.769531 C 5.113281 -5.355469 4.890625 -5.855469 4.46875 -6.246094 C 4.058594 -6.628906 3.546875 -6.832031 2.941406 -6.832031 L 0.753906 -6.832031 L 0.753906 0 L 1.457031 0 L 1.457031 -2.703125 L 2.269531 -2.703125 L 4.277344 0 L 5.222656 0 L 3.113281 -2.703125 C 3.644531 -2.730469 4.097656 -2.921875 4.46875 -3.273438 C 4.890625 -3.667969 5.113281 -4.167969 5.113281 -4.769531 Z M 5.113281 -4.769531 "/></g></g></g><g fill="#1c2120" fill-opacity="1"><g transform="translate(266.531459, 184.737695)"><g><path d="M 1.859375 -2.511719 L 3.105469 -5.65625 L 4.339844 -2.511719 Z M 6.097656 0 L 3.105469 -7.300781 L 0.101562 0 L 0.863281 0 L 1.597656 -1.859375 L 4.601562 -1.859375 L 5.332031 0 Z M 6.097656 0 "/></g></g></g><g fill="#1c2120" fill-opacity="1"><g transform="translate(278.123216, 184.737695)"><g><path d="M 1.457031 -3.386719 L 1.457031 -6.15625 L 3.042969 -6.15625 C 3.457031 -6.15625 3.785156 -6.027344 4.039062 -5.777344 C 4.277344 -5.515625 4.410156 -5.191406 4.410156 -4.792969 C 4.410156 -4.378906 4.277344 -4.046875 4.019531 -3.777344 C 3.757812 -3.515625 3.433594 -3.386719 3.042969 -3.386719 Z M 5.113281 -4.769531 C 5.113281 -5.375 4.890625 -5.867188 4.46875 -6.257812 C 4.046875 -6.640625 3.546875 -6.832031 2.941406 -6.832031 L 0.753906 -6.832031 L 0.753906 0 L 1.457031 0 L 1.457031 -2.703125 L 2.941406 -2.703125 C 3.546875 -2.703125 4.058594 -2.894531 4.46875 -3.273438 C 4.890625 -3.675781 5.113281 -4.167969 5.113281 -4.769531 Z M 5.113281 -4.769531 "/></g></g></g><g fill="#1c2120" fill-opacity="1"><g transform="translate(288.831032, 184.737695)"><g><path d="M 3.394531 -3.214844 L 5.976562 -6.832031 L 5.082031 -6.832031 L 3.042969 -3.90625 L 1.003906 -6.832031 L 0.101562 -6.832031 L 2.691406 -3.203125 L 2.691406 0 L 3.394531 0 Z M 3.394531 -3.214844 "/></g></g></g></svg>