<svg xmlns="http://www.w3.org/2000/svg" xmlns:xlink="http://www.w3.org/1999/xlink" width="300" zoomAndPan="magnify" viewBox="0 0 224.87999 74.999997" height="100" preserveAspectRatio="xMidYMid meet" version="1.0"><defs><g/><clipPath id="17dd1b64c3"><path d="M 85.601562 25 L 97.59375 25 L 97.59375 37.808594 L 85.601562 37.808594 Z M 85.601562 25 " clip-rule="nonzero"/></clipPath><clipPath id="703fdb35b2"><path d="M 91 36 L 92 36 L 92 37.808594 L 91 37.808594 Z M 91 36 " clip-rule="nonzero"/></clipPath><clipPath id="9c8af2872c"><path d="M 90 21.316406 L 95 21.316406 L 95 26 L 90 26 Z M 90 21.316406 " clip-rule="nonzero"/></clipPath><clipPath id="581005957a"><path d="M 85.601562 23 L 91 23 L 91 26 L 85.601562 26 Z M 85.601562 23 " clip-rule="nonzero"/></clipPath></defs><g clip-path="url(#17dd1b64c3)"><path fill="#f28c45" d="M 88.488281 26.269531 C 87.871094 26.691406 87.375 27.273438 86.925781 27.882812 C 86.519531 28.429688 86.140625 29.015625 85.960938 29.679688 C 85.730469 30.511719 85.824219 31.394531 85.917969 32.253906 C 85.984375 32.835938 86.050781 33.429688 86.265625 33.972656 C 86.511719 34.601562 86.941406 35.136719 87.375 35.648438 C 87.992188 36.367188 88.667969 37.082031 89.535156 37.417969 C 90.035156 37.609375 90.570312 37.667969 91.101562 37.710938 C 91.90625 37.777344 92.734375 37.808594 93.515625 37.597656 C 94.28125 37.390625 94.984375 36.957031 95.5625 36.402344 C 96.550781 35.453125 97.195312 34.136719 97.390625 32.757812 C 97.582031 31.378906 97.328125 29.9375 96.703125 28.703125 C 96.136719 27.578125 95.253906 26.613281 94.164062 26.03125 C 93.261719 25.550781 92.207031 25.332031 91.199219 25.480469 C 90.296875 25.609375 89.265625 25.742188 88.488281 26.269531 Z M 88.488281 26.269531 " fill-opacity="1" fill-rule="nonzero"/></g><path fill="#fde2d2" d="M 88.972656 27.785156 C 88.960938 27.785156 88.953125 27.785156 88.941406 27.785156 C 88.929688 27.785156 88.917969 27.785156 88.910156 27.792969 C 88.898438 27.796875 88.886719 27.800781 88.878906 27.8125 C 88.871094 27.820312 88.863281 27.828125 88.863281 27.839844 C 88.855469 27.851562 88.851562 27.863281 88.855469 27.875 C 88.855469 27.886719 88.855469 27.894531 88.855469 27.902344 C 88.859375 27.917969 88.867188 27.929688 88.878906 27.941406 C 88.886719 27.949219 88.890625 27.953125 88.898438 27.957031 C 88.910156 27.964844 88.925781 27.96875 88.941406 27.96875 C 88.953125 27.96875 88.960938 27.96875 88.972656 27.96875 C 88.984375 27.96875 88.996094 27.96875 89.007812 27.960938 C 89.019531 27.957031 89.027344 27.953125 89.035156 27.941406 C 89.042969 27.933594 89.050781 27.925781 89.054688 27.914062 C 89.058594 27.902344 89.0625 27.890625 89.0625 27.875 C 89.0625 27.867188 89.058594 27.859375 89.058594 27.851562 C 89.054688 27.835938 89.046875 27.824219 89.035156 27.8125 C 89.03125 27.804688 89.023438 27.800781 89.015625 27.796875 C 89.003906 27.789062 88.988281 27.785156 88.972656 27.785156 Z M 88.972656 27.785156 " fill-opacity="1" fill-rule="nonzero"/><path fill="#fde2d2" d="M 88.167969 29.976562 C 88.179688 29.96875 88.1875 29.957031 88.199219 29.945312 C 88.207031 29.9375 88.210938 29.929688 88.214844 29.917969 C 88.222656 29.90625 88.222656 29.894531 88.222656 29.882812 C 88.222656 29.867188 88.222656 29.855469 88.214844 29.847656 C 88.210938 29.835938 88.207031 29.824219 88.199219 29.816406 C 88.191406 29.8125 88.183594 29.804688 88.179688 29.800781 C 88.164062 29.792969 88.152344 29.789062 88.132812 29.789062 C 88.125 29.789062 88.117188 29.792969 88.109375 29.792969 C 88.09375 29.796875 88.082031 29.804688 88.070312 29.816406 C 88.0625 29.824219 88.050781 29.835938 88.042969 29.847656 C 88.035156 29.855469 88.027344 29.863281 88.023438 29.875 C 88.019531 29.886719 88.015625 29.898438 88.015625 29.910156 C 88.015625 29.925781 88.019531 29.9375 88.023438 29.945312 C 88.027344 29.957031 88.035156 29.96875 88.042969 29.976562 C 88.046875 29.980469 88.054688 29.988281 88.058594 29.992188 C 88.074219 30 88.089844 30.003906 88.105469 30.003906 C 88.113281 30.003906 88.121094 30.003906 88.128906 30 C 88.144531 29.996094 88.15625 29.988281 88.167969 29.976562 Z M 88.167969 29.976562 " fill-opacity="1" fill-rule="nonzero"/><path fill="#fde2d2" d="M 89.347656 30.421875 C 89.464844 30.421875 89.464844 30.238281 89.347656 30.238281 C 89.234375 30.238281 89.234375 30.421875 89.347656 30.421875 Z M 89.347656 30.421875 " fill-opacity="1" fill-rule="nonzero"/><path fill="#fde2d2" d="M 88.652344 31.828125 C 88.652344 31.835938 88.652344 31.847656 88.652344 31.855469 C 88.652344 31.867188 88.652344 31.882812 88.660156 31.890625 C 88.664062 31.902344 88.667969 31.914062 88.679688 31.921875 C 88.6875 31.929688 88.695312 31.9375 88.707031 31.941406 C 88.71875 31.945312 88.730469 31.949219 88.742188 31.949219 C 88.75 31.949219 88.757812 31.945312 88.765625 31.945312 C 88.78125 31.941406 88.792969 31.933594 88.804688 31.921875 C 88.808594 31.914062 88.8125 31.910156 88.820312 31.902344 C 88.828125 31.886719 88.832031 31.871094 88.832031 31.855469 C 88.832031 31.847656 88.832031 31.835938 88.832031 31.828125 C 88.832031 31.8125 88.828125 31.800781 88.824219 31.789062 C 88.820312 31.777344 88.8125 31.769531 88.804688 31.761719 C 88.796875 31.75 88.785156 31.746094 88.777344 31.742188 C 88.765625 31.734375 88.753906 31.734375 88.742188 31.734375 C 88.734375 31.734375 88.726562 31.734375 88.71875 31.738281 C 88.703125 31.742188 88.6875 31.75 88.679688 31.761719 C 88.671875 31.765625 88.667969 31.773438 88.664062 31.78125 C 88.65625 31.792969 88.652344 31.808594 88.652344 31.828125 Z M 88.652344 31.828125 " fill-opacity="1" fill-rule="nonzero"/><path fill="#fde2d2" d="M 87.5 32.367188 C 87.613281 32.367188 87.613281 32.183594 87.5 32.183594 C 87.382812 32.183594 87.382812 32.367188 87.5 32.367188 Z M 87.5 32.367188 " fill-opacity="1" fill-rule="nonzero"/><path fill="#fde2d2" d="M 87.066406 29.675781 C 87.074219 29.675781 87.085938 29.675781 87.09375 29.675781 C 87.105469 29.675781 87.117188 29.671875 87.128906 29.667969 C 87.140625 29.664062 87.148438 29.65625 87.15625 29.648438 C 87.167969 29.640625 87.171875 29.628906 87.175781 29.617188 C 87.179688 29.605469 87.183594 29.59375 87.183594 29.582031 C 87.183594 29.574219 87.179688 29.566406 87.179688 29.558594 C 87.175781 29.542969 87.167969 29.527344 87.15625 29.515625 C 87.152344 29.511719 87.144531 29.507812 87.140625 29.503906 C 87.125 29.492188 87.109375 29.488281 87.09375 29.488281 C 87.085938 29.488281 87.074219 29.488281 87.066406 29.488281 C 87.054688 29.488281 87.042969 29.492188 87.03125 29.496094 C 87.019531 29.5 87.011719 29.507812 87 29.515625 C 86.992188 29.523438 86.988281 29.535156 86.984375 29.546875 C 86.976562 29.558594 86.976562 29.570312 86.976562 29.582031 C 86.976562 29.589844 86.976562 29.597656 86.980469 29.605469 C 86.984375 29.621094 86.992188 29.636719 87 29.648438 C 87.007812 29.652344 87.015625 29.65625 87.019531 29.664062 C 87.035156 29.671875 87.050781 29.675781 87.066406 29.675781 Z M 87.066406 29.675781 " fill-opacity="1" fill-rule="nonzero"/><path fill="#fde2d2" d="M 87.816406 31.109375 C 87.933594 31.109375 87.933594 30.925781 87.816406 30.925781 C 87.703125 30.925781 87.699219 31.109375 87.816406 31.109375 Z M 87.816406 31.109375 " fill-opacity="1" fill-rule="nonzero"/><path fill="#fde2d2" d="M 86.925781 30.90625 C 86.9375 30.894531 86.945312 30.882812 86.957031 30.875 C 86.964844 30.867188 86.96875 30.855469 86.972656 30.84375 C 86.980469 30.832031 86.980469 30.820312 86.980469 30.808594 C 86.980469 30.796875 86.980469 30.785156 86.972656 30.773438 C 86.96875 30.761719 86.964844 30.75 86.957031 30.742188 C 86.949219 30.738281 86.941406 30.734375 86.9375 30.730469 C 86.921875 30.71875 86.90625 30.714844 86.890625 30.714844 C 86.882812 30.71875 86.875 30.71875 86.867188 30.71875 C 86.851562 30.722656 86.839844 30.730469 86.828125 30.742188 C 86.820312 30.753906 86.808594 30.761719 86.800781 30.773438 C 86.789062 30.78125 86.785156 30.792969 86.78125 30.804688 C 86.773438 30.8125 86.773438 30.824219 86.773438 30.839844 C 86.773438 30.851562 86.773438 30.863281 86.78125 30.875 C 86.785156 30.886719 86.789062 30.894531 86.800781 30.90625 C 86.804688 30.910156 86.8125 30.914062 86.816406 30.917969 C 86.832031 30.925781 86.847656 30.929688 86.863281 30.933594 C 86.871094 30.929688 86.878906 30.929688 86.886719 30.929688 C 86.902344 30.925781 86.914062 30.917969 86.925781 30.90625 Z M 86.925781 30.90625 " fill-opacity="1" fill-rule="nonzero"/><path fill="#fde2d2" d="M 89.230469 29.285156 C 89.347656 29.285156 89.347656 29.101562 89.230469 29.101562 C 89.117188 29.101562 89.117188 29.285156 89.230469 29.285156 Z M 89.230469 29.285156 " fill-opacity="1" fill-rule="nonzero"/><path fill="#fde2d2" d="M 87.875 28.65625 C 87.882812 28.65625 87.894531 28.65625 87.902344 28.65625 C 87.914062 28.660156 87.925781 28.65625 87.9375 28.648438 C 87.949219 28.644531 87.957031 28.640625 87.964844 28.628906 C 87.976562 28.621094 87.980469 28.613281 87.984375 28.601562 C 87.992188 28.589844 87.992188 28.578125 87.992188 28.566406 C 87.992188 28.558594 87.992188 28.546875 87.988281 28.539062 C 87.984375 28.523438 87.976562 28.511719 87.964844 28.5 C 87.960938 28.496094 87.953125 28.488281 87.949219 28.484375 C 87.933594 28.476562 87.917969 28.472656 87.902344 28.472656 C 87.894531 28.472656 87.882812 28.472656 87.875 28.472656 C 87.863281 28.472656 87.851562 28.472656 87.839844 28.480469 C 87.828125 28.484375 87.820312 28.492188 87.8125 28.5 C 87.800781 28.507812 87.796875 28.519531 87.792969 28.53125 C 87.785156 28.539062 87.785156 28.550781 87.785156 28.566406 C 87.785156 28.574219 87.785156 28.582031 87.789062 28.589844 C 87.792969 28.605469 87.800781 28.617188 87.8125 28.628906 C 87.816406 28.636719 87.824219 28.640625 87.828125 28.644531 C 87.84375 28.652344 87.859375 28.65625 87.875 28.65625 Z M 87.875 28.65625 " fill-opacity="1" fill-rule="nonzero"/><path fill="#fde2d2" d="M 90.300781 28.449219 C 90.417969 28.449219 90.417969 28.261719 90.300781 28.261719 C 90.1875 28.261719 90.1875 28.449219 90.300781 28.449219 Z M 90.300781 28.449219 " fill-opacity="1" fill-rule="nonzero"/><path fill="#fde2d2" d="M 94.75 31.738281 C 94.867188 31.738281 94.867188 31.554688 94.75 31.554688 C 94.636719 31.554688 94.636719 31.738281 94.75 31.738281 Z M 94.75 31.738281 " fill-opacity="1" fill-rule="nonzero"/><path fill="#fde2d2" d="M 93.421875 33.355469 C 93.429688 33.355469 93.441406 33.355469 93.449219 33.355469 C 93.464844 33.355469 93.476562 33.351562 93.484375 33.347656 C 93.496094 33.34375 93.507812 33.335938 93.515625 33.328125 C 93.523438 33.320312 93.527344 33.308594 93.53125 33.296875 C 93.539062 33.289062 93.539062 33.273438 93.539062 33.261719 C 93.539062 33.253906 93.539062 33.246094 93.539062 33.238281 C 93.53125 33.222656 93.523438 33.207031 93.515625 33.195312 C 93.507812 33.191406 93.503906 33.1875 93.496094 33.183594 C 93.480469 33.175781 93.46875 33.167969 93.449219 33.167969 C 93.441406 33.167969 93.433594 33.167969 93.421875 33.167969 C 93.410156 33.167969 93.398438 33.171875 93.386719 33.175781 C 93.375 33.179688 93.367188 33.1875 93.359375 33.195312 C 93.351562 33.207031 93.34375 33.214844 93.339844 33.226562 C 93.335938 33.238281 93.332031 33.25 93.332031 33.261719 C 93.332031 33.269531 93.335938 33.277344 93.335938 33.289062 C 93.339844 33.304688 93.347656 33.316406 93.359375 33.328125 C 93.363281 33.332031 93.371094 33.335938 93.375 33.34375 C 93.390625 33.351562 93.40625 33.355469 93.421875 33.355469 Z M 93.421875 33.355469 " fill-opacity="1" fill-rule="nonzero"/><path fill="#fde2d2" d="M 94.925781 35.480469 C 94.933594 35.480469 94.945312 35.480469 94.953125 35.480469 C 94.964844 35.480469 94.976562 35.476562 94.988281 35.472656 C 95 35.46875 95.007812 35.460938 95.015625 35.453125 C 95.027344 35.445312 95.03125 35.433594 95.035156 35.421875 C 95.039062 35.410156 95.042969 35.398438 95.042969 35.386719 C 95.042969 35.378906 95.039062 35.371094 95.039062 35.363281 C 95.035156 35.347656 95.027344 35.332031 95.015625 35.320312 C 95.011719 35.316406 95.003906 35.3125 95 35.308594 C 94.984375 35.296875 94.96875 35.292969 94.953125 35.292969 C 94.945312 35.292969 94.933594 35.292969 94.925781 35.292969 C 94.914062 35.292969 94.902344 35.296875 94.890625 35.300781 C 94.878906 35.304688 94.871094 35.3125 94.859375 35.320312 C 94.851562 35.328125 94.847656 35.339844 94.84375 35.351562 C 94.835938 35.363281 94.835938 35.375 94.835938 35.386719 C 94.835938 35.394531 94.835938 35.402344 94.839844 35.410156 C 94.84375 35.425781 94.851562 35.441406 94.859375 35.453125 C 94.867188 35.457031 94.875 35.460938 94.878906 35.46875 C 94.894531 35.476562 94.910156 35.480469 94.925781 35.480469 Z M 94.925781 35.480469 " fill-opacity="1" fill-rule="nonzero"/><path fill="#fde2d2" d="M 92.621094 36.410156 C 92.628906 36.40625 92.636719 36.402344 92.644531 36.402344 C 92.640625 36.402344 92.640625 36.402344 92.640625 36.402344 C 92.648438 36.398438 92.65625 36.398438 92.664062 36.398438 C 92.671875 36.398438 92.679688 36.398438 92.6875 36.402344 C 92.691406 36.402344 92.699219 36.40625 92.707031 36.410156 C 92.710938 36.414062 92.71875 36.417969 92.722656 36.425781 C 92.722656 36.425781 92.722656 36.421875 92.722656 36.421875 C 92.726562 36.429688 92.730469 36.433594 92.738281 36.441406 C 92.738281 36.441406 92.734375 36.441406 92.734375 36.441406 C 92.738281 36.445312 92.742188 36.453125 92.746094 36.460938 C 92.746094 36.460938 92.742188 36.457031 92.742188 36.457031 C 92.746094 36.464844 92.746094 36.472656 92.746094 36.480469 C 92.746094 36.480469 92.746094 36.476562 92.746094 36.476562 C 92.746094 36.484375 92.746094 36.492188 92.742188 36.5 C 92.742188 36.5 92.746094 36.496094 92.746094 36.496094 C 92.742188 36.503906 92.738281 36.511719 92.734375 36.519531 C 92.734375 36.515625 92.738281 36.515625 92.738281 36.515625 C 92.730469 36.523438 92.726562 36.527344 92.722656 36.535156 C 92.722656 36.535156 92.722656 36.535156 92.722656 36.53125 C 92.71875 36.539062 92.710938 36.542969 92.707031 36.546875 C 92.699219 36.550781 92.691406 36.554688 92.6875 36.554688 C 92.679688 36.558594 92.671875 36.558594 92.664062 36.558594 C 92.65625 36.558594 92.648438 36.558594 92.640625 36.554688 C 92.640625 36.554688 92.640625 36.554688 92.644531 36.554688 C 92.636719 36.554688 92.628906 36.550781 92.621094 36.546875 C 92.621094 36.546875 92.621094 36.546875 92.625 36.546875 C 92.632812 36.554688 92.644531 36.558594 92.65625 36.558594 C 92.667969 36.5625 92.679688 36.5625 92.691406 36.558594 C 92.703125 36.554688 92.714844 36.550781 92.722656 36.539062 C 92.730469 36.535156 92.738281 36.527344 92.746094 36.515625 C 92.75 36.507812 92.75 36.5 92.753906 36.492188 C 92.757812 36.476562 92.757812 36.460938 92.753906 36.441406 C 92.75 36.4375 92.75 36.429688 92.746094 36.421875 C 92.738281 36.40625 92.726562 36.394531 92.714844 36.386719 C 92.714844 36.386719 92.710938 36.386719 92.710938 36.386719 C 92.707031 36.386719 92.699219 36.382812 92.699219 36.382812 C 92.703125 36.382812 92.695312 36.378906 92.691406 36.378906 C 92.691406 36.378906 92.6875 36.378906 92.6875 36.378906 C 92.6875 36.375 92.6875 36.375 92.6875 36.375 C 92.6875 36.375 92.664062 36.375 92.664062 36.375 C 92.664062 36.375 92.640625 36.375 92.640625 36.375 C 92.636719 36.378906 92.636719 36.378906 92.636719 36.378906 C 92.636719 36.378906 92.617188 36.386719 92.617188 36.386719 C 92.601562 36.398438 92.589844 36.40625 92.582031 36.421875 C 92.578125 36.429688 92.574219 36.4375 92.570312 36.445312 C 92.570312 36.449219 92.570312 36.449219 92.570312 36.449219 C 92.570312 36.457031 92.566406 36.46875 92.566406 36.476562 C 92.566406 36.480469 92.566406 36.480469 92.566406 36.480469 C 92.566406 36.484375 92.570312 36.492188 92.570312 36.496094 C 92.570312 36.496094 92.570312 36.503906 92.570312 36.507812 C 92.570312 36.507812 92.570312 36.511719 92.570312 36.511719 C 92.574219 36.515625 92.578125 36.53125 92.582031 36.53125 C 92.582031 36.53125 92.582031 36.535156 92.582031 36.535156 C 92.582031 36.535156 92.59375 36.554688 92.597656 36.554688 C 92.601562 36.5625 92.609375 36.566406 92.617188 36.570312 C 92.617188 36.570312 92.636719 36.578125 92.636719 36.578125 C 92.636719 36.578125 92.636719 36.578125 92.640625 36.582031 C 92.640625 36.582031 92.664062 36.582031 92.664062 36.582031 C 92.664062 36.582031 92.6875 36.582031 92.6875 36.582031 C 92.6875 36.582031 92.6875 36.578125 92.6875 36.578125 C 92.699219 36.578125 92.707031 36.574219 92.714844 36.570312 C 92.722656 36.5625 92.730469 36.554688 92.738281 36.546875 C 92.746094 36.535156 92.75 36.527344 92.753906 36.515625 C 92.757812 36.5 92.757812 36.488281 92.753906 36.476562 C 92.753906 36.464844 92.75 36.453125 92.746094 36.441406 C 92.742188 36.4375 92.734375 36.429688 92.730469 36.421875 C 92.71875 36.414062 92.707031 36.40625 92.691406 36.398438 C 92.683594 36.398438 92.675781 36.398438 92.667969 36.398438 C 92.652344 36.398438 92.636719 36.402344 92.621094 36.410156 Z M 92.621094 36.410156 " fill-opacity="1" fill-rule="nonzero"/><path fill="#fde2d2" d="M 95.820312 34.15625 C 95.8125 34.15625 95.800781 34.15625 95.792969 34.15625 C 95.777344 34.15625 95.765625 34.160156 95.757812 34.164062 C 95.746094 34.167969 95.734375 34.175781 95.726562 34.183594 C 95.71875 34.191406 95.714844 34.203125 95.710938 34.214844 C 95.703125 34.226562 95.703125 34.238281 95.703125 34.25 C 95.703125 34.257812 95.703125 34.265625 95.703125 34.273438 C 95.710938 34.289062 95.71875 34.304688 95.726562 34.316406 C 95.734375 34.320312 95.738281 34.324219 95.746094 34.328125 C 95.761719 34.339844 95.773438 34.34375 95.792969 34.34375 C 95.800781 34.34375 95.8125 34.34375 95.820312 34.34375 C 95.832031 34.34375 95.84375 34.339844 95.855469 34.335938 C 95.867188 34.332031 95.875 34.324219 95.882812 34.316406 C 95.890625 34.308594 95.898438 34.296875 95.902344 34.285156 C 95.90625 34.273438 95.910156 34.261719 95.910156 34.25 C 95.910156 34.242188 95.90625 34.234375 95.90625 34.226562 C 95.902344 34.210938 95.894531 34.195312 95.882812 34.183594 C 95.878906 34.179688 95.871094 34.175781 95.867188 34.167969 C 95.851562 34.160156 95.835938 34.15625 95.820312 34.15625 Z M 95.820312 34.15625 " fill-opacity="1" fill-rule="nonzero"/><path fill="#fde2d2" d="M 94.203125 34.429688 C 94.203125 34.417969 94.203125 34.410156 94.203125 34.398438 C 94.207031 34.386719 94.203125 34.375 94.199219 34.363281 C 94.195312 34.351562 94.1875 34.34375 94.179688 34.332031 C 94.171875 34.324219 94.160156 34.320312 94.148438 34.316406 C 94.140625 34.308594 94.128906 34.304688 94.117188 34.308594 C 94.109375 34.308594 94.097656 34.308594 94.089844 34.308594 C 94.078125 34.3125 94.0625 34.324219 94.050781 34.332031 C 94.046875 34.339844 94.042969 34.347656 94.039062 34.351562 C 94.03125 34.367188 94.027344 34.382812 94.027344 34.398438 C 94.027344 34.410156 94.027344 34.417969 94.027344 34.429688 C 94.027344 34.441406 94.027344 34.453125 94.035156 34.464844 C 94.039062 34.476562 94.042969 34.488281 94.050781 34.496094 C 94.058594 34.503906 94.070312 34.511719 94.082031 34.515625 C 94.089844 34.519531 94.101562 34.523438 94.117188 34.523438 C 94.125 34.519531 94.132812 34.519531 94.140625 34.519531 C 94.15625 34.515625 94.167969 34.507812 94.179688 34.496094 C 94.183594 34.488281 94.1875 34.484375 94.191406 34.476562 C 94.199219 34.460938 94.203125 34.445312 94.203125 34.429688 Z M 94.203125 34.429688 " fill-opacity="1" fill-rule="nonzero"/><path fill="#fde2d2" d="M 95.125 33.199219 C 95.121094 33.199219 95.113281 33.199219 95.109375 33.199219 C 94.992188 33.199219 94.992188 33.386719 95.109375 33.386719 C 95.113281 33.386719 95.121094 33.386719 95.125 33.386719 C 95.242188 33.386719 95.242188 33.199219 95.125 33.199219 C 95.121094 33.199219 95.113281 33.199219 95.109375 33.199219 C 94.992188 33.199219 94.992188 33.386719 95.109375 33.386719 C 95.113281 33.386719 95.121094 33.386719 95.125 33.386719 C 95.242188 33.386719 95.242188 33.199219 95.125 33.199219 Z M 95.125 33.199219 " fill-opacity="1" fill-rule="nonzero"/><path fill="#fde2d2" d="M 96.542969 32.308594 C 96.550781 32.308594 96.5625 32.308594 96.570312 32.308594 C 96.582031 32.308594 96.59375 32.304688 96.605469 32.300781 C 96.617188 32.296875 96.625 32.289062 96.636719 32.28125 C 96.644531 32.273438 96.648438 32.261719 96.652344 32.25 C 96.660156 32.238281 96.660156 32.226562 96.660156 32.214844 C 96.660156 32.207031 96.660156 32.199219 96.65625 32.191406 C 96.652344 32.175781 96.644531 32.160156 96.636719 32.148438 C 96.628906 32.144531 96.621094 32.140625 96.617188 32.136719 C 96.601562 32.125 96.585938 32.121094 96.570312 32.121094 C 96.5625 32.121094 96.550781 32.121094 96.542969 32.121094 C 96.53125 32.121094 96.519531 32.125 96.507812 32.128906 C 96.496094 32.132812 96.488281 32.140625 96.480469 32.148438 C 96.46875 32.15625 96.464844 32.167969 96.460938 32.179688 C 96.457031 32.191406 96.453125 32.203125 96.453125 32.214844 C 96.453125 32.222656 96.457031 32.230469 96.457031 32.238281 C 96.460938 32.253906 96.46875 32.269531 96.480469 32.28125 C 96.484375 32.285156 96.492188 32.289062 96.496094 32.296875 C 96.511719 32.304688 96.527344 32.308594 96.542969 32.308594 Z M 96.542969 32.308594 " fill-opacity="1" fill-rule="nonzero"/><path fill="#fde2d2" d="M 96.398438 30.183594 C 96.40625 30.183594 96.417969 30.183594 96.425781 30.183594 C 96.441406 30.183594 96.449219 30.179688 96.460938 30.175781 C 96.472656 30.171875 96.480469 30.164062 96.492188 30.15625 C 96.5 30.148438 96.503906 30.136719 96.507812 30.125 C 96.515625 30.117188 96.515625 30.105469 96.515625 30.089844 C 96.515625 30.082031 96.515625 30.074219 96.511719 30.066406 C 96.507812 30.050781 96.5 30.035156 96.492188 30.023438 C 96.484375 30.019531 96.476562 30.015625 96.472656 30.011719 C 96.457031 30.003906 96.441406 30 96.425781 30 C 96.417969 30 96.40625 30 96.398438 30 C 96.386719 29.996094 96.375 30 96.363281 30.007812 C 96.351562 30.011719 96.34375 30.015625 96.335938 30.023438 C 96.328125 30.035156 96.320312 30.042969 96.316406 30.054688 C 96.3125 30.066406 96.308594 30.078125 96.308594 30.089844 C 96.308594 30.097656 96.3125 30.105469 96.3125 30.117188 C 96.316406 30.132812 96.324219 30.144531 96.335938 30.15625 C 96.339844 30.160156 96.347656 30.167969 96.351562 30.171875 C 96.367188 30.179688 96.382812 30.183594 96.398438 30.183594 Z M 96.398438 30.183594 " fill-opacity="1" fill-rule="nonzero"/><path fill="#fde2d2" d="M 94.75 29.433594 C 94.75 29.453125 94.75 29.472656 94.75 29.492188 C 94.746094 29.503906 94.75 29.515625 94.757812 29.527344 C 94.757812 29.539062 94.765625 29.550781 94.773438 29.558594 C 94.78125 29.566406 94.792969 29.574219 94.804688 29.578125 C 94.8125 29.582031 94.824219 29.585938 94.839844 29.585938 C 94.847656 29.585938 94.855469 29.582031 94.863281 29.582031 C 94.875 29.578125 94.890625 29.570312 94.902344 29.558594 C 94.90625 29.550781 94.910156 29.546875 94.914062 29.539062 C 94.921875 29.523438 94.925781 29.507812 94.925781 29.492188 C 94.925781 29.472656 94.925781 29.453125 94.925781 29.433594 C 94.929688 29.421875 94.925781 29.40625 94.917969 29.398438 C 94.917969 29.386719 94.910156 29.375 94.902344 29.367188 C 94.894531 29.359375 94.882812 29.351562 94.871094 29.347656 C 94.863281 29.34375 94.851562 29.339844 94.835938 29.339844 C 94.828125 29.339844 94.820312 29.34375 94.8125 29.34375 C 94.800781 29.347656 94.785156 29.355469 94.773438 29.367188 C 94.769531 29.375 94.765625 29.378906 94.761719 29.386719 C 94.753906 29.402344 94.75 29.414062 94.75 29.433594 Z M 94.75 29.433594 " fill-opacity="1" fill-rule="nonzero"/><path fill="#fde2d2" d="M 92.472656 34.488281 C 92.472656 34.480469 92.472656 34.46875 92.472656 34.460938 C 92.472656 34.445312 92.46875 34.433594 92.464844 34.421875 C 92.460938 34.410156 92.453125 34.402344 92.445312 34.394531 C 92.4375 34.382812 92.425781 34.378906 92.417969 34.375 C 92.40625 34.367188 92.394531 34.367188 92.382812 34.367188 C 92.375 34.367188 92.367188 34.367188 92.359375 34.371094 C 92.34375 34.375 92.328125 34.382812 92.320312 34.394531 C 92.3125 34.398438 92.308594 34.40625 92.304688 34.414062 C 92.296875 34.425781 92.292969 34.441406 92.292969 34.460938 C 92.292969 34.46875 92.292969 34.480469 92.292969 34.488281 C 92.292969 34.5 92.292969 34.515625 92.300781 34.523438 C 92.304688 34.535156 92.308594 34.546875 92.320312 34.554688 C 92.328125 34.5625 92.335938 34.570312 92.347656 34.574219 C 92.359375 34.578125 92.371094 34.582031 92.382812 34.582031 C 92.390625 34.582031 92.398438 34.578125 92.40625 34.578125 C 92.421875 34.574219 92.433594 34.566406 92.445312 34.554688 C 92.449219 34.546875 92.453125 34.542969 92.460938 34.535156 C 92.46875 34.523438 92.472656 34.507812 92.472656 34.488281 Z M 92.472656 34.488281 " fill-opacity="1" fill-rule="nonzero"/><path fill="#fde2d2" d="M 92.671875 32.339844 C 92.785156 32.339844 92.785156 32.152344 92.671875 32.152344 C 92.554688 32.152344 92.554688 32.339844 92.671875 32.339844 Z M 92.671875 32.339844 " fill-opacity="1" fill-rule="nonzero"/><path fill="#cc662b" d="M 86.601562 31.53125 C 86.613281 31.53125 86.621094 31.53125 86.632812 31.53125 C 86.644531 31.53125 86.65625 31.527344 86.667969 31.523438 C 86.675781 31.519531 86.6875 31.511719 86.695312 31.503906 C 86.703125 31.496094 86.710938 31.484375 86.714844 31.472656 C 86.71875 31.460938 86.722656 31.449219 86.722656 31.4375 C 86.71875 31.429688 86.71875 31.421875 86.71875 31.414062 C 86.714844 31.398438 86.707031 31.382812 86.695312 31.371094 C 86.6875 31.367188 86.683594 31.363281 86.675781 31.355469 C 86.664062 31.347656 86.648438 31.34375 86.632812 31.34375 C 86.621094 31.34375 86.613281 31.34375 86.601562 31.34375 C 86.589844 31.34375 86.578125 31.347656 86.570312 31.351562 C 86.558594 31.355469 86.546875 31.363281 86.539062 31.371094 C 86.53125 31.378906 86.523438 31.390625 86.519531 31.402344 C 86.515625 31.414062 86.511719 31.425781 86.511719 31.4375 C 86.515625 31.445312 86.515625 31.453125 86.515625 31.460938 C 86.519531 31.476562 86.527344 31.492188 86.539062 31.503906 C 86.546875 31.507812 86.550781 31.511719 86.558594 31.515625 C 86.570312 31.527344 86.585938 31.53125 86.601562 31.53125 Z M 86.601562 31.53125 " fill-opacity="1" fill-rule="nonzero"/><path fill="#cc662b" d="M 87.644531 30.242188 C 87.757812 30.242188 87.757812 30.058594 87.644531 30.058594 C 87.527344 30.058594 87.527344 30.242188 87.644531 30.242188 Z M 87.644531 30.242188 " fill-opacity="1" fill-rule="nonzero"/><path fill="#cc662b" d="M 86.894531 29.730469 C 86.894531 29.722656 86.894531 29.710938 86.894531 29.703125 C 86.894531 29.6875 86.890625 29.675781 86.886719 29.667969 C 86.882812 29.65625 86.878906 29.644531 86.867188 29.636719 C 86.859375 29.628906 86.851562 29.621094 86.839844 29.617188 C 86.828125 29.613281 86.816406 29.609375 86.804688 29.609375 C 86.796875 29.609375 86.789062 29.613281 86.78125 29.613281 C 86.765625 29.617188 86.753906 29.625 86.742188 29.636719 C 86.738281 29.644531 86.730469 29.648438 86.726562 29.65625 C 86.71875 29.667969 86.714844 29.683594 86.714844 29.703125 C 86.714844 29.710938 86.714844 29.722656 86.714844 29.730469 C 86.714844 29.746094 86.71875 29.757812 86.722656 29.769531 C 86.726562 29.777344 86.734375 29.789062 86.742188 29.796875 C 86.75 29.804688 86.757812 29.8125 86.769531 29.816406 C 86.78125 29.824219 86.792969 29.824219 86.804688 29.824219 C 86.8125 29.824219 86.820312 29.824219 86.828125 29.820312 C 86.84375 29.816406 86.855469 29.808594 86.867188 29.796875 C 86.875 29.792969 86.878906 29.785156 86.882812 29.777344 C 86.890625 29.765625 86.894531 29.75 86.894531 29.730469 Z M 86.894531 29.730469 " fill-opacity="1" fill-rule="nonzero"/><path fill="#cc662b" d="M 87.417969 28.082031 C 87.414062 28.082031 87.414062 28.082031 87.414062 28.082031 C 87.421875 28.082031 87.429688 28.078125 87.441406 28.078125 C 87.4375 28.078125 87.4375 28.078125 87.4375 28.078125 C 87.445312 28.078125 87.453125 28.082031 87.460938 28.082031 C 87.464844 28.085938 87.472656 28.085938 87.480469 28.089844 C 87.484375 28.09375 87.492188 28.097656 87.496094 28.105469 C 87.496094 28.101562 87.496094 28.101562 87.496094 28.101562 C 87.5 28.109375 87.503906 28.113281 87.507812 28.121094 C 87.507812 28.121094 87.507812 28.121094 87.507812 28.117188 C 87.511719 28.125 87.515625 28.132812 87.515625 28.140625 C 87.515625 28.140625 87.515625 28.136719 87.515625 28.136719 C 87.515625 28.144531 87.519531 28.152344 87.519531 28.160156 C 87.519531 28.160156 87.519531 28.15625 87.519531 28.15625 C 87.519531 28.164062 87.515625 28.171875 87.515625 28.179688 C 87.515625 28.179688 87.515625 28.179688 87.515625 28.175781 C 87.515625 28.183594 87.511719 28.191406 87.507812 28.199219 C 87.507812 28.199219 87.507812 28.195312 87.511719 28.195312 C 87.503906 28.203125 87.5 28.207031 87.496094 28.214844 C 87.492188 28.21875 87.484375 28.222656 87.480469 28.226562 C 87.472656 28.230469 87.464844 28.234375 87.460938 28.234375 C 87.453125 28.238281 87.445312 28.238281 87.4375 28.238281 C 87.4375 28.238281 87.4375 28.238281 87.441406 28.238281 C 87.429688 28.238281 87.421875 28.238281 87.414062 28.234375 C 87.417969 28.234375 87.417969 28.234375 87.417969 28.234375 C 87.429688 28.238281 87.441406 28.242188 87.453125 28.238281 C 87.464844 28.238281 87.476562 28.234375 87.484375 28.226562 C 87.496094 28.21875 87.503906 28.210938 87.511719 28.203125 C 87.519531 28.195312 87.523438 28.183594 87.527344 28.171875 C 87.527344 28.164062 87.527344 28.15625 87.53125 28.144531 C 87.53125 28.128906 87.527344 28.113281 87.519531 28.101562 C 87.511719 28.09375 87.507812 28.085938 87.503906 28.082031 C 87.492188 28.070312 87.480469 28.0625 87.464844 28.058594 C 87.460938 28.054688 87.441406 28.054688 87.4375 28.054688 C 87.429688 28.054688 87.421875 28.054688 87.414062 28.058594 C 87.40625 28.058594 87.398438 28.0625 87.390625 28.066406 C 87.382812 28.070312 87.367188 28.082031 87.371094 28.082031 C 87.367188 28.085938 87.355469 28.101562 87.355469 28.101562 C 87.355469 28.101562 87.355469 28.101562 87.355469 28.105469 C 87.355469 28.105469 87.347656 28.121094 87.34375 28.128906 C 87.34375 28.128906 87.34375 28.128906 87.34375 28.132812 C 87.34375 28.140625 87.339844 28.148438 87.339844 28.15625 C 87.339844 28.160156 87.339844 28.160156 87.339844 28.160156 C 87.339844 28.167969 87.34375 28.179688 87.34375 28.1875 C 87.347656 28.195312 87.355469 28.214844 87.355469 28.210938 C 87.355469 28.214844 87.355469 28.214844 87.355469 28.214844 C 87.359375 28.222656 87.363281 28.226562 87.371094 28.234375 C 87.382812 28.246094 87.394531 28.253906 87.410156 28.261719 C 87.414062 28.261719 87.414062 28.261719 87.414062 28.261719 C 87.421875 28.261719 87.429688 28.261719 87.4375 28.265625 C 87.445312 28.261719 87.457031 28.261719 87.464844 28.261719 C 87.476562 28.257812 87.484375 28.25 87.496094 28.242188 C 87.503906 28.238281 87.511719 28.230469 87.515625 28.21875 C 87.523438 28.207031 87.527344 28.195312 87.527344 28.183594 C 87.53125 28.171875 87.53125 28.160156 87.527344 28.144531 C 87.523438 28.140625 87.519531 28.132812 87.515625 28.125 C 87.507812 28.109375 87.5 28.097656 87.484375 28.089844 C 87.476562 28.085938 87.472656 28.085938 87.464844 28.082031 C 87.449219 28.078125 87.433594 28.078125 87.417969 28.082031 Z M 87.417969 28.082031 " fill-opacity="1" fill-rule="nonzero"/><path fill="#cc662b" d="M 88.625 28.898438 C 88.742188 28.898438 88.742188 28.710938 88.625 28.710938 C 88.511719 28.710938 88.511719 28.898438 88.625 28.898438 Z M 88.625 28.898438 " fill-opacity="1" fill-rule="nonzero"/><path fill="#cc662b" d="M 88.65625 27.191406 C 88.769531 27.191406 88.769531 27.007812 88.65625 27.007812 C 88.539062 27.007812 88.539062 27.191406 88.65625 27.191406 Z M 88.65625 27.191406 " fill-opacity="1" fill-rule="nonzero"/><path fill="#cc662b" d="M 89.488281 26.890625 C 89.488281 26.898438 89.488281 26.910156 89.488281 26.917969 C 89.488281 26.933594 89.492188 26.945312 89.496094 26.957031 C 89.5 26.964844 89.507812 26.976562 89.515625 26.984375 C 89.523438 26.992188 89.535156 27 89.542969 27.003906 C 89.554688 27.011719 89.566406 27.011719 89.578125 27.011719 C 89.585938 27.011719 89.59375 27.011719 89.601562 27.007812 C 89.617188 27.003906 89.632812 26.996094 89.640625 26.984375 C 89.648438 26.980469 89.652344 26.972656 89.65625 26.964844 C 89.664062 26.953125 89.667969 26.9375 89.667969 26.917969 C 89.667969 26.910156 89.667969 26.898438 89.667969 26.890625 C 89.667969 26.875 89.667969 26.863281 89.660156 26.855469 C 89.65625 26.84375 89.652344 26.832031 89.640625 26.824219 C 89.632812 26.816406 89.625 26.808594 89.613281 26.804688 C 89.601562 26.800781 89.589844 26.796875 89.578125 26.796875 C 89.570312 26.796875 89.5625 26.800781 89.554688 26.800781 C 89.539062 26.804688 89.527344 26.8125 89.515625 26.824219 C 89.511719 26.832031 89.507812 26.835938 89.5 26.84375 C 89.492188 26.855469 89.488281 26.871094 89.488281 26.890625 Z M 89.488281 26.890625 " fill-opacity="1" fill-rule="nonzero"/><path fill="#cc662b" d="M 96.800781 30.902344 C 96.917969 30.902344 96.917969 30.714844 96.800781 30.714844 C 96.6875 30.714844 96.6875 30.902344 96.800781 30.902344 Z M 96.800781 30.902344 " fill-opacity="1" fill-rule="nonzero"/><path fill="#cc662b" d="M 96.71875 33.324219 C 96.71875 33.3125 96.71875 33.300781 96.71875 33.292969 C 96.71875 33.28125 96.71875 33.269531 96.710938 33.257812 C 96.707031 33.246094 96.703125 33.234375 96.691406 33.226562 C 96.683594 33.21875 96.675781 33.210938 96.664062 33.207031 C 96.652344 33.203125 96.640625 33.199219 96.628906 33.199219 C 96.621094 33.199219 96.613281 33.203125 96.605469 33.203125 C 96.589844 33.207031 96.578125 33.214844 96.566406 33.226562 C 96.5625 33.234375 96.554688 33.238281 96.550781 33.246094 C 96.542969 33.261719 96.539062 33.277344 96.539062 33.292969 C 96.539062 33.300781 96.539062 33.3125 96.539062 33.324219 C 96.539062 33.335938 96.542969 33.347656 96.546875 33.359375 C 96.550781 33.371094 96.558594 33.378906 96.566406 33.386719 C 96.574219 33.398438 96.582031 33.402344 96.59375 33.40625 C 96.605469 33.414062 96.617188 33.414062 96.628906 33.414062 C 96.636719 33.414062 96.644531 33.414062 96.652344 33.410156 C 96.667969 33.40625 96.679688 33.398438 96.691406 33.386719 C 96.699219 33.382812 96.703125 33.375 96.707031 33.371094 C 96.714844 33.355469 96.71875 33.339844 96.71875 33.324219 Z M 96.71875 33.324219 " fill-opacity="1" fill-rule="nonzero"/><path fill="#cc662b" d="M 95.792969 32.457031 C 95.90625 32.457031 95.90625 32.273438 95.792969 32.273438 C 95.675781 32.273438 95.675781 32.457031 95.792969 32.457031 Z M 95.792969 32.457031 " fill-opacity="1" fill-rule="nonzero"/><path fill="#cc662b" d="M 95.964844 31.890625 C 96.078125 31.890625 96.082031 31.703125 95.964844 31.703125 C 95.847656 31.703125 95.847656 31.890625 95.964844 31.890625 Z M 95.964844 31.890625 " fill-opacity="1" fill-rule="nonzero"/><path fill="#cc662b" d="M 95.53125 35.570312 C 95.648438 35.570312 95.648438 35.382812 95.53125 35.382812 C 95.417969 35.382812 95.414062 35.570312 95.53125 35.570312 Z M 95.53125 35.570312 " fill-opacity="1" fill-rule="nonzero"/><path fill="#cc662b" d="M 93.710938 35.867188 C 93.828125 35.867188 93.828125 35.683594 93.710938 35.683594 C 93.597656 35.683594 93.59375 35.867188 93.710938 35.867188 Z M 93.710938 35.867188 " fill-opacity="1" fill-rule="nonzero"/><path fill="#cc662b" d="M 93.539062 36.914062 C 93.652344 36.914062 93.652344 36.730469 93.539062 36.730469 C 93.421875 36.730469 93.421875 36.914062 93.539062 36.914062 Z M 93.539062 36.914062 " fill-opacity="1" fill-rule="nonzero"/><g clip-path="url(#703fdb35b2)"><path fill="#cc662b" d="M 91.625 36.960938 C 91.632812 36.941406 91.644531 36.921875 91.652344 36.902344 C 91.660156 36.890625 91.664062 36.878906 91.664062 36.867188 C 91.667969 36.855469 91.664062 36.84375 91.660156 36.828125 C 91.660156 36.816406 91.652344 36.808594 91.644531 36.796875 C 91.640625 36.789062 91.632812 36.78125 91.621094 36.773438 C 91.613281 36.769531 91.605469 36.769531 91.597656 36.765625 C 91.582031 36.761719 91.566406 36.761719 91.550781 36.765625 C 91.542969 36.769531 91.539062 36.769531 91.53125 36.773438 C 91.515625 36.78125 91.507812 36.792969 91.5 36.808594 C 91.488281 36.828125 91.480469 36.847656 91.46875 36.867188 C 91.460938 36.878906 91.460938 36.890625 91.457031 36.902344 C 91.457031 36.914062 91.457031 36.925781 91.460938 36.9375 C 91.464844 36.949219 91.46875 36.960938 91.476562 36.96875 C 91.484375 36.980469 91.492188 36.988281 91.5 36.996094 C 91.507812 36.996094 91.515625 37 91.523438 37.003906 C 91.539062 37.007812 91.554688 37.007812 91.570312 37.003906 C 91.578125 37 91.585938 36.996094 91.589844 36.996094 C 91.605469 36.984375 91.617188 36.976562 91.625 36.960938 Z M 91.625 36.960938 " fill-opacity="1" fill-rule="nonzero"/></g><path fill="#cc662b" d="M 91.429688 35.898438 C 91.4375 35.898438 91.449219 35.898438 91.457031 35.898438 C 91.46875 35.898438 91.480469 35.894531 91.492188 35.890625 C 91.503906 35.886719 91.511719 35.878906 91.519531 35.871094 C 91.527344 35.863281 91.535156 35.851562 91.539062 35.839844 C 91.542969 35.832031 91.546875 35.820312 91.546875 35.804688 C 91.546875 35.796875 91.542969 35.789062 91.542969 35.78125 C 91.539062 35.765625 91.53125 35.75 91.519531 35.738281 C 91.515625 35.734375 91.507812 35.730469 91.503906 35.726562 C 91.488281 35.71875 91.472656 35.714844 91.457031 35.714844 C 91.449219 35.714844 91.4375 35.714844 91.429688 35.714844 C 91.414062 35.710938 91.40625 35.714844 91.394531 35.722656 C 91.382812 35.726562 91.375 35.730469 91.363281 35.738281 C 91.355469 35.75 91.351562 35.757812 91.347656 35.769531 C 91.339844 35.78125 91.339844 35.792969 91.339844 35.804688 C 91.339844 35.8125 91.339844 35.820312 91.34375 35.832031 C 91.347656 35.847656 91.355469 35.859375 91.363281 35.871094 C 91.371094 35.875 91.378906 35.882812 91.382812 35.886719 C 91.398438 35.894531 91.414062 35.898438 91.429688 35.898438 Z M 91.429688 35.898438 " fill-opacity="1" fill-rule="nonzero"/><path fill="#cc662b" d="M 95.160156 30.628906 C 95.160156 30.621094 95.160156 30.609375 95.160156 30.601562 C 95.160156 30.585938 95.15625 30.574219 95.152344 30.5625 C 95.148438 30.550781 95.140625 30.542969 95.132812 30.535156 C 95.125 30.523438 95.113281 30.519531 95.105469 30.515625 C 95.09375 30.507812 95.082031 30.507812 95.070312 30.507812 C 95.0625 30.507812 95.054688 30.507812 95.046875 30.511719 C 95.03125 30.515625 95.015625 30.523438 95.003906 30.535156 C 95 30.539062 94.996094 30.546875 94.992188 30.554688 C 94.984375 30.566406 94.980469 30.582031 94.980469 30.597656 C 94.980469 30.609375 94.980469 30.621094 94.980469 30.628906 C 94.980469 30.640625 94.980469 30.652344 94.988281 30.664062 C 94.992188 30.675781 94.996094 30.6875 95.003906 30.695312 C 95.015625 30.703125 95.023438 30.710938 95.035156 30.714844 C 95.046875 30.71875 95.058594 30.722656 95.070312 30.722656 C 95.078125 30.722656 95.085938 30.71875 95.09375 30.71875 C 95.109375 30.714844 95.121094 30.707031 95.132812 30.695312 C 95.136719 30.6875 95.140625 30.683594 95.144531 30.675781 C 95.15625 30.660156 95.160156 30.644531 95.160156 30.628906 Z M 95.160156 30.628906 " fill-opacity="1" fill-rule="nonzero"/><path fill="#cc662b" d="M 96.023438 29.195312 C 96.136719 29.195312 96.136719 29.011719 96.023438 29.011719 C 95.90625 29.011719 95.90625 29.195312 96.023438 29.195312 Z M 96.023438 29.195312 " fill-opacity="1" fill-rule="nonzero"/><path fill="#cc662b" d="M 94.613281 27.691406 C 94.625 27.703125 94.636719 27.714844 94.648438 27.71875 C 94.675781 27.722656 94.707031 27.707031 94.722656 27.683594 C 94.785156 27.597656 94.75 27.476562 94.699219 27.378906 C 94.589844 27.160156 94.410156 26.898438 94.195312 26.777344 C 94.105469 26.722656 93.777344 26.613281 93.699219 26.746094 C 93.613281 26.886719 93.996094 27.019531 94.085938 27.101562 C 94.28125 27.28125 94.414062 27.519531 94.613281 27.691406 Z M 94.613281 27.691406 " fill-opacity="1" fill-rule="nonzero"/><path fill="#cc662b" d="M 92.566406 27.730469 C 92.621094 27.769531 92.679688 27.808594 92.75 27.820312 C 92.816406 27.832031 92.890625 27.8125 92.933594 27.753906 C 93 27.65625 92.933594 27.519531 92.847656 27.4375 C 92.765625 27.351562 92.660156 27.285156 92.542969 27.269531 C 92.082031 27.210938 92.375 27.585938 92.566406 27.730469 Z M 92.566406 27.730469 " fill-opacity="1" fill-rule="nonzero"/><g clip-path="url(#9c8af2872c)"><path fill="#3ea073" d="M 91.261719 23.503906 C 91.644531 23.011719 92.140625 22.625 92.652344 22.28125 C 92.847656 22.148438 93.042969 22.023438 93.25 21.910156 C 93.71875 21.65625 94.230469 21.488281 94.734375 21.320312 C 94.628906 21.820312 94.433594 22.296875 94.160156 22.726562 C 93.765625 23.351562 93.214844 23.863281 92.609375 24.273438 C 92.300781 24.484375 91.976562 24.667969 91.648438 24.839844 C 91.457031 24.9375 90.945312 25.308594 90.738281 25.199219 C 90.300781 24.96875 91.082031 23.734375 91.261719 23.503906 Z M 91.261719 23.503906 " fill-opacity="1" fill-rule="nonzero"/></g><g clip-path="url(#581005957a)"><path fill="#3ea073" d="M 88.761719 25.425781 C 88.136719 25.089844 87.507812 24.75 86.957031 24.292969 C 86.667969 24.058594 86.398438 23.785156 86.066406 23.621094 C 85.910156 23.542969 85.738281 23.488281 85.617188 23.355469 C 86.050781 23.152344 86.542969 23.117188 87.015625 23.167969 C 87.492188 23.222656 87.949219 23.367188 88.40625 23.511719 C 88.824219 23.644531 89.25 23.789062 89.589844 24.074219 C 89.835938 24.28125 90.019531 24.550781 90.203125 24.816406 C 90.402344 25.109375 90.925781 25.808594 90.289062 25.945312 C 89.800781 26.050781 89.171875 25.648438 88.761719 25.425781 Z M 88.761719 25.425781 " fill-opacity="1" fill-rule="nonzero"/></g><path fill="#45b280" d="M 91.273438 27.03125 C 91.621094 27 91.972656 26.75 92.015625 26.390625 C 91.785156 26.386719 91.582031 26.53125 91.359375 26.597656 C 91.1875 26.648438 89.964844 26.558594 89.964844 26.558594 C 90.171875 27.222656 91.113281 27.042969 91.273438 27.03125 Z M 91.273438 27.03125 " fill-opacity="1" fill-rule="nonzero"/><path fill="#45b280" d="M 90.652344 23.269531 L 90.097656 23.269531 C 90.152344 24.269531 90.554688 26.007812 90.527344 26.886719 C 90.617188 27.03125 91.265625 27 91.386719 26.746094 C 91.203125 26.296875 90.570312 24.457031 90.652344 23.269531 Z M 90.652344 23.269531 " fill-opacity="1" fill-rule="nonzero"/><path fill="#5e2617" d="M 89.945312 22.589844 C 89.960938 22.472656 90.015625 22.355469 90.117188 22.300781 C 90.183594 22.261719 90.257812 22.253906 90.335938 22.25 C 90.410156 22.246094 90.484375 22.246094 90.558594 22.25 C 90.625 22.253906 90.695312 22.261719 90.75 22.304688 C 90.832031 22.371094 90.835938 22.503906 90.816406 22.613281 C 90.785156 22.789062 90.710938 22.957031 90.710938 23.136719 C 90.714844 23.191406 90.722656 23.25 90.691406 23.296875 C 90.644531 23.382812 90.507812 23.386719 90.421875 23.40625 C 90.34375 23.425781 90.257812 23.449219 90.179688 23.414062 C 90.042969 23.351562 90.015625 23.152344 89.988281 23.019531 C 89.957031 22.878906 89.925781 22.730469 89.945312 22.589844 Z M 89.945312 22.589844 " fill-opacity="1" fill-rule="nonzero"/><g fill="#1c2120" fill-opacity="1"><g transform="translate(99.181947, 30.383149)"><g><path d="M -0.0703125 0.46875 C -0.0703125 1.378906 0.164062 3.039062 1.378906 3.039062 C 2.273438 3.039062 3.3125 1.925781 3.722656 1.378906 C 3.867188 1.183594 3.988281 0.996094 4.125 0.792969 L 5.203125 -1.167969 C 5.203125 -1.21875 5.15625 -1.277344 5.09375 -1.277344 C 5.027344 -1.277344 4.941406 -1.226562 4.855469 -1.058594 C 4.328125 -0.0585938 3.792969 1.011719 3.007812 1.8125 C 2.914062 1.90625 2.84375 1.949219 2.75 2.035156 L 2.503906 2.25 C 2.214844 2.472656 1.796875 2.742188 1.386719 2.742188 C 0.921875 2.742188 0.640625 2.386719 0.519531 1.984375 C 0.152344 1.015625 0.339844 -0.28125 0.542969 -1.242188 C 0.777344 -2.402344 1.355469 -4.113281 2.1875 -4.941406 C 2.429688 -5.1875 2.707031 -5.316406 2.945312 -5.316406 C 3.238281 -5.316406 3.46875 -5.101562 3.46875 -4.609375 C 3.46875 -3.832031 3.175781 -3.144531 2.886719 -2.480469 C 2.847656 -2.386719 2.804688 -2.300781 2.769531 -2.199219 C 2.699219 -2.0625 2.683594 -2.019531 2.804688 -1.933594 C 2.949219 -1.960938 2.957031 -2.019531 3.007812 -2.136719 C 3.296875 -2.71875 3.75 -3.773438 3.75 -4.40625 C 3.75 -4.777344 3.773438 -5.027344 3.550781 -5.34375 C 3.382812 -5.570312 3.167969 -5.664062 2.9375 -5.664062 C 2.625 -5.664062 2.285156 -5.496094 2.019531 -5.289062 C 1.4375 -4.828125 0.980469 -3.933594 0.707031 -3.238281 C 0.316406 -2.25 -0.0703125 -0.894531 -0.0703125 0.46875 Z M -0.0703125 0.46875 "/></g></g></g><g fill="#1c2120" fill-opacity="1"><g transform="translate(104.093691, 30.383149)"><g><path d="M 0 -0.730469 C 0 -0.46875 0.0234375 -0.347656 0.289062 -0.347656 C 0.496094 -0.347656 0.722656 -1.023438 0.859375 -1.117188 C 0.859375 -0.808594 1.089844 -0.433594 1.449219 -0.433594 C 1.574219 -0.433594 1.710938 -0.476562 1.855469 -0.578125 L 2.070312 -0.75 C 2.4375 -1.105469 2.394531 -1.285156 2.285156 -1.285156 C 2.242188 -1.285156 2.191406 -1.261719 2.15625 -1.210938 C 2.054688 -1.105469 2.035156 -1.039062 1.898438 -0.917969 C 1.738281 -0.757812 1.585938 -0.671875 1.449219 -0.671875 C 1.296875 -0.671875 1.167969 -0.785156 1.109375 -1.046875 C 1.046875 -1.320312 1.167969 -1.644531 0.917969 -1.644531 C 0.824219 -1.644531 0.527344 -1.03125 0.382812 -0.808594 L 0.324219 -0.722656 C 0.289062 -0.679688 0.308594 -0.707031 0.289062 -0.683594 C 0.289062 -0.921875 0.390625 -1.199219 0.484375 -1.347656 C 0.691406 -1.710938 0.835938 -1.8125 0.945312 -1.8125 C 1.082031 -1.8125 1.167969 -1.644531 1.269531 -1.644531 C 1.457031 -1.644531 1.269531 -2.054688 0.929688 -2.054688 C 0.425781 -2.054688 0 -1.140625 0 -0.730469 Z M 0 -0.730469 "/></g></g></g><g fill="#1c2120" fill-opacity="1"><g transform="translate(106.185328, 30.383149)"><g><path d="M 0.101562 -0.0273438 C 0.324219 -0.0273438 0.238281 -0.273438 0.28125 -0.460938 C 0.308594 -0.636719 0.375 -0.777344 0.449219 -0.902344 C 0.5625 -1.089844 0.597656 -1.089844 0.871094 -1.089844 C 0.953125 -1.089844 1.058594 -1.082031 1.152344 -1.082031 C 1.296875 -1.082031 1.414062 -1.097656 1.414062 -1.199219 C 1.414062 -1.292969 1.191406 -1.304688 0.980469 -1.304688 C 0.859375 -1.304688 0.734375 -1.296875 0.671875 -1.296875 C 0.449219 -1.296875 0.402344 -1.160156 0.296875 -1.089844 C 0.296875 -1.183594 0.308594 -1.175781 0.308594 -1.277344 C 0.308594 -1.347656 0.308594 -1.4375 0.316406 -1.507812 C 0.339844 -1.710938 0.375 -1.847656 0.179688 -1.847656 C 0.0234375 -1.847656 0.0078125 -1.097656 0.0078125 -0.964844 C 0.015625 -0.785156 0.0078125 -0.605469 0.015625 -0.433594 C 0.015625 -0.382812 -0.0429688 -0.0273438 0.101562 -0.0273438 Z M 0.101562 -0.0273438 "/></g></g></g><g fill="#1c2120" fill-opacity="1"><g transform="translate(107.360973, 30.383149)"><g><path d="M 0.359375 -0.164062 C 0.203125 -0.496094 0.535156 -1.148438 0.585938 -1.355469 C 0.835938 -1.191406 0.65625 -0.246094 0.359375 -0.164062 Z M 0 -0.410156 C 0 -0.0351562 0.160156 0.152344 0.347656 0.152344 C 0.5625 0.152344 0.828125 -0.101562 0.9375 -0.597656 C 1.097656 -1.34375 0.75 -1.464844 0.714844 -1.601562 C 0.75 -1.660156 0.816406 -1.703125 0.835938 -1.753906 C 0.859375 -1.8125 0.816406 -1.925781 0.722656 -1.925781 C 0.367188 -1.925781 0 -0.734375 0 -0.410156 Z M 0 -0.410156 "/></g></g></g><g fill="#1c2120" fill-opacity="1"><g transform="translate(108.630381, 30.383149)"><g><path d="M 0.015625 -0.554688 C 0.015625 -0.0859375 0.0273438 0.800781 0.417969 0.800781 C 0.597656 0.800781 0.734375 0.527344 0.816406 0.402344 C 0.972656 0.136719 1.167969 -0.367188 1.320312 -0.679688 C 1.355469 -0.75 1.578125 -1.167969 1.578125 -1.210938 C 1.578125 -1.25 1.550781 -1.292969 1.515625 -1.292969 C 1.480469 -1.292969 1.4375 -1.261719 1.390625 -1.175781 C 1.160156 -0.765625 0.953125 -0.257812 0.734375 0.160156 C 0.65625 0.324219 0.554688 0.519531 0.398438 0.605469 C 0.0703125 -0.015625 0.476562 -2.257812 0.679688 -2.988281 C 0.699219 -3.058594 0.886719 -3.476562 0.648438 -3.476562 C 0.460938 -3.476562 0.398438 -3.117188 0.332031 -2.90625 C 0.152344 -2.242188 0.015625 -1.269531 0.015625 -0.554688 Z M 0.015625 -0.554688 "/></g></g></g><g fill="#1c2120" fill-opacity="1"><g transform="translate(109.89979, 30.383149)"><g><path d="M 0.597656 0.0273438 C 0.9375 0.0273438 1.210938 -0.289062 1.386719 -0.46875 C 1.5 -0.585938 1.933594 -1.066406 1.933594 -1.203125 C 1.933594 -1.269531 1.910156 -1.292969 1.882812 -1.292969 C 1.746094 -1.292969 1.363281 -0.777344 1.335938 -0.742188 C 1.226562 -0.605469 0.851562 -0.222656 0.621094 -0.222656 C 0.425781 -0.222656 0.347656 -0.648438 0.347656 -0.867188 C 0.347656 -1.601562 0.636719 -1.925781 0.304688 -1.925781 C 0.160156 -1.925781 0.0859375 -1.601562 0.0664062 -1.449219 C -0.015625 -1.082031 0 -0.585938 0.171875 -0.257812 C 0.253906 -0.121094 0.402344 0.0273438 0.597656 0.0273438 Z M 0.367188 -2.835938 C 0.367188 -2.675781 0.460938 -2.605469 0.5625 -2.605469 C 0.707031 -2.605469 0.859375 -2.761719 0.722656 -3.03125 C 0.679688 -3.109375 0.628906 -3.136719 0.578125 -3.136719 C 0.46875 -3.136719 0.367188 -3 0.367188 -2.835938 Z M 0.367188 -2.835938 "/></g></g></g><g fill="#1c2120" fill-opacity="1"><g transform="translate(111.54425, 30.383149)"><g><path d="M 0.203125 -0.375 C 0.484375 -0.375 0.773438 -1.296875 1.011719 -1.457031 C 1.074219 -1.320312 0.972656 -1.03125 1.117188 -0.597656 C 1.183594 -0.402344 1.304688 -0.210938 1.53125 -0.210938 C 1.574219 -0.210938 1.617188 -0.214844 1.667969 -0.230469 C 1.832031 -0.273438 2.0625 -0.5625 2.164062 -0.691406 C 2.207031 -0.75 2.632812 -1.285156 2.351562 -1.285156 C 2.222656 -1.285156 1.839844 -0.425781 1.550781 -0.425781 C 1.285156 -0.425781 1.269531 -1.066406 1.269531 -1.25 L 1.226562 -1.652344 C 1.191406 -1.730469 1.140625 -1.765625 1.089844 -1.765625 C 0.917969 -1.765625 0.699219 -1.398438 0.65625 -1.320312 L 0.308594 -0.792969 C 0.308594 -1.355469 0.777344 -2.035156 0.460938 -2.035156 C 0.1875 -2.035156 -0.257812 -0.375 0.203125 -0.375 Z M 0.203125 -0.375 "/></g></g></g><g fill="#1c2120" fill-opacity="1"><g transform="translate(113.708013, 30.383149)"><g><path d="M 0.332031 -1.304688 C 0.382812 -1.484375 0.621094 -1.765625 0.816406 -1.804688 C 0.792969 -1.574219 0.511719 -1.398438 0.332031 -1.304688 Z M 0.0078125 -1.132812 C 0.0078125 -0.929688 0 -0.75 0.171875 -0.578125 C 0.296875 -0.453125 0.441406 -0.402344 0.589844 -0.402344 C 1.03125 -0.402344 1.53125 -0.84375 1.796875 -1.109375 C 1.859375 -1.191406 1.859375 -1.199219 1.839844 -1.304688 C 1.625 -1.304688 1.738281 -1.277344 1.441406 -1.046875 C 1.390625 -1.011719 1.371094 -0.980469 1.3125 -0.9375 C 1.167969 -0.828125 0.867188 -0.621094 0.613281 -0.621094 C 0.527344 -0.621094 0.441406 -0.648438 0.375 -0.714844 C 0.253906 -0.835938 0.265625 -0.953125 0.265625 -1.105469 C 0.492188 -1.117188 0.75 -1.328125 0.867188 -1.457031 C 1.089844 -1.738281 1.089844 -2.027344 0.773438 -2.027344 C 0.425781 -2.027344 0.0078125 -1.492188 0.0078125 -1.132812 Z M 0.0078125 -1.132812 "/></g></g></g><g fill="#1c2120" fill-opacity="1"><g transform="translate(115.273134, 30.383149)"><g><path d="M 1.949219 0.1875 C 1.898438 0.164062 1.8125 0.144531 1.738281 0.121094 C 1.652344 0.101562 1.558594 0.0859375 1.5 0.0664062 C 1.53125 0.0273438 1.898438 -0.203125 1.976562 -0.210938 C 1.933594 -0.121094 1.949219 0.0585938 1.949219 0.1875 Z M 2.375 -0.9375 C 2.375 -1.175781 2.496094 -2.035156 2.53125 -2.332031 C 2.582031 -2.769531 2.640625 -3.238281 2.726562 -3.65625 C 2.769531 -3.875 2.8125 -4.074219 2.847656 -4.285156 C 2.894531 -4.507812 2.949219 -4.710938 2.988281 -4.933594 C 3.015625 -5.109375 2.980469 -5.101562 3.125 -5.171875 C 3.527344 -5.375 3.78125 -5.441406 4.242188 -5.441406 C 4.652344 -5.441406 4.992188 -5.101562 4.992188 -4.6875 C 4.992188 -4.003906 4.644531 -3.441406 4.292969 -2.921875 C 3.851562 -2.273438 3.03125 -1.390625 2.375 -0.9375 Z M 0.367188 -1.492188 C 0.367188 -1.328125 0.332031 -0.816406 0.621094 -0.816406 C 0.910156 -0.816406 0.929688 -1.066406 0.773438 -1.066406 C 0.742188 -1.066406 0.707031 -1.046875 0.679688 -1.046875 C 0.636719 -1.046875 0.597656 -1.089844 0.597656 -1.320312 C 0.597656 -2.300781 1.421875 -3.78125 2.207031 -4.5 C 2.28125 -4.566406 2.332031 -4.59375 2.394531 -4.667969 C 2.453125 -4.71875 2.539062 -4.789062 2.605469 -4.8125 L 2.425781 -4.105469 C 2.242188 -3.195312 2.105469 -2.28125 2.027344 -1.347656 L 2 -0.917969 C 2 -0.691406 2.042969 -0.679688 1.890625 -0.578125 C 1.78125 -0.511719 1.722656 -0.460938 1.625 -0.402344 C 1.414062 -0.273438 1.253906 -0.171875 1.046875 -0.0585938 C 0.871094 0.0273438 0.648438 0.0664062 0.683594 0.230469 C 0.699219 0.308594 0.75 0.332031 0.816406 0.332031 C 0.910156 0.332031 1.023438 0.289062 1.097656 0.289062 C 1.378906 0.289062 1.738281 0.367188 1.925781 0.460938 C 1.925781 1.003906 1.875 1.960938 1.917969 2.429688 C 1.941406 2.640625 1.867188 3.78125 2.230469 3.78125 C 2.445312 3.78125 2.332031 3.5 2.308594 3.273438 C 2.25 2.582031 2.28125 1.617188 2.28125 0.886719 C 2.28125 0.765625 2.300781 0.777344 2.300781 0.671875 C 2.453125 0.699219 3.03125 1.152344 3.175781 1.269531 C 3.457031 1.5 5.5625 3.226562 5.722656 3.226562 C 5.785156 3.226562 5.785156 3.210938 5.84375 3.195312 C 5.84375 3.015625 5.828125 3.039062 5.722656 2.957031 C 4.6875 2.222656 3.765625 1.371094 2.800781 0.648438 C 2.625 0.527344 2.46875 0.453125 2.300781 0.332031 C 2.300781 0.152344 2.332031 0.0664062 2.332031 -0.117188 C 2.332031 -0.648438 2.386719 -0.460938 2.972656 -0.972656 L 3.746094 -1.6875 C 4.113281 -2.097656 4.3125 -2.292969 4.644531 -2.777344 C 4.96875 -3.273438 5.339844 -3.882812 5.339844 -4.582031 C 5.339844 -5.296875 4.871094 -5.734375 4.132812 -5.734375 C 3.628906 -5.734375 3.066406 -5.46875 2.667969 -5.214844 C 2.375 -5.015625 2.351562 -4.957031 2.113281 -4.777344 C 1.398438 -4.226562 0.367188 -2.4375 0.367188 -1.492188 Z M 0.367188 -1.492188 "/></g></g></g><g fill="#1c2120" fill-opacity="1"><g transform="translate(119.759337, 30.383149)"><g><path d="M 2.863281 1.296875 L 2.863281 2.207031 L 2.699219 2.207031 C 2.386719 2.207031 1.875 2.046875 2.054688 1.730469 C 2.148438 1.542969 2.597656 1.355469 2.863281 1.296875 Z M 3.175781 2.164062 L 3.195312 1.507812 C 3.21875 1.269531 3.117188 1.234375 3.347656 1.199219 C 3.671875 1.148438 3.933594 1.117188 4.191406 1.117188 C 4.386719 1.117188 4.589844 1.132812 4.828125 1.167969 C 4.964844 1.191406 5.144531 1.242188 5.28125 1.242188 C 5.121094 1.464844 3.648438 2.164062 3.175781 2.164062 Z M 5.578125 1.054688 C 5.453125 1.054688 5.382812 1.03125 5.28125 1.011719 C 4.855469 0.9375 4.5 0.894531 4.121094 0.894531 C 3.902344 0.894531 3.679688 0.910156 3.425781 0.945312 C 3.332031 0.960938 3.273438 0.972656 3.238281 0.972656 C 3.132812 0.972656 3.253906 0.828125 3.246094 0.0429688 L 3.347656 -1.464844 C 3.414062 -1.941406 3.441406 -2.378906 3.527344 -2.90625 C 3.621094 -3.507812 3.714844 -3.9375 3.824219 -4.515625 C 3.875 -4.78125 3.894531 -4.753906 4.351562 -4.957031 L 5.070312 -5.207031 C 5.460938 -5.324219 5.902344 -5.410156 6.339844 -5.410156 C 6.660156 -5.410156 6.984375 -5.367188 7.277344 -5.238281 C 8.792969 -4.609375 8.398438 -2.472656 7.742188 -1.335938 C 7.582031 -1.066406 7.394531 -0.757812 7.199219 -0.503906 C 7.15625 -0.453125 7.136719 -0.433594 7.097656 -0.382812 C 6.976562 -0.222656 6.484375 0.324219 6.339844 0.441406 C 6.285156 0.484375 6.269531 0.492188 6.210938 0.542969 L 5.851562 0.851562 C 5.820312 0.871094 5.578125 1.054688 5.578125 1.054688 Z M 3.96875 -5.101562 C 3.96875 -5.222656 3.945312 -5.203125 3.851562 -5.25 C 3.679688 -5.207031 3.671875 -5.070312 3.605469 -4.933594 C 3.570312 -4.832031 3.425781 -4.777344 3.28125 -4.695312 C 2.871094 -4.445312 2.496094 -4.140625 2.136719 -3.824219 C 1.542969 -3.230469 1.160156 -2.835938 0.683594 -2.121094 C 0.351562 -1.628906 -0.144531 -0.699219 -0.144531 -0.0429688 C -0.144531 0.347656 0.117188 0.496094 0.273438 0.496094 C 0.351562 0.496094 0.402344 0.460938 0.390625 0.398438 C 0.351562 0.230469 0.078125 0.425781 0.078125 -0.0429688 C 0.078125 -0.902344 1.023438 -2.257812 1.617188 -2.9375 L 2.09375 -3.441406 C 2.386719 -3.738281 3.160156 -4.335938 3.492188 -4.5 L 3.230469 -3.230469 C 3.144531 -2.699219 2.949219 -1.011719 2.957031 -0.441406 C 2.957031 -0.210938 2.90625 0.0664062 2.90625 0.296875 C 2.90625 0.546875 2.886719 0.765625 2.886719 1.03125 C 2.605469 1.175781 1.78125 1.261719 1.78125 1.890625 C 1.78125 2.265625 2.316406 2.460938 2.640625 2.460938 C 2.707031 2.460938 2.75 2.453125 2.785156 2.453125 C 2.84375 2.453125 2.855469 2.488281 2.878906 2.667969 C 2.886719 2.785156 2.886719 2.847656 2.914062 2.949219 C 2.957031 3.074219 3.023438 3.117188 3.082031 3.117188 C 3.144531 3.117188 3.203125 3.066406 3.195312 3.015625 L 3.167969 2.4375 C 3.355469 2.429688 3.738281 2.324219 3.886719 2.265625 C 4.351562 2.121094 4.992188 1.796875 5.394531 1.53125 C 5.554688 1.421875 5.613281 1.355469 5.714844 1.355469 C 5.777344 1.355469 5.851562 1.386719 5.980469 1.449219 C 6.117188 1.523438 6.089844 1.578125 6.191406 1.644531 C 6.421875 1.484375 6.160156 1.25 5.9375 1.199219 C 5.964844 1.105469 6.046875 1.058594 6.167969 0.972656 C 6.253906 0.902344 6.335938 0.835938 6.421875 0.765625 C 6.527344 0.679688 6.882812 0.332031 6.992188 0.195312 L 7.207031 -0.0429688 C 7.855469 -0.808594 8.3125 -1.585938 8.546875 -2.605469 C 8.742188 -3.457031 8.679688 -4.4375 8.03125 -5.085938 C 7.582031 -5.539062 6.960938 -5.707031 6.335938 -5.707031 C 5.902344 -5.707031 5.46875 -5.628906 5.070312 -5.511719 L 4.25 -5.203125 C 4.15625 -5.164062 4.074219 -5.101562 3.96875 -5.101562 Z M 3.96875 -5.101562 "/></g></g></g><g fill="#1c2120" fill-opacity="1"><g transform="translate(99.306039, 36.947836)"><g><path d="M 0.292969 -1.007812 L 1.058594 0.0859375 L 1.058594 -1.367188 L 0.917969 -1.367188 L 0.917969 -0.363281 L 0.152344 -1.453125 L 0.152344 0 L 0.292969 0 Z M 0.292969 -1.007812 "/></g></g></g><g fill="#1c2120" fill-opacity="1"><g transform="translate(101.593035, 36.947836)"><g><path d="M 1.136719 -0.453125 L 1.136719 -1.367188 L 0.996094 -1.367188 L 0.996094 -0.433594 C 0.996094 -0.375 0.988281 -0.328125 0.96875 -0.292969 C 0.910156 -0.179688 0.796875 -0.121094 0.628906 -0.121094 C 0.523438 -0.121094 0.4375 -0.148438 0.371094 -0.195312 C 0.296875 -0.25 0.261719 -0.328125 0.261719 -0.433594 L 0.261719 -1.367188 L 0.121094 -1.367188 L 0.121094 -0.453125 C 0.121094 -0.304688 0.167969 -0.1875 0.265625 -0.101562 C 0.355469 -0.0234375 0.476562 0.0195312 0.628906 0.0195312 C 0.78125 0.0195312 0.902344 -0.0234375 0.992188 -0.101562 C 1.089844 -0.1875 1.136719 -0.304688 1.136719 -0.453125 Z M 1.136719 -0.453125 "/></g></g></g><g fill="#1c2120" fill-opacity="1"><g transform="translate(103.930227, 36.947836)"><g><path d="M 0.0390625 -1.238281 L 0.371094 -1.238281 L 0.371094 -0.00390625 L 0.511719 -0.00390625 L 0.511719 -1.238281 L 0.84375 -1.238281 L 0.84375 -1.371094 L 0.0390625 -1.371094 Z M 0.0390625 -1.238281 "/></g></g></g><g fill="#1c2120" fill-opacity="1"><g transform="translate(105.891945, 36.947836)"><g><path d="M 0.292969 -0.675781 L 0.292969 -1.230469 L 0.609375 -1.230469 C 0.691406 -1.230469 0.757812 -1.203125 0.808594 -1.152344 C 0.855469 -1.101562 0.882812 -1.035156 0.882812 -0.957031 C 0.882812 -0.875 0.855469 -0.808594 0.804688 -0.753906 C 0.75 -0.699219 0.6875 -0.675781 0.609375 -0.675781 Z M 1.023438 -0.953125 C 1.023438 -1.070312 0.976562 -1.171875 0.894531 -1.25 C 0.8125 -1.324219 0.707031 -1.367188 0.589844 -1.367188 L 0.152344 -1.367188 L 0.152344 0 L 0.292969 0 L 0.292969 -0.539062 L 0.453125 -0.539062 L 0.855469 0 L 1.042969 0 L 0.621094 -0.539062 C 0.730469 -0.546875 0.820312 -0.585938 0.894531 -0.65625 C 0.976562 -0.734375 1.023438 -0.832031 1.023438 -0.953125 Z M 1.023438 -0.953125 "/></g></g></g><g fill="#1c2120" fill-opacity="1"><g transform="translate(108.062485, 36.947836)"><g><path d="M 0.292969 0 L 0.292969 -1.367188 L 0.152344 -1.367188 L 0.152344 0 Z M 0.292969 0 "/></g></g></g><g fill="#1c2120" fill-opacity="1"><g transform="translate(109.582469, 36.947836)"><g><path d="M 0.0390625 -1.238281 L 0.371094 -1.238281 L 0.371094 -0.00390625 L 0.511719 -0.00390625 L 0.511719 -1.238281 L 0.84375 -1.238281 L 0.84375 -1.371094 L 0.0390625 -1.371094 Z M 0.0390625 -1.238281 "/></g></g></g><g fill="#1c2120" fill-opacity="1"><g transform="translate(111.544188, 36.947836)"><g><path d="M 0.292969 0 L 0.292969 -1.367188 L 0.152344 -1.367188 L 0.152344 0 Z M 0.292969 0 "/></g></g></g><g fill="#1c2120" fill-opacity="1"><g transform="translate(113.064172, 36.947836)"><g><path d="M 1.351562 -0.6875 C 1.351562 -0.53125 1.296875 -0.398438 1.1875 -0.289062 C 1.078125 -0.179688 0.945312 -0.125 0.792969 -0.125 C 0.636719 -0.125 0.503906 -0.179688 0.394531 -0.289062 C 0.285156 -0.398438 0.230469 -0.53125 0.230469 -0.6875 C 0.230469 -0.839844 0.285156 -0.972656 0.394531 -1.082031 C 0.503906 -1.191406 0.636719 -1.246094 0.792969 -1.246094 C 0.945312 -1.246094 1.078125 -1.191406 1.1875 -1.082031 C 1.296875 -0.972656 1.351562 -0.839844 1.351562 -0.6875 Z M 1.492188 -0.6875 C 1.492188 -0.78125 1.472656 -0.875 1.4375 -0.960938 C 1.402344 -1.042969 1.351562 -1.117188 1.285156 -1.183594 C 1.222656 -1.246094 1.148438 -1.296875 1.0625 -1.332031 C 0.976562 -1.367188 0.886719 -1.386719 0.792969 -1.386719 C 0.695312 -1.386719 0.601562 -1.367188 0.519531 -1.332031 C 0.433594 -1.296875 0.359375 -1.246094 0.296875 -1.183594 C 0.230469 -1.117188 0.179688 -1.042969 0.144531 -0.960938 C 0.109375 -0.875 0.0898438 -0.78125 0.0898438 -0.6875 C 0.0898438 -0.589844 0.109375 -0.496094 0.144531 -0.414062 C 0.179688 -0.328125 0.230469 -0.253906 0.296875 -0.1875 C 0.359375 -0.125 0.433594 -0.0742188 0.519531 -0.0390625 C 0.601562 -0.00390625 0.695312 0.015625 0.792969 0.015625 C 0.886719 0.015625 0.976562 -0.00390625 1.0625 -0.0390625 C 1.148438 -0.0742188 1.222656 -0.125 1.285156 -0.1875 C 1.351562 -0.253906 1.402344 -0.328125 1.4375 -0.414062 C 1.472656 -0.496094 1.492188 -0.589844 1.492188 -0.6875 Z M 1.492188 -0.6875 "/></g></g></g><g fill="#1c2120" fill-opacity="1"><g transform="translate(115.726641, 36.947836)"><g><path d="M 0.292969 -1.007812 L 1.058594 0.0859375 L 1.058594 -1.367188 L 0.917969 -1.367188 L 0.917969 -0.363281 L 0.152344 -1.453125 L 0.152344 0 L 0.292969 0 Z M 0.292969 -1.007812 "/></g></g></g><g fill="#1c2120" fill-opacity="1"><g transform="translate(118.013637, 36.947836)"><g/></g></g><g fill="#1c2120" fill-opacity="1"><g transform="translate(119.634016, 36.947836)"><g><path d="M 0.0390625 -1.238281 L 0.371094 -1.238281 L 0.371094 -0.00390625 L 0.511719 -0.00390625 L 0.511719 -1.238281 L 0.84375 -1.238281 L 0.84375 -1.371094 L 0.0390625 -1.371094 Z M 0.0390625 -1.238281 "/></g></g></g><g fill="#1c2120" fill-opacity="1"><g transform="translate(121.595734, 36.947836)"><g><path d="M 0.292969 0 L 0.292969 -0.609375 L 0.910156 -0.609375 L 0.910156 0 L 1.050781 0 L 1.050781 -1.367188 L 0.910156 -1.367188 L 0.910156 -0.75 L 0.292969 -0.75 L 0.292969 -1.367188 L 0.152344 -1.367188 L 0.152344 0 Z M 0.292969 0 "/></g></g></g><g fill="#1c2120" fill-opacity="1"><g transform="translate(123.876706, 36.947836)"><g><path d="M 0.960938 0 L 0.960938 -0.128906 L 0.292969 -0.128906 L 0.292969 -0.617188 L 0.941406 -0.617188 L 0.941406 -0.75 L 0.292969 -0.75 L 0.292969 -1.234375 L 0.960938 -1.234375 L 0.960938 -1.367188 L 0.152344 -1.367188 L 0.152344 0 Z M 0.960938 0 "/></g></g></g><g fill="#1c2120" fill-opacity="1"><g transform="translate(126.067323, 36.947836)"><g><path d="M 0.292969 -0.675781 L 0.292969 -1.230469 L 0.609375 -1.230469 C 0.691406 -1.230469 0.757812 -1.203125 0.808594 -1.152344 C 0.855469 -1.101562 0.882812 -1.035156 0.882812 -0.957031 C 0.882812 -0.875 0.855469 -0.808594 0.804688 -0.753906 C 0.75 -0.699219 0.6875 -0.675781 0.609375 -0.675781 Z M 1.023438 -0.953125 C 1.023438 -1.070312 0.976562 -1.171875 0.894531 -1.25 C 0.8125 -1.324219 0.707031 -1.367188 0.589844 -1.367188 L 0.152344 -1.367188 L 0.152344 0 L 0.292969 0 L 0.292969 -0.539062 L 0.453125 -0.539062 L 0.855469 0 L 1.042969 0 L 0.621094 -0.539062 C 0.730469 -0.546875 0.820312 -0.585938 0.894531 -0.65625 C 0.976562 -0.734375 1.023438 -0.832031 1.023438 -0.953125 Z M 1.023438 -0.953125 "/></g></g></g><g fill="#1c2120" fill-opacity="1"><g transform="translate(128.237863, 36.947836)"><g><path d="M 0.371094 -0.503906 L 0.621094 -1.128906 L 0.867188 -0.503906 Z M 1.21875 0 L 0.621094 -1.460938 L 0.0195312 0 L 0.171875 0 L 0.320312 -0.371094 L 0.917969 -0.371094 L 1.066406 0 Z M 1.21875 0 "/></g></g></g><g fill="#1c2120" fill-opacity="1"><g transform="translate(130.554978, 36.947836)"><g><path d="M 0.292969 -0.675781 L 0.292969 -1.230469 L 0.609375 -1.230469 C 0.691406 -1.230469 0.757812 -1.203125 0.808594 -1.15625 C 0.855469 -1.101562 0.882812 -1.039062 0.882812 -0.957031 C 0.882812 -0.875 0.855469 -0.808594 0.804688 -0.753906 C 0.75 -0.703125 0.6875 -0.675781 0.609375 -0.675781 Z M 1.023438 -0.953125 C 1.023438 -1.074219 0.976562 -1.171875 0.894531 -1.25 C 0.808594 -1.328125 0.707031 -1.367188 0.589844 -1.367188 L 0.152344 -1.367188 L 0.152344 0 L 0.292969 0 L 0.292969 -0.539062 L 0.589844 -0.539062 C 0.707031 -0.539062 0.8125 -0.578125 0.894531 -0.65625 C 0.976562 -0.734375 1.023438 -0.832031 1.023438 -0.953125 Z M 1.023438 -0.953125 "/></g></g></g><g fill="#1c2120" fill-opacity="1"><g transform="translate(132.695399, 36.947836)"><g><path d="M 0.679688 -0.640625 L 1.195312 -1.367188 L 1.015625 -1.367188 L 0.609375 -0.78125 L 0.199219 -1.367188 L 0.0195312 -1.367188 L 0.539062 -0.640625 L 0.539062 0 L 0.679688 0 Z M 0.679688 -0.640625 "/></g></g></g></svg>