<svg xmlns="http://www.w3.org/2000/svg" xmlns:xlink="http://www.w3.org/1999/xlink" width="500" zoomAndPan="magnify" viewBox="0 0 375 374.999991" height="500" preserveAspectRatio="xMidYMid meet" version="1.0"><defs><g/><clipPath id="7ebf30aae9"><path d="M 92 99.167969 L 121 99.167969 L 121 125 L 92 125 Z M 92 99.167969 " clip-rule="nonzero"/></clipPath><clipPath id="b67503d27b"><path d="M 59.121094 111 L 93 111 L 93 130 L 59.121094 130 Z M 59.121094 111 " clip-rule="nonzero"/></clipPath></defs><g fill="#1c2120" fill-opacity="1"><g transform="translate(147.909369, 158.265056)"><g><path d="M -0.378906 2.453125 C -0.378906 7.207031 0.867188 15.882812 7.207031 15.882812 C 11.882812 15.882812 17.316406 10.074219 19.46875 7.207031 C 20.222656 6.1875 20.863281 5.207031 21.582031 4.148438 L 27.203125 -6.113281 C 27.203125 -6.375 26.976562 -6.679688 26.636719 -6.679688 C 26.296875 -6.679688 25.84375 -6.414062 25.390625 -5.546875 C 22.636719 -0.300781 19.84375 5.28125 15.734375 9.46875 C 15.242188 9.960938 14.867188 10.1875 14.375 10.640625 L 13.09375 11.773438 C 11.582031 12.941406 9.394531 14.335938 7.242188 14.335938 C 4.828125 14.335938 3.359375 12.488281 2.714844 10.375 C 0.792969 5.320312 1.773438 -1.472656 2.828125 -6.488281 C 4.074219 -12.5625 7.09375 -21.503906 11.433594 -25.84375 C 12.714844 -27.128906 14.148438 -27.804688 15.394531 -27.804688 C 16.941406 -27.804688 18.148438 -26.675781 18.148438 -24.109375 C 18.148438 -20.035156 16.601562 -16.449219 15.089844 -12.980469 C 14.902344 -12.488281 14.675781 -12.035156 14.488281 -11.507812 C 14.109375 -10.789062 14.035156 -10.5625 14.675781 -10.113281 C 15.429688 -10.261719 15.46875 -10.5625 15.734375 -11.167969 C 17.242188 -14.222656 19.621094 -19.734375 19.621094 -23.050781 C 19.621094 -24.976562 19.734375 -26.296875 18.5625 -27.957031 C 17.695312 -29.128906 16.5625 -29.617188 15.355469 -29.617188 C 13.734375 -29.617188 11.960938 -28.75 10.5625 -27.65625 C 7.507812 -25.242188 5.132812 -20.5625 3.699219 -16.941406 C 1.660156 -11.773438 -0.378906 -4.679688 -0.378906 2.453125 Z M -0.378906 2.453125 "/></g></g></g><g fill="#1c2120" fill-opacity="1"><g transform="translate(173.597384, 158.265056)"><g><path d="M 0 -3.8125 C 0 -2.453125 0.113281 -1.8125 1.507812 -1.8125 C 2.601562 -1.8125 3.773438 -5.359375 4.488281 -5.847656 C 4.488281 -4.226562 5.695312 -2.265625 7.582031 -2.265625 C 8.226562 -2.265625 8.941406 -2.488281 9.695312 -3.019531 L 10.828125 -3.925781 C 12.753906 -5.773438 12.527344 -6.714844 11.960938 -6.714844 C 11.734375 -6.714844 11.46875 -6.601562 11.28125 -6.339844 C 10.753906 -5.773438 10.640625 -5.433594 9.921875 -4.792969 C 9.09375 -3.960938 8.300781 -3.507812 7.582031 -3.507812 C 6.792969 -3.507812 6.113281 -4.113281 5.808594 -5.472656 C 5.472656 -6.90625 6.113281 -8.601562 4.792969 -8.601562 C 4.300781 -8.601562 2.753906 -5.394531 2 -4.226562 L 1.699219 -3.773438 C 1.507812 -3.546875 1.621094 -3.699219 1.507812 -3.585938 C 1.507812 -4.828125 2.039062 -6.261719 2.527344 -7.054688 C 3.621094 -8.941406 4.375 -9.46875 4.941406 -9.46875 C 5.660156 -9.46875 6.113281 -8.601562 6.640625 -8.601562 C 7.621094 -8.601562 6.640625 -10.753906 4.867188 -10.753906 C 2.226562 -10.753906 0 -5.960938 0 -3.8125 Z M 0 -3.8125 "/></g></g></g><g fill="#1c2120" fill-opacity="1"><g transform="translate(184.536473, 158.265056)"><g><path d="M 0.527344 -0.152344 C 1.699219 -0.152344 1.246094 -1.433594 1.472656 -2.414062 C 1.621094 -3.320312 1.960938 -4.074219 2.339844 -4.714844 C 2.941406 -5.695312 3.132812 -5.695312 4.566406 -5.695312 C 4.980469 -5.695312 5.546875 -5.660156 6.035156 -5.660156 C 6.792969 -5.660156 7.394531 -5.734375 7.394531 -6.261719 C 7.394531 -6.753906 6.226562 -6.828125 5.132812 -6.828125 C 4.488281 -6.828125 3.847656 -6.792969 3.507812 -6.792969 C 2.339844 -6.792969 2.113281 -6.074219 1.546875 -5.695312 C 1.546875 -6.1875 1.621094 -6.148438 1.621094 -6.679688 C 1.621094 -7.054688 1.621094 -7.507812 1.660156 -7.886719 C 1.773438 -8.941406 1.960938 -9.660156 0.941406 -9.660156 C 0.113281 -9.660156 0.0390625 -5.734375 0.0390625 -5.054688 C 0.0742188 -4.113281 0.0390625 -3.167969 0.0742188 -2.265625 C 0.0742188 -2 -0.226562 -0.152344 0.527344 -0.152344 Z M 0.527344 -0.152344 "/></g></g></g><g fill="#1c2120" fill-opacity="1"><g transform="translate(190.684996, 158.265056)"><g><path d="M 1.886719 -0.867188 C 1.054688 -2.601562 2.792969 -6 3.054688 -7.09375 C 4.375 -6.226562 3.433594 -1.28125 1.886719 -0.867188 Z M 0 -2.152344 C 0 -0.1875 0.828125 0.792969 1.8125 0.792969 C 2.941406 0.792969 4.339844 -0.527344 4.90625 -3.132812 C 5.734375 -7.019531 3.925781 -7.660156 3.734375 -8.375 C 3.925781 -8.679688 4.261719 -8.902344 4.375 -9.167969 C 4.488281 -9.46875 4.261719 -10.074219 3.773438 -10.074219 C 1.925781 -10.074219 0 -3.847656 0 -2.152344 Z M 0 -2.152344 "/></g></g></g><g fill="#1c2120" fill-opacity="1"><g transform="translate(197.323897, 158.265056)"><g><path d="M 0.0742188 -2.90625 C 0.0742188 -0.453125 0.152344 4.1875 2.1875 4.1875 C 3.132812 4.1875 3.847656 2.753906 4.261719 2.113281 C 5.09375 0.71875 6.113281 -1.925781 6.90625 -3.546875 C 7.09375 -3.925781 8.261719 -6.113281 8.261719 -6.339844 C 8.261719 -6.527344 8.113281 -6.753906 7.921875 -6.753906 C 7.734375 -6.753906 7.507812 -6.601562 7.28125 -6.148438 C 6.074219 -4 4.980469 -1.359375 3.847656 0.828125 C 3.433594 1.699219 2.90625 2.714844 2.074219 3.167969 C 0.378906 -0.0742188 2.488281 -11.808594 3.546875 -15.621094 C 3.660156 -15.996094 4.640625 -18.1875 3.394531 -18.1875 C 2.414062 -18.1875 2.074219 -16.300781 1.734375 -15.203125 C 0.792969 -11.734375 0.0742188 -6.640625 0.0742188 -2.90625 Z M 0.0742188 -2.90625 "/></g></g></g><g fill="#1c2120" fill-opacity="1"><g transform="translate(203.962798, 158.265056)"><g><path d="M 3.132812 0.152344 C 4.90625 0.152344 6.339844 -1.507812 7.242188 -2.453125 C 7.847656 -3.054688 10.113281 -5.582031 10.113281 -6.300781 C 10.113281 -6.640625 10 -6.753906 9.847656 -6.753906 C 9.128906 -6.753906 7.128906 -4.074219 6.980469 -3.886719 C 6.414062 -3.167969 4.453125 -1.167969 3.246094 -1.167969 C 2.226562 -1.167969 1.8125 -3.394531 1.8125 -4.527344 C 1.8125 -8.375 3.320312 -10.074219 1.585938 -10.074219 C 0.828125 -10.074219 0.453125 -8.375 0.339844 -7.582031 C -0.0742188 -5.660156 0 -3.054688 0.90625 -1.359375 C 1.320312 -0.640625 2.113281 0.152344 3.132812 0.152344 Z M 1.925781 -14.828125 C 1.925781 -13.996094 2.414062 -13.621094 2.941406 -13.621094 C 3.699219 -13.621094 4.488281 -14.449219 3.773438 -15.847656 C 3.546875 -16.261719 3.28125 -16.414062 3.019531 -16.414062 C 2.453125 -16.414062 1.925781 -15.695312 1.925781 -14.828125 Z M 1.925781 -14.828125 "/></g></g></g><g fill="#1c2120" fill-opacity="1"><g transform="translate(212.563188, 158.265056)"><g><path d="M 1.054688 -1.960938 C 2.527344 -1.960938 4.035156 -6.792969 5.28125 -7.621094 C 5.621094 -6.90625 5.09375 -5.394531 5.847656 -3.132812 C 6.1875 -2.113281 6.828125 -1.09375 8 -1.09375 C 8.226562 -1.09375 8.453125 -1.132812 8.714844 -1.207031 C 9.582031 -1.433594 10.789062 -2.941406 11.320312 -3.621094 C 11.546875 -3.925781 13.769531 -6.714844 12.300781 -6.714844 C 11.621094 -6.714844 9.621094 -2.226562 8.113281 -2.226562 C 6.714844 -2.226562 6.640625 -5.582031 6.640625 -6.527344 L 6.414062 -8.640625 C 6.226562 -9.054688 5.960938 -9.242188 5.695312 -9.242188 C 4.792969 -9.242188 3.660156 -7.320312 3.433594 -6.90625 L 1.621094 -4.148438 C 1.621094 -7.09375 4.074219 -10.640625 2.414062 -10.640625 C 0.980469 -10.640625 -1.359375 -1.960938 1.054688 -1.960938 Z M 1.054688 -1.960938 "/></g></g></g><g fill="#1c2120" fill-opacity="1"><g transform="translate(223.879489, 158.265056)"><g><path d="M 1.734375 -6.828125 C 2 -7.773438 3.246094 -9.242188 4.261719 -9.433594 C 4.148438 -8.226562 2.679688 -7.320312 1.734375 -6.828125 Z M 0.0390625 -5.921875 C 0.0390625 -4.867188 0 -3.925781 0.90625 -3.019531 C 1.546875 -2.375 2.300781 -2.113281 3.09375 -2.113281 C 5.394531 -2.113281 8 -4.414062 9.394531 -5.808594 C 9.734375 -6.226562 9.734375 -6.261719 9.621094 -6.828125 C 8.488281 -6.828125 9.09375 -6.679688 7.546875 -5.472656 C 7.28125 -5.28125 7.167969 -5.132812 6.867188 -4.90625 C 6.113281 -4.339844 4.527344 -3.246094 3.207031 -3.246094 C 2.753906 -3.246094 2.300781 -3.394531 1.960938 -3.734375 C 1.320312 -4.375 1.394531 -4.980469 1.394531 -5.773438 C 2.566406 -5.847656 3.925781 -6.941406 4.527344 -7.621094 C 5.695312 -9.09375 5.695312 -10.601562 4.035156 -10.601562 C 2.226562 -10.601562 0.0390625 -7.808594 0.0390625 -5.921875 Z M 0.0390625 -5.921875 "/></g></g></g><g fill="#1c2120" fill-opacity="1"><g transform="translate(232.064945, 158.265056)"><g><path d="M 10.1875 0.980469 C 9.921875 0.867188 9.46875 0.753906 9.09375 0.640625 C 8.640625 0.527344 8.148438 0.453125 7.847656 0.339844 C 8 0.152344 9.921875 -1.054688 10.335938 -1.09375 C 10.113281 -0.640625 10.1875 0.300781 10.1875 0.980469 Z M 12.414062 -4.90625 C 12.414062 -6.148438 13.054688 -10.640625 13.242188 -12.1875 C 13.507812 -14.488281 13.808594 -16.941406 14.261719 -19.128906 C 14.488281 -20.261719 14.714844 -21.316406 14.902344 -22.410156 C 15.128906 -23.582031 15.429688 -24.636719 15.621094 -25.808594 C 15.769531 -26.710938 15.582031 -26.675781 16.335938 -27.050781 C 18.449219 -28.109375 19.769531 -28.449219 22.183594 -28.449219 C 24.335938 -28.449219 26.109375 -26.675781 26.109375 -24.523438 C 26.109375 -20.941406 24.296875 -17.996094 22.449219 -15.28125 C 20.148438 -11.882812 15.847656 -7.28125 12.414062 -4.90625 Z M 1.925781 -7.808594 C 1.925781 -6.941406 1.734375 -4.261719 3.246094 -4.261719 C 4.753906 -4.261719 4.867188 -5.582031 4.035156 -5.582031 C 3.886719 -5.582031 3.699219 -5.472656 3.546875 -5.472656 C 3.320312 -5.472656 3.132812 -5.695312 3.132812 -6.90625 C 3.132812 -12.035156 7.433594 -19.769531 11.546875 -23.542969 C 11.921875 -23.882812 12.1875 -24.035156 12.527344 -24.410156 C 12.828125 -24.675781 13.28125 -25.050781 13.621094 -25.164062 L 12.675781 -21.46875 C 11.734375 -16.714844 11.015625 -11.921875 10.601562 -7.054688 L 10.449219 -4.792969 C 10.449219 -3.621094 10.675781 -3.546875 9.886719 -3.019531 C 9.320312 -2.679688 9.015625 -2.414062 8.488281 -2.113281 C 7.394531 -1.433594 6.566406 -0.90625 5.472656 -0.300781 C 4.566406 0.152344 3.394531 0.339844 3.585938 1.207031 C 3.660156 1.621094 3.925781 1.734375 4.261719 1.734375 C 4.753906 1.734375 5.359375 1.507812 5.734375 1.507812 C 7.207031 1.507812 9.09375 1.925781 10.074219 2.414062 C 10.074219 5.246094 9.808594 10.261719 10.035156 12.714844 C 10.148438 13.808594 9.773438 19.769531 11.660156 19.769531 C 12.789062 19.769531 12.1875 18.296875 12.074219 17.128906 C 11.773438 13.507812 11.921875 8.453125 11.921875 4.640625 C 11.921875 4 12.035156 4.074219 12.035156 3.507812 C 12.828125 3.660156 15.847656 6.035156 16.601562 6.640625 C 18.074219 7.847656 29.089844 16.863281 29.917969 16.863281 C 30.257812 16.863281 30.257812 16.789062 30.5625 16.714844 C 30.5625 15.769531 30.484375 15.882812 29.917969 15.46875 C 24.523438 11.621094 19.695312 7.167969 14.640625 3.394531 C 13.734375 2.753906 12.902344 2.375 12.035156 1.734375 C 12.035156 0.792969 12.1875 0.339844 12.1875 -0.605469 C 12.1875 -3.394531 12.488281 -2.414062 15.542969 -5.09375 L 19.582031 -8.828125 C 21.503906 -10.980469 22.5625 -11.996094 24.296875 -14.527344 C 25.996094 -17.128906 27.917969 -20.296875 27.917969 -23.957031 C 27.917969 -27.695312 25.46875 -29.996094 21.617188 -29.996094 C 18.976562 -29.996094 16.035156 -28.597656 13.960938 -27.277344 C 12.414062 -26.222656 12.300781 -25.921875 11.054688 -24.976562 C 7.320312 -22.109375 1.925781 -12.753906 1.925781 -7.808594 Z M 1.925781 -7.808594 "/></g></g></g><g fill="#1c2120" fill-opacity="1"><g transform="translate(255.527415, 158.265056)"><g><path d="M 14.980469 6.792969 L 14.980469 11.546875 L 14.109375 11.546875 C 12.488281 11.546875 9.808594 10.714844 10.753906 9.054688 C 11.242188 8.074219 13.582031 7.09375 14.980469 6.792969 Z M 16.601562 11.320312 L 16.714844 7.886719 C 16.828125 6.640625 16.300781 6.453125 17.507812 6.261719 C 19.203125 6 20.5625 5.847656 21.921875 5.847656 C 22.941406 5.847656 23.996094 5.921875 25.242188 6.113281 C 25.957031 6.226562 26.902344 6.488281 27.617188 6.488281 C 26.789062 7.660156 19.089844 11.320312 16.601562 11.320312 Z M 29.164062 5.507812 C 28.523438 5.507812 28.144531 5.394531 27.617188 5.28125 C 25.390625 4.90625 23.542969 4.679688 21.542969 4.679688 C 20.410156 4.679688 19.242188 4.753906 17.921875 4.941406 C 17.429688 5.019531 17.128906 5.09375 16.941406 5.09375 C 16.375 5.09375 17.015625 4.339844 16.976562 0.226562 L 17.507812 -7.660156 C 17.847656 -10.148438 17.996094 -12.449219 18.449219 -15.203125 C 18.941406 -18.335938 19.429688 -20.601562 19.996094 -23.617188 C 20.261719 -25.015625 20.375 -24.863281 22.75 -25.921875 L 26.523438 -27.242188 C 28.5625 -27.84375 30.863281 -28.296875 33.164062 -28.296875 C 34.824219 -28.296875 36.523438 -28.070312 38.070312 -27.390625 C 45.992188 -24.109375 43.917969 -12.941406 40.484375 -6.980469 C 39.652344 -5.582031 38.671875 -3.960938 37.652344 -2.640625 C 37.425781 -2.375 37.3125 -2.265625 37.125 -2 C 36.484375 -1.167969 33.917969 1.699219 33.164062 2.300781 C 32.863281 2.527344 32.785156 2.566406 32.484375 2.828125 L 30.597656 4.453125 C 30.449219 4.566406 29.164062 5.507812 29.164062 5.507812 Z M 20.75 -26.675781 C 20.75 -27.316406 20.636719 -27.203125 20.148438 -27.46875 C 19.242188 -27.242188 19.203125 -26.523438 18.863281 -25.808594 C 18.675781 -25.277344 17.921875 -24.976562 17.167969 -24.5625 C 15.015625 -23.242188 13.054688 -21.65625 11.167969 -19.996094 C 8.074219 -16.902344 6.074219 -14.828125 3.585938 -11.09375 C 1.847656 -8.527344 -0.753906 -3.660156 -0.753906 -0.226562 C -0.753906 1.8125 0.605469 2.601562 1.433594 2.601562 C 1.847656 2.601562 2.113281 2.414062 2.039062 2.074219 C 1.847656 1.207031 0.414062 2.226562 0.414062 -0.226562 C 0.414062 -4.714844 5.359375 -11.808594 8.453125 -15.355469 L 10.941406 -17.996094 C 12.488281 -19.542969 16.527344 -22.675781 18.261719 -23.542969 L 16.902344 -16.902344 C 16.449219 -14.109375 15.429688 -5.28125 15.46875 -2.300781 C 15.46875 -1.09375 15.203125 0.339844 15.203125 1.546875 C 15.203125 2.867188 15.089844 4 15.089844 5.394531 C 13.621094 6.148438 9.320312 6.601562 9.320312 9.886719 C 9.320312 11.847656 12.109375 12.867188 13.808594 12.867188 C 14.148438 12.867188 14.375 12.828125 14.5625 12.828125 C 14.867188 12.828125 14.941406 13.015625 15.054688 13.960938 C 15.089844 14.5625 15.089844 14.902344 15.242188 15.429688 C 15.46875 16.074219 15.808594 16.300781 16.109375 16.300781 C 16.449219 16.300781 16.75 16.035156 16.714844 15.769531 L 16.5625 12.753906 C 17.542969 12.714844 19.542969 12.148438 20.335938 11.847656 C 22.75 11.09375 26.109375 9.394531 28.222656 8 C 29.050781 7.433594 29.351562 7.09375 29.882812 7.09375 C 30.222656 7.09375 30.597656 7.242188 31.277344 7.582031 C 31.996094 7.960938 31.84375 8.261719 32.371094 8.601562 C 33.578125 7.773438 32.222656 6.527344 31.050781 6.261719 C 31.203125 5.773438 31.617188 5.546875 32.257812 5.09375 C 32.710938 4.714844 33.125 4.375 33.578125 4 C 34.144531 3.546875 35.992188 1.734375 36.558594 1.019531 L 37.691406 -0.226562 C 41.085938 -4.226562 43.464844 -8.300781 44.710938 -13.621094 C 45.726562 -18.074219 45.386719 -23.203125 41.992188 -26.597656 C 39.652344 -28.976562 36.410156 -29.84375 33.125 -29.84375 C 30.863281 -29.84375 28.597656 -29.429688 26.523438 -28.824219 L 22.222656 -27.203125 C 21.730469 -27.015625 21.316406 -26.675781 20.75 -26.675781 Z M 20.75 -26.675781 "/></g></g></g><g fill="#1c2120" fill-opacity="1"><g transform="translate(148.013327, 196.514122)"><g><path d="M 1.453125 -5.019531 L 5.277344 0.421875 L 5.277344 -6.8125 L 4.578125 -6.8125 L 4.578125 -1.804688 L 0.75 -7.242188 L 0.75 0 L 1.453125 0 Z M 1.453125 -5.019531 "/></g></g></g><g fill="#1c2120" fill-opacity="1"><g transform="translate(159.421346, 196.514122)"><g><path d="M 5.679688 -2.253906 L 5.679688 -6.8125 L 4.976562 -6.8125 L 4.976562 -2.152344 C 4.976562 -1.871094 4.929688 -1.644531 4.828125 -1.453125 C 4.539062 -0.890625 3.976562 -0.609375 3.144531 -0.609375 C 2.605469 -0.609375 2.171875 -0.730469 1.851562 -0.972656 C 1.480469 -1.242188 1.300781 -1.632812 1.300781 -2.152344 L 1.300781 -6.8125 L 0.601562 -6.8125 L 0.601562 -2.253906 C 0.601562 -1.511719 0.839844 -0.929688 1.320312 -0.511719 C 1.773438 -0.109375 2.382812 0.0898438 3.144531 0.0898438 C 3.894531 0.0898438 4.496094 -0.109375 4.957031 -0.511719 C 5.4375 -0.929688 5.679688 -1.511719 5.679688 -2.253906 Z M 5.679688 -2.253906 "/></g></g></g><g fill="#1c2120" fill-opacity="1"><g transform="translate(171.079754, 196.514122)"><g><path d="M 0.199219 -6.179688 L 1.851562 -6.179688 L 1.851562 -0.0195312 L 2.554688 -0.0195312 L 2.554688 -6.179688 L 4.207031 -6.179688 L 4.207031 -6.832031 L 0.199219 -6.832031 Z M 0.199219 -6.179688 "/></g></g></g><g fill="#1c2120" fill-opacity="1"><g transform="translate(180.865219, 196.514122)"><g><path d="M 1.453125 -3.367188 L 1.453125 -6.140625 L 3.035156 -6.140625 C 3.445312 -6.140625 3.777344 -6.007812 4.027344 -5.75 C 4.265625 -5.488281 4.398438 -5.167969 4.398438 -4.765625 C 4.398438 -4.367188 4.265625 -4.035156 4.007812 -3.765625 C 3.746094 -3.496094 3.425781 -3.367188 3.035156 -3.367188 Z M 5.097656 -4.757812 C 5.097656 -5.339844 4.878906 -5.839844 4.457031 -6.230469 C 4.046875 -6.609375 3.535156 -6.8125 2.933594 -6.8125 L 0.75 -6.8125 L 0.75 0 L 1.453125 0 L 1.453125 -2.695312 L 2.261719 -2.695312 L 4.265625 0 L 5.207031 0 L 3.105469 -2.695312 C 3.636719 -2.722656 4.085938 -2.914062 4.457031 -3.265625 C 4.878906 -3.65625 5.097656 -4.15625 5.097656 -4.757812 Z M 5.097656 -4.757812 "/></g></g></g><g fill="#1c2120" fill-opacity="1"><g transform="translate(191.692331, 196.514122)"><g><path d="M 1.453125 0 L 1.453125 -6.8125 L 0.75 -6.8125 L 0.75 0 Z M 1.453125 0 "/></g></g></g><g fill="#1c2120" fill-opacity="1"><g transform="translate(199.274337, 196.514122)"><g><path d="M 0.199219 -6.179688 L 1.851562 -6.179688 L 1.851562 -0.0195312 L 2.554688 -0.0195312 L 2.554688 -6.179688 L 4.207031 -6.179688 L 4.207031 -6.832031 L 0.199219 -6.832031 Z M 0.199219 -6.179688 "/></g></g></g><g fill="#1c2120" fill-opacity="1"><g transform="translate(209.059804, 196.514122)"><g><path d="M 1.453125 0 L 1.453125 -6.8125 L 0.75 -6.8125 L 0.75 0 Z M 1.453125 0 "/></g></g></g><g fill="#1c2120" fill-opacity="1"><g transform="translate(216.64181, 196.514122)"><g><path d="M 6.75 -3.425781 C 6.75 -2.644531 6.46875 -1.984375 5.929688 -1.441406 C 5.378906 -0.890625 4.71875 -0.621094 3.945312 -0.621094 C 3.175781 -0.621094 2.515625 -0.890625 1.972656 -1.441406 C 1.421875 -1.984375 1.152344 -2.644531 1.152344 -3.425781 C 1.152344 -4.1875 1.421875 -4.847656 1.972656 -5.398438 C 2.515625 -5.9375 3.175781 -6.21875 3.945312 -6.21875 C 4.71875 -6.21875 5.378906 -5.9375 5.929688 -5.398438 C 6.46875 -4.847656 6.75 -4.1875 6.75 -3.425781 Z M 7.453125 -3.425781 C 7.453125 -3.90625 7.351562 -4.355469 7.171875 -4.789062 C 6.992188 -5.207031 6.742188 -5.578125 6.421875 -5.898438 C 6.097656 -6.210938 5.730469 -6.460938 5.308594 -6.640625 C 4.878906 -6.820312 4.425781 -6.921875 3.945312 -6.921875 C 3.464844 -6.921875 3.003906 -6.820312 2.585938 -6.640625 C 2.164062 -6.460938 1.792969 -6.210938 1.472656 -5.898438 C 1.152344 -5.578125 0.902344 -5.207031 0.722656 -4.789062 C 0.539062 -4.355469 0.449219 -3.90625 0.449219 -3.425781 C 0.449219 -2.945312 0.539062 -2.484375 0.722656 -2.0625 C 0.902344 -1.632812 1.152344 -1.261719 1.472656 -0.941406 C 1.792969 -0.621094 2.164062 -0.371094 2.585938 -0.191406 C 3.003906 -0.0117188 3.464844 0.0820312 3.945312 0.0820312 C 4.425781 0.0820312 4.878906 -0.0117188 5.308594 -0.191406 C 5.730469 -0.371094 6.097656 -0.621094 6.421875 -0.941406 C 6.742188 -1.261719 6.992188 -1.632812 7.171875 -2.0625 C 7.351562 -2.484375 7.453125 -2.945312 7.453125 -3.425781 Z M 7.453125 -3.425781 "/></g></g></g><g fill="#1c2120" fill-opacity="1"><g transform="translate(229.922768, 196.514122)"><g><path d="M 1.453125 -5.019531 L 5.277344 0.421875 L 5.277344 -6.8125 L 4.578125 -6.8125 L 4.578125 -1.804688 L 0.75 -7.242188 L 0.75 0 L 1.453125 0 Z M 1.453125 -5.019531 "/></g></g></g><g fill="#1c2120" fill-opacity="1"><g transform="translate(241.330788, 196.514122)"><g/></g></g><g fill="#1c2120" fill-opacity="1"><g transform="translate(249.413582, 196.514122)"><g><path d="M 0.199219 -6.179688 L 1.851562 -6.179688 L 1.851562 -0.0195312 L 2.554688 -0.0195312 L 2.554688 -6.179688 L 4.207031 -6.179688 L 4.207031 -6.832031 L 0.199219 -6.832031 Z M 0.199219 -6.179688 "/></g></g></g><g fill="#1c2120" fill-opacity="1"><g transform="translate(259.199049, 196.514122)"><g><path d="M 1.453125 0 L 1.453125 -3.042969 L 4.546875 -3.042969 L 4.546875 0 L 5.25 0 L 5.25 -6.8125 L 4.546875 -6.8125 L 4.546875 -3.746094 L 1.453125 -3.746094 L 1.453125 -6.8125 L 0.75 -6.8125 L 0.75 0 Z M 1.453125 0 "/></g></g></g><g fill="#1c2120" fill-opacity="1"><g transform="translate(270.57702, 196.514122)"><g><path d="M 4.796875 0 L 4.796875 -0.652344 L 1.453125 -0.652344 L 1.453125 -3.074219 L 4.699219 -3.074219 L 4.699219 -3.734375 L 1.453125 -3.734375 L 1.453125 -6.160156 L 4.796875 -6.160156 L 4.796875 -6.8125 L 0.75 -6.8125 L 0.75 0 Z M 4.796875 0 "/></g></g></g><g fill="#1c2120" fill-opacity="1"><g transform="translate(281.504282, 196.514122)"><g><path d="M 1.453125 -3.367188 L 1.453125 -6.140625 L 3.035156 -6.140625 C 3.445312 -6.140625 3.777344 -6.007812 4.027344 -5.75 C 4.265625 -5.488281 4.398438 -5.167969 4.398438 -4.765625 C 4.398438 -4.367188 4.265625 -4.035156 4.007812 -3.765625 C 3.746094 -3.496094 3.425781 -3.367188 3.035156 -3.367188 Z M 5.097656 -4.757812 C 5.097656 -5.339844 4.878906 -5.839844 4.457031 -6.230469 C 4.046875 -6.609375 3.535156 -6.8125 2.933594 -6.8125 L 0.75 -6.8125 L 0.75 0 L 1.453125 0 L 1.453125 -2.695312 L 2.261719 -2.695312 L 4.265625 0 L 5.207031 0 L 3.105469 -2.695312 C 3.636719 -2.722656 4.085938 -2.914062 4.457031 -3.265625 C 4.878906 -3.65625 5.097656 -4.15625 5.097656 -4.757812 Z M 5.097656 -4.757812 "/></g></g></g><g fill="#1c2120" fill-opacity="1"><g transform="translate(292.331395, 196.514122)"><g><path d="M 1.851562 -2.503906 L 3.09375 -5.640625 L 4.328125 -2.503906 Z M 6.078125 0 L 3.09375 -7.28125 L 0.101562 0 L 0.863281 0 L 1.59375 -1.851562 L 4.585938 -1.851562 L 5.316406 0 Z M 6.078125 0 "/></g></g></g><g fill="#1c2120" fill-opacity="1"><g transform="translate(303.889655, 196.514122)"><g><path d="M 1.453125 -3.375 L 1.453125 -6.140625 L 3.035156 -6.140625 C 3.445312 -6.140625 3.777344 -6.007812 4.027344 -5.757812 C 4.265625 -5.5 4.398438 -5.179688 4.398438 -4.777344 C 4.398438 -4.367188 4.265625 -4.035156 4.007812 -3.765625 C 3.746094 -3.503906 3.425781 -3.375 3.035156 -3.375 Z M 5.097656 -4.757812 C 5.097656 -5.359375 4.878906 -5.847656 4.457031 -6.238281 C 4.035156 -6.621094 3.535156 -6.8125 2.933594 -6.8125 L 0.75 -6.8125 L 0.75 0 L 1.453125 0 L 1.453125 -2.695312 L 2.933594 -2.695312 C 3.535156 -2.695312 4.046875 -2.882812 4.457031 -3.265625 C 4.878906 -3.664062 5.097656 -4.15625 5.097656 -4.757812 Z M 5.097656 -4.757812 "/></g></g></g><g fill="#1c2120" fill-opacity="1"><g transform="translate(314.566528, 196.514122)"><g><path d="M 3.386719 -3.203125 L 5.960938 -6.8125 L 5.066406 -6.8125 L 3.035156 -3.894531 L 1 -6.8125 L 0.101562 -6.8125 L 2.683594 -3.195312 L 2.683594 0 L 3.386719 0 Z M 3.386719 -3.203125 "/></g></g></g><path fill="#f28c45" d="M 78.597656 131.613281 C 74.433594 134.363281 71.082031 138.1875 68.050781 142.160156 C 65.316406 145.75 62.757812 149.585938 61.523438 153.929688 C 59.972656 159.371094 60.609375 165.164062 61.253906 170.785156 C 61.695312 174.605469 62.148438 178.480469 63.585938 182.046875 C 65.253906 186.175781 68.148438 189.675781 71.09375 193.011719 C 75.253906 197.71875 79.816406 202.40625 85.6875 204.613281 C 89.050781 205.875 92.671875 206.253906 96.253906 206.535156 C 101.710938 206.960938 107.28125 207.171875 112.578125 205.792969 C 117.757812 204.441406 122.484375 201.597656 126.40625 197.949219 C 133.074219 191.734375 137.441406 183.132812 138.746094 174.09375 C 140.054688 165.054688 138.332031 155.632812 134.113281 147.539062 C 130.273438 140.175781 124.316406 133.851562 116.957031 130.042969 C 110.871094 126.890625 103.726562 125.464844 96.914062 126.421875 C 90.816406 127.273438 83.855469 128.136719 78.597656 131.613281 Z M 78.597656 131.613281 " fill-opacity="1" fill-rule="nonzero"/><path fill="#fde2d2" d="M 81.878906 141.519531 C 81.8125 141.519531 81.746094 141.519531 81.683594 141.519531 C 81.597656 141.515625 81.519531 141.535156 81.449219 141.570312 C 81.375 141.597656 81.308594 141.636719 81.253906 141.699219 C 81.195312 141.753906 81.152344 141.816406 81.128906 141.894531 C 81.089844 141.964844 81.074219 142.042969 81.078125 142.128906 C 81.085938 142.179688 81.089844 142.234375 81.097656 142.289062 C 81.128906 142.390625 81.179688 142.480469 81.253906 142.554688 C 81.296875 142.589844 81.335938 142.621094 81.375 142.652344 C 81.472656 142.707031 81.574219 142.734375 81.683594 142.734375 C 81.746094 142.734375 81.8125 142.734375 81.878906 142.734375 C 81.960938 142.738281 82.039062 142.71875 82.109375 142.683594 C 82.1875 142.65625 82.25 142.617188 82.304688 142.554688 C 82.363281 142.5 82.40625 142.4375 82.429688 142.359375 C 82.46875 142.289062 82.484375 142.210938 82.484375 142.125 C 82.476562 142.074219 82.46875 142.019531 82.460938 141.964844 C 82.433594 141.863281 82.378906 141.773438 82.304688 141.699219 C 82.265625 141.664062 82.222656 141.632812 82.183594 141.601562 C 82.089844 141.546875 81.988281 141.519531 81.878906 141.519531 Z M 81.878906 141.519531 " fill-opacity="1" fill-rule="nonzero"/><path fill="#fde2d2" d="M 76.449219 155.878906 C 76.515625 155.816406 76.578125 155.75 76.644531 155.683594 C 76.703125 155.628906 76.746094 155.566406 76.769531 155.488281 C 76.808594 155.417969 76.824219 155.339844 76.820312 155.253906 C 76.824219 155.171875 76.808594 155.09375 76.769531 155.019531 C 76.746094 154.945312 76.703125 154.878906 76.644531 154.824219 C 76.601562 154.792969 76.5625 154.761719 76.523438 154.730469 C 76.425781 154.675781 76.324219 154.648438 76.214844 154.648438 C 76.164062 154.65625 76.109375 154.664062 76.054688 154.667969 C 75.953125 154.699219 75.863281 154.75 75.789062 154.824219 C 75.722656 154.890625 75.660156 154.957031 75.59375 155.023438 C 75.535156 155.078125 75.492188 155.140625 75.46875 155.21875 C 75.429688 155.289062 75.414062 155.367188 75.414062 155.449219 C 75.414062 155.535156 75.429688 155.613281 75.46875 155.683594 C 75.492188 155.761719 75.535156 155.824219 75.59375 155.878906 C 75.632812 155.914062 75.675781 155.945312 75.714844 155.976562 C 75.808594 156.03125 75.910156 156.058594 76.019531 156.058594 C 76.074219 156.050781 76.128906 156.042969 76.183594 156.035156 C 76.285156 156.007812 76.375 155.957031 76.449219 155.878906 Z M 76.449219 155.878906 " fill-opacity="1" fill-rule="nonzero"/><path fill="#fde2d2" d="M 84.414062 158.800781 C 85.195312 158.800781 85.195312 157.585938 84.414062 157.585938 C 83.636719 157.585938 83.636719 158.800781 84.414062 158.800781 Z M 84.414062 158.800781 " fill-opacity="1" fill-rule="nonzero"/><path fill="#fde2d2" d="M 79.710938 167.992188 C 79.710938 168.054688 79.710938 168.121094 79.710938 168.1875 C 79.707031 168.269531 79.726562 168.347656 79.761719 168.421875 C 79.789062 168.496094 79.828125 168.5625 79.886719 168.617188 C 79.941406 168.675781 80.007812 168.71875 80.082031 168.742188 C 80.15625 168.78125 80.234375 168.796875 80.316406 168.796875 C 80.371094 168.789062 80.421875 168.78125 80.476562 168.773438 C 80.578125 168.746094 80.667969 168.691406 80.746094 168.617188 C 80.777344 168.574219 80.808594 168.535156 80.839844 168.496094 C 80.894531 168.398438 80.921875 168.296875 80.921875 168.1875 C 80.921875 168.121094 80.921875 168.058594 80.921875 167.992188 C 80.925781 167.90625 80.90625 167.828125 80.871094 167.757812 C 80.84375 167.683594 80.804688 167.617188 80.742188 167.5625 C 80.6875 167.503906 80.625 167.460938 80.550781 167.4375 C 80.476562 167.398438 80.398438 167.382812 80.316406 167.382812 C 80.261719 167.390625 80.207031 167.398438 80.15625 167.40625 C 80.054688 167.433594 79.964844 167.488281 79.886719 167.5625 C 79.855469 167.601562 79.824219 167.644531 79.792969 167.683594 C 79.738281 167.78125 79.710938 167.882812 79.710938 167.992188 Z M 79.710938 167.992188 " fill-opacity="1" fill-rule="nonzero"/><path fill="#fde2d2" d="M 71.921875 171.539062 C 72.699219 171.539062 72.703125 170.324219 71.921875 170.324219 C 71.144531 170.324219 71.140625 171.539062 71.921875 171.539062 Z M 71.921875 171.539062 " fill-opacity="1" fill-rule="nonzero"/><path fill="#fde2d2" d="M 68.992188 153.902344 C 69.058594 153.902344 69.125 153.902344 69.1875 153.902344 C 69.273438 153.90625 69.351562 153.886719 69.421875 153.851562 C 69.496094 153.824219 69.5625 153.785156 69.617188 153.726562 C 69.675781 153.667969 69.71875 153.605469 69.742188 153.53125 C 69.78125 153.457031 69.796875 153.378906 69.792969 153.296875 C 69.785156 153.242188 69.78125 153.1875 69.773438 153.132812 C 69.742188 153.03125 69.691406 152.941406 69.617188 152.867188 C 69.574219 152.835938 69.535156 152.800781 69.496094 152.769531 C 69.398438 152.714844 69.296875 152.6875 69.1875 152.6875 C 69.125 152.6875 69.058594 152.6875 68.992188 152.6875 C 68.910156 152.683594 68.832031 152.703125 68.761719 152.742188 C 68.683594 152.765625 68.621094 152.808594 68.566406 152.867188 C 68.507812 152.921875 68.464844 152.984375 68.441406 153.0625 C 68.402344 153.132812 68.386719 153.210938 68.386719 153.296875 C 68.394531 153.347656 68.402344 153.402344 68.410156 153.457031 C 68.4375 153.558594 68.492188 153.648438 68.566406 153.726562 C 68.605469 153.757812 68.648438 153.789062 68.6875 153.820312 C 68.78125 153.875 68.882812 153.902344 68.992188 153.902344 Z M 68.992188 153.902344 " fill-opacity="1" fill-rule="nonzero"/><path fill="#fde2d2" d="M 74.070312 163.308594 C 74.847656 163.308594 74.847656 162.09375 74.070312 162.09375 C 73.289062 162.09375 73.289062 163.308594 74.070312 163.308594 Z M 74.070312 163.308594 " fill-opacity="1" fill-rule="nonzero"/><path fill="#fde2d2" d="M 68.054688 161.953125 C 68.121094 161.890625 68.183594 161.824219 68.25 161.757812 C 68.308594 161.703125 68.351562 161.636719 68.375 161.5625 C 68.414062 161.492188 68.429688 161.414062 68.425781 161.328125 C 68.429688 161.246094 68.414062 161.167969 68.375 161.09375 C 68.351562 161.019531 68.308594 160.953125 68.25 160.898438 C 68.207031 160.867188 68.167969 160.835938 68.128906 160.804688 C 68.03125 160.75 67.929688 160.722656 67.820312 160.722656 C 67.769531 160.730469 67.714844 160.738281 67.660156 160.742188 C 67.558594 160.773438 67.46875 160.824219 67.394531 160.898438 C 67.328125 160.964844 67.265625 161.03125 67.199219 161.09375 C 67.140625 161.152344 67.097656 161.214844 67.074219 161.289062 C 67.035156 161.363281 67.019531 161.441406 67.019531 161.523438 C 67.019531 161.609375 67.035156 161.6875 67.074219 161.757812 C 67.097656 161.835938 67.140625 161.898438 67.199219 161.953125 C 67.238281 161.984375 67.28125 162.019531 67.320312 162.050781 C 67.414062 162.105469 67.515625 162.132812 67.625 162.132812 C 67.679688 162.125 67.734375 162.117188 67.789062 162.109375 C 67.890625 162.082031 67.980469 162.03125 68.054688 161.953125 Z M 68.054688 161.953125 " fill-opacity="1" fill-rule="nonzero"/><path fill="#fde2d2" d="M 83.636719 151.355469 C 84.414062 151.355469 84.414062 150.140625 83.636719 150.140625 C 82.855469 150.140625 82.855469 151.355469 83.636719 151.355469 Z M 83.636719 151.355469 " fill-opacity="1" fill-rule="nonzero"/><path fill="#fde2d2" d="M 74.460938 147.242188 C 74.523438 147.242188 74.589844 147.242188 74.65625 147.242188 C 74.738281 147.242188 74.816406 147.226562 74.886719 147.1875 C 74.964844 147.164062 75.027344 147.121094 75.082031 147.0625 C 75.140625 147.007812 75.183594 146.941406 75.207031 146.867188 C 75.246094 146.796875 75.261719 146.71875 75.261719 146.632812 C 75.253906 146.578125 75.246094 146.527344 75.238281 146.472656 C 75.210938 146.367188 75.15625 146.28125 75.082031 146.203125 C 75.042969 146.171875 75 146.140625 74.960938 146.109375 C 74.867188 146.054688 74.765625 146.027344 74.65625 146.027344 C 74.589844 146.027344 74.523438 146.027344 74.460938 146.027344 C 74.375 146.023438 74.296875 146.039062 74.226562 146.078125 C 74.152344 146.101562 74.085938 146.144531 74.03125 146.203125 C 73.972656 146.257812 73.929688 146.324219 73.90625 146.398438 C 73.867188 146.472656 73.851562 146.550781 73.855469 146.632812 C 73.863281 146.6875 73.867188 146.742188 73.875 146.796875 C 73.90625 146.898438 73.957031 146.988281 74.03125 147.0625 C 74.074219 147.09375 74.113281 147.125 74.152344 147.15625 C 74.25 147.210938 74.351562 147.242188 74.460938 147.242188 Z M 74.460938 147.242188 " fill-opacity="1" fill-rule="nonzero"/><path fill="#fde2d2" d="M 90.859375 145.871094 C 91.636719 145.871094 91.636719 144.65625 90.859375 144.65625 C 90.078125 144.65625 90.078125 145.871094 90.859375 145.871094 Z M 90.859375 145.871094 " fill-opacity="1" fill-rule="nonzero"/><path fill="#fde2d2" d="M 120.921875 167.421875 C 121.699219 167.421875 121.699219 166.207031 120.921875 166.207031 C 120.140625 166.207031 120.140625 167.421875 120.921875 167.421875 Z M 120.921875 167.421875 " fill-opacity="1" fill-rule="nonzero"/><path fill="#fde2d2" d="M 111.941406 178.003906 C 112.007812 178.003906 112.070312 178.003906 112.136719 178.003906 C 112.21875 178.007812 112.296875 177.988281 112.371094 177.953125 C 112.445312 177.925781 112.507812 177.886719 112.5625 177.824219 C 112.625 177.769531 112.664062 177.707031 112.691406 177.628906 C 112.726562 177.558594 112.746094 177.480469 112.742188 177.398438 C 112.734375 177.34375 112.726562 177.289062 112.71875 177.234375 C 112.691406 177.132812 112.640625 177.042969 112.566406 176.96875 C 112.523438 176.933594 112.484375 176.902344 112.441406 176.871094 C 112.347656 176.816406 112.246094 176.789062 112.136719 176.789062 C 112.070312 176.789062 112.007812 176.789062 111.941406 176.789062 C 111.859375 176.785156 111.78125 176.804688 111.707031 176.839844 C 111.632812 176.867188 111.566406 176.90625 111.511719 176.96875 C 111.453125 177.023438 111.414062 177.085938 111.386719 177.164062 C 111.351562 177.234375 111.332031 177.3125 111.335938 177.398438 C 111.34375 177.449219 111.351562 177.503906 111.359375 177.558594 C 111.386719 177.660156 111.4375 177.75 111.511719 177.828125 C 111.554688 177.859375 111.59375 177.890625 111.636719 177.921875 C 111.730469 177.976562 111.832031 178.003906 111.941406 178.003906 Z M 111.941406 178.003906 " fill-opacity="1" fill-rule="nonzero"/><path fill="#fde2d2" d="M 122.09375 191.917969 C 122.15625 191.917969 122.222656 191.917969 122.289062 191.917969 C 122.371094 191.917969 122.449219 191.902344 122.519531 191.863281 C 122.597656 191.839844 122.660156 191.796875 122.714844 191.738281 C 122.773438 191.683594 122.816406 191.617188 122.839844 191.542969 C 122.878906 191.46875 122.894531 191.390625 122.894531 191.308594 C 122.886719 191.253906 122.878906 191.199219 122.871094 191.148438 C 122.84375 191.042969 122.789062 190.953125 122.714844 190.878906 C 122.675781 190.847656 122.632812 190.816406 122.59375 190.785156 C 122.5 190.730469 122.398438 190.703125 122.289062 190.699219 C 122.222656 190.699219 122.15625 190.699219 122.09375 190.699219 C 122.007812 190.699219 121.933594 190.714844 121.859375 190.753906 C 121.785156 190.777344 121.71875 190.820312 121.664062 190.878906 C 121.605469 190.933594 121.5625 191 121.539062 191.074219 C 121.5 191.148438 121.484375 191.226562 121.488281 191.308594 C 121.496094 191.363281 121.503906 191.417969 121.507812 191.46875 C 121.539062 191.574219 121.589844 191.664062 121.664062 191.738281 C 121.707031 191.769531 121.746094 191.800781 121.789062 191.832031 C 121.882812 191.886719 121.984375 191.914062 122.09375 191.917969 Z M 122.09375 191.917969 " fill-opacity="1" fill-rule="nonzero"/><path fill="#fde2d2" d="M 106.542969 198.003906 C 106.539062 198.007812 106.535156 198.007812 106.53125 198.011719 C 106.578125 197.988281 106.628906 197.96875 106.675781 197.949219 C 106.671875 197.949219 106.667969 197.953125 106.664062 197.953125 C 106.714844 197.945312 106.769531 197.9375 106.824219 197.929688 C 106.820312 197.933594 106.816406 197.933594 106.8125 197.929688 C 106.867188 197.9375 106.921875 197.945312 106.972656 197.953125 C 106.972656 197.953125 106.96875 197.953125 106.964844 197.949219 C 107.015625 197.972656 107.0625 197.992188 107.109375 198.011719 C 107.109375 198.011719 107.105469 198.007812 107.101562 198.007812 C 107.144531 198.039062 107.183594 198.070312 107.226562 198.101562 C 107.222656 198.101562 107.21875 198.097656 107.21875 198.09375 C 107.25 198.136719 107.28125 198.175781 107.3125 198.21875 C 107.308594 198.214844 107.308594 198.207031 107.304688 198.203125 C 107.324219 198.25 107.34375 198.300781 107.367188 198.347656 C 107.363281 198.339844 107.359375 198.328125 107.359375 198.320312 C 107.363281 198.375 107.371094 198.425781 107.378906 198.480469 C 107.378906 198.46875 107.378906 198.453125 107.378906 198.441406 C 107.371094 198.492188 107.363281 198.546875 107.359375 198.601562 C 107.359375 198.589844 107.363281 198.582031 107.367188 198.570312 C 107.34375 198.617188 107.324219 198.667969 107.304688 198.714844 C 107.308594 198.710938 107.308594 198.707031 107.3125 198.699219 C 107.28125 198.742188 107.25 198.78125 107.21875 198.824219 C 107.222656 198.820312 107.222656 198.816406 107.226562 198.816406 C 107.1875 198.847656 107.144531 198.878906 107.105469 198.910156 C 107.105469 198.90625 107.109375 198.90625 107.113281 198.90625 C 107.0625 198.925781 107.015625 198.945312 106.96875 198.964844 C 106.96875 198.964844 106.972656 198.964844 106.976562 198.964844 C 106.921875 198.972656 106.867188 198.980469 106.816406 198.984375 C 106.816406 198.984375 106.820312 198.984375 106.824219 198.984375 C 106.769531 198.980469 106.71875 198.972656 106.664062 198.964844 C 106.667969 198.964844 106.671875 198.964844 106.675781 198.96875 C 106.628906 198.945312 106.578125 198.925781 106.53125 198.90625 C 106.535156 198.90625 106.539062 198.910156 106.542969 198.914062 C 106.613281 198.957031 106.6875 198.980469 106.769531 198.984375 C 106.847656 199.003906 106.929688 199 107.007812 198.972656 C 107.089844 198.957031 107.15625 198.917969 107.214844 198.867188 C 107.28125 198.824219 107.332031 198.765625 107.371094 198.695312 C 107.390625 198.648438 107.410156 198.597656 107.433594 198.550781 C 107.460938 198.441406 107.460938 198.335938 107.433594 198.226562 C 107.410156 198.179688 107.390625 198.128906 107.371094 198.082031 C 107.316406 197.992188 107.246094 197.917969 107.152344 197.863281 C 107.152344 197.863281 107.148438 197.859375 107.144531 197.859375 C 107.121094 197.847656 107.0625 197.824219 107.070312 197.828125 C 107.089844 197.835938 107.019531 197.804688 106.996094 197.796875 C 106.992188 197.792969 106.992188 197.792969 106.988281 197.792969 C 106.988281 197.792969 106.988281 197.792969 106.984375 197.792969 C 106.980469 197.792969 106.832031 197.773438 106.824219 197.769531 C 106.820312 197.769531 106.820312 197.769531 106.816406 197.769531 C 106.8125 197.769531 106.660156 197.792969 106.652344 197.792969 C 106.652344 197.792969 106.652344 197.792969 106.648438 197.792969 C 106.648438 197.792969 106.648438 197.792969 106.644531 197.796875 C 106.640625 197.796875 106.503906 197.855469 106.5 197.855469 C 106.496094 197.859375 106.496094 197.859375 106.496094 197.859375 C 106.394531 197.921875 106.324219 197.992188 106.265625 198.09375 C 106.234375 198.140625 106.21875 198.199219 106.199219 198.25 C 106.195312 198.253906 106.195312 198.257812 106.191406 198.261719 C 106.191406 198.269531 106.191406 198.273438 106.191406 198.277344 C 106.183594 198.320312 106.171875 198.398438 106.167969 198.441406 C 106.167969 198.441406 106.167969 198.445312 106.167969 198.445312 C 106.167969 198.449219 106.167969 198.453125 106.167969 198.453125 C 106.167969 198.457031 106.167969 198.464844 106.167969 198.46875 C 106.167969 198.472656 106.167969 198.476562 106.167969 198.476562 C 106.171875 198.503906 106.175781 198.535156 106.179688 198.5625 C 106.183594 198.585938 106.1875 198.617188 106.191406 198.644531 C 106.191406 198.652344 106.191406 198.65625 106.195312 198.660156 C 106.195312 198.660156 106.195312 198.664062 106.195312 198.667969 C 106.195312 198.667969 106.195312 198.667969 106.199219 198.667969 C 106.207031 198.691406 106.25 198.792969 106.257812 198.816406 C 106.261719 198.820312 106.261719 198.824219 106.265625 198.828125 C 106.273438 198.839844 106.355469 198.945312 106.363281 198.953125 C 106.363281 198.953125 106.363281 198.953125 106.363281 198.957031 C 106.363281 198.957031 106.367188 198.957031 106.367188 198.960938 C 106.40625 198.996094 106.449219 199.03125 106.496094 199.058594 C 106.496094 199.058594 106.5 199.058594 106.5 199.058594 C 106.503906 199.0625 106.640625 199.121094 106.644531 199.121094 C 106.644531 199.121094 106.648438 199.125 106.648438 199.125 C 106.652344 199.125 106.652344 199.125 106.652344 199.125 C 106.65625 199.125 106.808594 199.144531 106.8125 199.144531 C 106.816406 199.144531 106.816406 199.144531 106.816406 199.144531 C 106.816406 199.144531 106.820312 199.144531 106.820312 199.144531 C 106.832031 199.144531 106.972656 199.125 106.984375 199.125 C 106.988281 199.125 106.988281 199.125 106.992188 199.121094 C 107.046875 199.105469 107.101562 199.085938 107.152344 199.054688 C 107.222656 199.015625 107.277344 198.964844 107.320312 198.898438 C 107.375 198.839844 107.410156 198.769531 107.429688 198.691406 C 107.453125 198.609375 107.457031 198.53125 107.441406 198.449219 C 107.4375 198.367188 107.414062 198.292969 107.367188 198.222656 C 107.335938 198.183594 107.304688 198.140625 107.273438 198.101562 C 107.199219 198.023438 107.109375 197.972656 107.007812 197.945312 C 106.953125 197.9375 106.898438 197.929688 106.847656 197.921875 C 106.738281 197.921875 106.636719 197.949219 106.542969 198.003906 Z M 106.542969 198.003906 " fill-opacity="1" fill-rule="nonzero"/><path fill="#fde2d2" d="M 128.144531 183.253906 C 128.078125 183.253906 128.015625 183.253906 127.949219 183.253906 C 127.867188 183.253906 127.789062 183.269531 127.714844 183.308594 C 127.640625 183.332031 127.574219 183.375 127.519531 183.433594 C 127.460938 183.488281 127.421875 183.554688 127.394531 183.628906 C 127.359375 183.703125 127.339844 183.78125 127.34375 183.863281 C 127.351562 183.917969 127.359375 183.96875 127.367188 184.023438 C 127.394531 184.128906 127.445312 184.214844 127.519531 184.292969 C 127.5625 184.324219 127.601562 184.355469 127.644531 184.386719 C 127.738281 184.441406 127.839844 184.46875 127.949219 184.46875 C 128.011719 184.46875 128.078125 184.46875 128.144531 184.46875 C 128.226562 184.472656 128.304688 184.457031 128.378906 184.417969 C 128.453125 184.394531 128.515625 184.351562 128.570312 184.292969 C 128.632812 184.238281 128.671875 184.171875 128.695312 184.097656 C 128.734375 184.023438 128.753906 183.945312 128.75 183.863281 C 128.742188 183.808594 128.734375 183.753906 128.726562 183.703125 C 128.699219 183.597656 128.648438 183.507812 128.570312 183.433594 C 128.53125 183.402344 128.492188 183.371094 128.449219 183.339844 C 128.355469 183.285156 128.253906 183.257812 128.144531 183.253906 Z M 128.144531 183.253906 " fill-opacity="1" fill-rule="nonzero"/><path fill="#fde2d2" d="M 117.230469 185.039062 C 117.230469 184.972656 117.230469 184.90625 117.230469 184.84375 C 117.234375 184.757812 117.21875 184.679688 117.179688 184.609375 C 117.15625 184.535156 117.113281 184.46875 117.054688 184.414062 C 117 184.355469 116.933594 184.3125 116.859375 184.289062 C 116.789062 184.25 116.710938 184.230469 116.625 184.234375 C 116.574219 184.242188 116.519531 184.25 116.464844 184.257812 C 116.363281 184.285156 116.273438 184.339844 116.199219 184.414062 C 116.167969 184.453125 116.136719 184.496094 116.105469 184.535156 C 116.050781 184.628906 116.019531 184.734375 116.019531 184.84375 C 116.019531 184.90625 116.019531 184.972656 116.019531 185.039062 C 116.019531 185.121094 116.035156 185.199219 116.074219 185.273438 C 116.097656 185.347656 116.140625 185.414062 116.199219 185.46875 C 116.253906 185.527344 116.316406 185.570312 116.394531 185.59375 C 116.464844 185.632812 116.542969 185.648438 116.625 185.644531 C 116.679688 185.640625 116.734375 185.632812 116.789062 185.625 C 116.890625 185.59375 116.980469 185.542969 117.054688 185.46875 C 117.085938 185.425781 117.117188 185.386719 117.148438 185.34375 C 117.203125 185.25 117.230469 185.148438 117.230469 185.039062 Z M 117.230469 185.039062 " fill-opacity="1" fill-rule="nonzero"/><path fill="#fde2d2" d="M 123.460938 176.984375 C 123.417969 176.984375 123.378906 176.984375 123.339844 176.984375 C 122.558594 176.984375 122.558594 178.199219 123.339844 178.199219 C 123.378906 178.199219 123.417969 178.199219 123.460938 178.199219 C 124.238281 178.199219 124.238281 176.984375 123.460938 176.984375 C 123.417969 176.984375 123.378906 176.984375 123.339844 176.984375 C 122.558594 176.984375 122.558594 178.199219 123.339844 178.199219 C 123.378906 178.199219 123.417969 178.199219 123.460938 178.199219 C 124.238281 178.199219 124.238281 176.984375 123.460938 176.984375 Z M 123.460938 176.984375 " fill-opacity="1" fill-rule="nonzero"/><path fill="#fde2d2" d="M 133.023438 171.144531 C 133.089844 171.144531 133.15625 171.144531 133.21875 171.144531 C 133.304688 171.148438 133.382812 171.132812 133.453125 171.09375 C 133.527344 171.070312 133.59375 171.027344 133.648438 170.96875 C 133.707031 170.914062 133.75 170.847656 133.773438 170.773438 C 133.8125 170.699219 133.828125 170.621094 133.824219 170.539062 C 133.816406 170.484375 133.8125 170.429688 133.804688 170.378906 C 133.773438 170.273438 133.722656 170.183594 133.648438 170.109375 C 133.605469 170.078125 133.566406 170.046875 133.527344 170.015625 C 133.429688 169.960938 133.328125 169.929688 133.21875 169.929688 C 133.15625 169.929688 133.089844 169.929688 133.023438 169.929688 C 132.941406 169.929688 132.863281 169.945312 132.792969 169.984375 C 132.714844 170.007812 132.652344 170.050781 132.597656 170.109375 C 132.539062 170.164062 132.496094 170.230469 132.472656 170.304688 C 132.433594 170.378906 132.417969 170.457031 132.417969 170.539062 C 132.425781 170.59375 132.433594 170.644531 132.441406 170.699219 C 132.46875 170.804688 132.523438 170.890625 132.597656 170.96875 C 132.636719 171 132.679688 171.03125 132.71875 171.0625 C 132.8125 171.117188 132.914062 171.144531 133.023438 171.144531 Z M 133.023438 171.144531 " fill-opacity="1" fill-rule="nonzero"/><path fill="#fde2d2" d="M 132.046875 157.234375 C 132.113281 157.234375 132.179688 157.234375 132.242188 157.234375 C 132.328125 157.238281 132.40625 157.21875 132.476562 157.179688 C 132.550781 157.15625 132.617188 157.113281 132.671875 157.054688 C 132.730469 157 132.773438 156.9375 132.796875 156.859375 C 132.835938 156.789062 132.851562 156.710938 132.847656 156.625 C 132.84375 156.574219 132.835938 156.519531 132.828125 156.464844 C 132.800781 156.363281 132.746094 156.273438 132.671875 156.195312 C 132.632812 156.164062 132.589844 156.132812 132.550781 156.101562 C 132.457031 156.046875 132.355469 156.019531 132.246094 156.019531 C 132.179688 156.019531 132.113281 156.019531 132.050781 156.019531 C 131.964844 156.015625 131.886719 156.035156 131.816406 156.070312 C 131.742188 156.097656 131.675781 156.136719 131.621094 156.195312 C 131.5625 156.253906 131.519531 156.316406 131.496094 156.390625 C 131.457031 156.464844 131.441406 156.542969 131.445312 156.625 C 131.449219 156.679688 131.457031 156.734375 131.464844 156.789062 C 131.496094 156.890625 131.546875 156.980469 131.621094 157.054688 C 131.660156 157.085938 131.703125 157.121094 131.742188 157.152344 C 131.835938 157.207031 131.941406 157.234375 132.046875 157.234375 Z M 132.046875 157.234375 " fill-opacity="1" fill-rule="nonzero"/><path fill="#fde2d2" d="M 120.902344 152.316406 C 120.902344 152.445312 120.902344 152.578125 120.902344 152.707031 C 120.898438 152.792969 120.917969 152.871094 120.953125 152.941406 C 120.976562 153.015625 121.019531 153.082031 121.078125 153.136719 C 121.132812 153.195312 121.199219 153.238281 121.273438 153.261719 C 121.347656 153.300781 121.425781 153.320312 121.507812 153.316406 C 121.5625 153.308594 121.613281 153.300781 121.667969 153.292969 C 121.769531 153.265625 121.859375 153.210938 121.933594 153.136719 C 121.964844 153.097656 122 153.054688 122.03125 153.015625 C 122.085938 152.921875 122.113281 152.816406 122.113281 152.707031 C 122.113281 152.578125 122.113281 152.445312 122.113281 152.316406 C 122.117188 152.234375 122.097656 152.15625 122.058594 152.082031 C 122.035156 152.007812 121.992188 151.941406 121.933594 151.886719 C 121.878906 151.828125 121.816406 151.785156 121.738281 151.761719 C 121.667969 151.722656 121.589844 151.707031 121.507812 151.707031 C 121.453125 151.714844 121.398438 151.722656 121.347656 151.730469 C 121.242188 151.757812 121.15625 151.8125 121.078125 151.886719 C 121.046875 151.925781 121.015625 151.96875 120.984375 152.007812 C 120.929688 152.105469 120.902344 152.207031 120.902344 152.316406 Z M 120.902344 152.316406 " fill-opacity="1" fill-rule="nonzero"/><path fill="#fde2d2" d="M 105.519531 185.429688 C 105.519531 185.363281 105.519531 185.300781 105.519531 185.234375 C 105.523438 185.152344 105.503906 185.074219 105.464844 185 C 105.441406 184.925781 105.398438 184.859375 105.339844 184.804688 C 105.285156 184.746094 105.222656 184.703125 105.144531 184.679688 C 105.074219 184.640625 104.996094 184.625 104.914062 184.625 C 104.859375 184.632812 104.804688 184.640625 104.753906 184.648438 C 104.648438 184.675781 104.5625 184.730469 104.484375 184.804688 C 104.453125 184.847656 104.421875 184.886719 104.390625 184.925781 C 104.335938 185.023438 104.308594 185.125 104.308594 185.234375 C 104.308594 185.300781 104.308594 185.363281 104.308594 185.429688 C 104.304688 185.515625 104.324219 185.59375 104.359375 185.664062 C 104.382812 185.738281 104.425781 185.804688 104.484375 185.859375 C 104.539062 185.917969 104.605469 185.960938 104.679688 185.984375 C 104.753906 186.023438 104.828125 186.039062 104.914062 186.039062 C 104.96875 186.03125 105.019531 186.023438 105.074219 186.015625 C 105.175781 185.988281 105.265625 185.933594 105.339844 185.859375 C 105.371094 185.820312 105.40625 185.777344 105.4375 185.738281 C 105.492188 185.640625 105.519531 185.539062 105.519531 185.429688 Z M 105.519531 185.429688 " fill-opacity="1" fill-rule="nonzero"/><path fill="#fde2d2" d="M 106.867188 171.34375 C 107.644531 171.34375 107.644531 170.128906 106.867188 170.128906 C 106.085938 170.128906 106.085938 171.34375 106.867188 171.34375 Z M 106.867188 171.34375 " fill-opacity="1" fill-rule="nonzero"/><path fill="#cc662b" d="M 65.871094 166.050781 C 65.933594 166.050781 66 166.050781 66.066406 166.050781 C 66.148438 166.054688 66.226562 166.039062 66.296875 166 C 66.375 165.976562 66.4375 165.933594 66.492188 165.875 C 66.550781 165.816406 66.59375 165.753906 66.617188 165.679688 C 66.65625 165.605469 66.671875 165.527344 66.671875 165.445312 C 66.664062 165.390625 66.65625 165.335938 66.648438 165.28125 C 66.621094 165.179688 66.566406 165.089844 66.492188 165.015625 C 66.453125 164.984375 66.410156 164.949219 66.371094 164.917969 C 66.277344 164.863281 66.175781 164.835938 66.066406 164.835938 C 66 164.835938 65.933594 164.835938 65.871094 164.835938 C 65.785156 164.832031 65.710938 164.851562 65.636719 164.890625 C 65.5625 164.914062 65.496094 164.957031 65.441406 165.015625 C 65.382812 165.070312 65.34375 165.132812 65.316406 165.210938 C 65.277344 165.28125 65.261719 165.359375 65.265625 165.445312 C 65.273438 165.5 65.28125 165.550781 65.285156 165.605469 C 65.316406 165.707031 65.367188 165.796875 65.441406 165.875 C 65.484375 165.90625 65.523438 165.9375 65.566406 165.96875 C 65.660156 166.023438 65.761719 166.050781 65.871094 166.050781 Z M 65.871094 166.050781 " fill-opacity="1" fill-rule="nonzero"/><path fill="#cc662b" d="M 72.898438 157.625 C 73.675781 157.625 73.675781 156.410156 72.898438 156.410156 C 72.117188 156.410156 72.117188 157.625 72.898438 157.625 Z M 72.898438 157.625 " fill-opacity="1" fill-rule="nonzero"/><path fill="#cc662b" d="M 67.839844 154.277344 C 67.839844 154.210938 67.839844 154.144531 67.839844 154.078125 C 67.84375 153.996094 67.828125 153.917969 67.789062 153.84375 C 67.765625 153.769531 67.722656 153.703125 67.664062 153.648438 C 67.609375 153.589844 67.542969 153.550781 67.46875 153.523438 C 67.398438 153.484375 67.320312 153.46875 67.234375 153.472656 C 67.183594 153.480469 67.128906 153.488281 67.074219 153.492188 C 66.972656 153.523438 66.882812 153.574219 66.808594 153.648438 C 66.777344 153.691406 66.746094 153.730469 66.714844 153.773438 C 66.660156 153.867188 66.632812 153.96875 66.632812 154.078125 C 66.632812 154.144531 66.632812 154.210938 66.632812 154.273438 C 66.628906 154.359375 66.644531 154.4375 66.683594 154.507812 C 66.707031 154.585938 66.75 154.648438 66.808594 154.703125 C 66.863281 154.765625 66.929688 154.804688 67.003906 154.832031 C 67.074219 154.867188 67.152344 154.886719 67.238281 154.882812 C 67.289062 154.875 67.34375 154.867188 67.398438 154.859375 C 67.5 154.832031 67.589844 154.78125 67.664062 154.703125 C 67.695312 154.664062 67.726562 154.621094 67.757812 154.582031 C 67.8125 154.488281 67.839844 154.386719 67.839844 154.277344 Z M 67.839844 154.277344 " fill-opacity="1" fill-rule="nonzero"/><path fill="#cc662b" d="M 71.363281 143.464844 C 71.414062 143.460938 71.46875 143.453125 71.523438 143.445312 C 71.519531 143.445312 71.511719 143.445312 71.507812 143.445312 C 71.5625 143.453125 71.613281 143.460938 71.667969 143.464844 C 71.664062 143.464844 71.660156 143.464844 71.65625 143.464844 C 71.703125 143.484375 71.75 143.503906 71.800781 143.523438 C 71.796875 143.523438 71.792969 143.519531 71.789062 143.519531 C 71.832031 143.550781 71.871094 143.582031 71.914062 143.613281 C 71.910156 143.609375 71.90625 143.605469 71.902344 143.601562 C 71.933594 143.644531 71.964844 143.683594 71.996094 143.726562 C 71.992188 143.722656 71.992188 143.714844 71.988281 143.710938 C 72.007812 143.757812 72.027344 143.808594 72.046875 143.855469 C 72.046875 143.847656 72.042969 143.839844 72.042969 143.828125 C 72.050781 143.882812 72.054688 143.9375 72.0625 143.992188 C 72.0625 143.980469 72.0625 143.96875 72.0625 143.957031 C 72.054688 144.011719 72.050781 144.066406 72.042969 144.117188 C 72.042969 144.109375 72.046875 144.097656 72.050781 144.089844 C 72.027344 144.136719 72.007812 144.1875 71.988281 144.234375 C 71.992188 144.226562 71.996094 144.222656 72 144.21875 C 71.96875 144.257812 71.933594 144.300781 71.902344 144.339844 C 71.90625 144.335938 71.910156 144.332031 71.914062 144.328125 C 71.875 144.359375 71.832031 144.394531 71.792969 144.425781 C 71.796875 144.421875 71.796875 144.421875 71.800781 144.417969 C 71.753906 144.4375 71.707031 144.460938 71.65625 144.480469 C 71.660156 144.476562 71.664062 144.476562 71.671875 144.476562 C 71.617188 144.484375 71.5625 144.492188 71.507812 144.496094 C 71.515625 144.496094 71.519531 144.496094 71.523438 144.496094 C 71.46875 144.492188 71.414062 144.484375 71.363281 144.476562 C 71.363281 144.476562 71.367188 144.476562 71.371094 144.476562 C 71.449219 144.503906 71.53125 144.507812 71.613281 144.488281 C 71.691406 144.484375 71.765625 144.460938 71.835938 144.417969 C 71.90625 144.378906 71.964844 144.324219 72.007812 144.261719 C 72.058594 144.203125 72.09375 144.132812 72.113281 144.054688 C 72.121094 144 72.128906 143.945312 72.136719 143.890625 C 72.136719 143.78125 72.109375 143.679688 72.054688 143.585938 C 72.023438 143.542969 71.992188 143.503906 71.957031 143.460938 C 71.882812 143.386719 71.792969 143.335938 71.691406 143.304688 C 71.6875 143.304688 71.6875 143.304688 71.683594 143.304688 C 71.664062 143.300781 71.542969 143.285156 71.523438 143.285156 C 71.519531 143.285156 71.519531 143.28125 71.519531 143.28125 C 71.460938 143.28125 71.402344 143.292969 71.34375 143.304688 C 71.34375 143.304688 71.34375 143.304688 71.339844 143.308594 C 71.289062 143.324219 71.238281 143.347656 71.191406 143.371094 C 71.144531 143.394531 71.046875 143.480469 71.058594 143.46875 C 71.054688 143.472656 71.054688 143.476562 71.050781 143.476562 C 71.050781 143.480469 71.050781 143.480469 71.046875 143.480469 C 71.035156 143.496094 70.964844 143.585938 70.953125 143.605469 C 70.953125 143.605469 70.949219 143.609375 70.949219 143.609375 C 70.949219 143.613281 70.945312 143.617188 70.945312 143.621094 C 70.945312 143.621094 70.894531 143.726562 70.878906 143.777344 C 70.878906 143.78125 70.875 143.789062 70.875 143.792969 C 70.867188 143.847656 70.855469 143.90625 70.851562 143.964844 C 70.851562 143.972656 70.851562 143.976562 70.851562 143.980469 C 70.855469 144.039062 70.867188 144.097656 70.875 144.152344 C 70.875 144.160156 70.878906 144.164062 70.878906 144.167969 C 70.890625 144.21875 70.945312 144.332031 70.941406 144.324219 C 70.945312 144.328125 70.945312 144.332031 70.949219 144.335938 C 70.980469 144.382812 71.011719 144.425781 71.050781 144.464844 C 71.132812 144.554688 71.226562 144.597656 71.335938 144.636719 C 71.339844 144.636719 71.339844 144.636719 71.34375 144.636719 C 71.398438 144.648438 71.453125 144.65625 71.511719 144.660156 C 71.511719 144.660156 71.515625 144.660156 71.519531 144.660156 C 71.574219 144.65625 71.628906 144.648438 71.6875 144.636719 C 71.765625 144.621094 71.832031 144.582031 71.890625 144.527344 C 71.957031 144.488281 72.011719 144.429688 72.046875 144.359375 C 72.09375 144.289062 72.117188 144.214844 72.121094 144.132812 C 72.136719 144.050781 72.132812 143.972656 72.109375 143.890625 C 72.089844 143.84375 72.070312 143.792969 72.046875 143.746094 C 71.996094 143.65625 71.921875 143.582031 71.832031 143.527344 C 71.78125 143.507812 71.734375 143.488281 71.6875 143.464844 C 71.578125 143.4375 71.472656 143.4375 71.363281 143.464844 Z M 71.363281 143.464844 " fill-opacity="1" fill-rule="nonzero"/><path fill="#cc662b" d="M 79.535156 148.808594 C 80.3125 148.808594 80.316406 147.59375 79.535156 147.59375 C 78.757812 147.59375 78.753906 148.808594 79.535156 148.808594 Z M 79.535156 148.808594 " fill-opacity="1" fill-rule="nonzero"/><path fill="#cc662b" d="M 79.730469 137.640625 C 80.507812 137.640625 80.511719 136.425781 79.730469 136.425781 C 78.953125 136.425781 78.949219 137.640625 79.730469 137.640625 Z M 79.730469 137.640625 " fill-opacity="1" fill-rule="nonzero"/><path fill="#cc662b" d="M 85.371094 135.660156 C 85.371094 135.726562 85.371094 135.792969 85.371094 135.855469 C 85.367188 135.941406 85.386719 136.019531 85.425781 136.089844 C 85.449219 136.164062 85.492188 136.230469 85.550781 136.285156 C 85.605469 136.34375 85.667969 136.386719 85.746094 136.410156 C 85.816406 136.449219 85.894531 136.46875 85.976562 136.464844 C 86.03125 136.457031 86.085938 136.449219 86.136719 136.441406 C 86.242188 136.414062 86.328125 136.363281 86.40625 136.285156 C 86.4375 136.246094 86.46875 136.203125 86.5 136.164062 C 86.554688 136.070312 86.582031 135.964844 86.582031 135.855469 C 86.582031 135.792969 86.582031 135.726562 86.582031 135.660156 C 86.585938 135.578125 86.570312 135.5 86.53125 135.425781 C 86.507812 135.351562 86.464844 135.285156 86.40625 135.230469 C 86.351562 135.171875 86.285156 135.128906 86.210938 135.105469 C 86.136719 135.066406 86.0625 135.050781 85.976562 135.054688 C 85.921875 135.058594 85.871094 135.066406 85.816406 135.074219 C 85.714844 135.105469 85.625 135.15625 85.550781 135.230469 C 85.519531 135.273438 85.484375 135.3125 85.453125 135.355469 C 85.398438 135.449219 85.371094 135.550781 85.371094 135.660156 Z M 85.371094 135.660156 " fill-opacity="1" fill-rule="nonzero"/><path fill="#cc662b" d="M 134.78125 161.9375 C 135.558594 161.9375 135.5625 160.722656 134.78125 160.722656 C 134.003906 160.722656 134 161.9375 134.78125 161.9375 Z M 134.78125 161.9375 " fill-opacity="1" fill-rule="nonzero"/><path fill="#cc662b" d="M 134.214844 177.789062 C 134.214844 177.722656 134.214844 177.65625 134.214844 177.59375 C 134.21875 177.507812 134.203125 177.429688 134.164062 177.359375 C 134.140625 177.285156 134.097656 177.21875 134.039062 177.164062 C 133.984375 177.105469 133.917969 177.0625 133.84375 177.039062 C 133.769531 177 133.695312 176.980469 133.609375 176.984375 C 133.554688 176.992188 133.503906 177 133.449219 177.007812 C 133.347656 177.035156 133.257812 177.089844 133.183594 177.164062 C 133.152344 177.203125 133.117188 177.246094 133.085938 177.285156 C 133.03125 177.378906 133.003906 177.484375 133.003906 177.59375 C 133.003906 177.65625 133.003906 177.722656 133.003906 177.789062 C 133 177.871094 133.019531 177.949219 133.058594 178.023438 C 133.082031 178.097656 133.125 178.164062 133.183594 178.21875 C 133.238281 178.277344 133.300781 178.320312 133.378906 178.34375 C 133.449219 178.382812 133.527344 178.398438 133.609375 178.394531 C 133.664062 178.390625 133.71875 178.382812 133.769531 178.375 C 133.875 178.34375 133.960938 178.292969 134.039062 178.21875 C 134.070312 178.175781 134.101562 178.136719 134.132812 178.09375 C 134.1875 178 134.214844 177.898438 134.214844 177.789062 Z M 134.214844 177.789062 " fill-opacity="1" fill-rule="nonzero"/><path fill="#cc662b" d="M 127.949219 172.125 C 128.726562 172.125 128.730469 170.910156 127.949219 170.910156 C 127.171875 170.910156 127.167969 172.125 127.949219 172.125 Z M 127.949219 172.125 " fill-opacity="1" fill-rule="nonzero"/><path fill="#cc662b" d="M 129.121094 168.402344 C 129.898438 168.402344 129.898438 167.1875 129.121094 167.1875 C 128.34375 167.1875 128.339844 168.402344 129.121094 168.402344 Z M 129.121094 168.402344 " fill-opacity="1" fill-rule="nonzero"/><path fill="#cc662b" d="M 126.191406 192.503906 C 126.972656 192.503906 126.972656 191.289062 126.191406 191.289062 C 125.414062 191.289062 125.414062 192.503906 126.191406 192.503906 Z M 126.191406 192.503906 " fill-opacity="1" fill-rule="nonzero"/><path fill="#cc662b" d="M 113.894531 194.464844 C 114.671875 194.464844 114.671875 193.25 113.894531 193.25 C 113.113281 193.25 113.113281 194.464844 113.894531 194.464844 Z M 113.894531 194.464844 " fill-opacity="1" fill-rule="nonzero"/><path fill="#cc662b" d="M 112.722656 201.320312 C 113.5 201.320312 113.503906 200.105469 112.722656 200.105469 C 111.945312 200.105469 111.941406 201.320312 112.722656 201.320312 Z M 112.722656 201.320312 " fill-opacity="1" fill-rule="nonzero"/><path fill="#cc662b" d="M 99.792969 201.617188 C 99.859375 201.488281 99.921875 201.355469 99.988281 201.226562 C 100.03125 201.15625 100.058594 201.082031 100.0625 201 C 100.078125 200.917969 100.074219 200.839844 100.050781 200.757812 C 100.03125 200.679688 99.996094 200.609375 99.941406 200.550781 C 99.898438 200.484375 99.84375 200.433594 99.773438 200.394531 C 99.722656 200.375 99.675781 200.355469 99.628906 200.335938 C 99.519531 200.304688 99.414062 200.304688 99.304688 200.335938 C 99.257812 200.355469 99.210938 200.375 99.160156 200.394531 C 99.070312 200.449219 99 200.523438 98.945312 200.613281 C 98.878906 200.742188 98.8125 200.875 98.75 201.003906 C 98.703125 201.074219 98.679688 201.148438 98.675781 201.230469 C 98.660156 201.3125 98.660156 201.390625 98.6875 201.472656 C 98.707031 201.550781 98.742188 201.621094 98.796875 201.679688 C 98.839844 201.746094 98.894531 201.796875 98.964844 201.835938 C 99.011719 201.855469 99.0625 201.875 99.109375 201.898438 C 99.21875 201.925781 99.324219 201.925781 99.429688 201.898438 C 99.480469 201.875 99.527344 201.855469 99.574219 201.835938 C 99.667969 201.78125 99.738281 201.710938 99.792969 201.617188 Z M 99.792969 201.617188 " fill-opacity="1" fill-rule="nonzero"/><path fill="#cc662b" d="M 98.472656 194.660156 C 98.535156 194.660156 98.601562 194.660156 98.667969 194.660156 C 98.75 194.664062 98.828125 194.644531 98.898438 194.605469 C 98.976562 194.582031 99.039062 194.539062 99.09375 194.480469 C 99.152344 194.425781 99.195312 194.363281 99.21875 194.285156 C 99.257812 194.214844 99.273438 194.136719 99.273438 194.050781 C 99.265625 194 99.257812 193.945312 99.25 193.890625 C 99.222656 193.789062 99.167969 193.699219 99.09375 193.621094 C 99.054688 193.589844 99.011719 193.558594 98.972656 193.527344 C 98.878906 193.472656 98.777344 193.445312 98.667969 193.445312 C 98.601562 193.445312 98.535156 193.445312 98.472656 193.445312 C 98.386719 193.441406 98.3125 193.457031 98.238281 193.496094 C 98.164062 193.523438 98.097656 193.5625 98.042969 193.621094 C 97.984375 193.679688 97.941406 193.742188 97.917969 193.816406 C 97.878906 193.890625 97.863281 193.96875 97.867188 194.050781 C 97.875 194.105469 97.882812 194.160156 97.886719 194.214844 C 97.917969 194.316406 97.96875 194.40625 98.042969 194.480469 C 98.085938 194.511719 98.125 194.546875 98.167969 194.578125 C 98.261719 194.632812 98.363281 194.660156 98.472656 194.660156 Z M 98.472656 194.660156 " fill-opacity="1" fill-rule="nonzero"/><path fill="#cc662b" d="M 123.671875 160.152344 C 123.671875 160.089844 123.671875 160.023438 123.671875 159.957031 C 123.675781 159.875 123.660156 159.796875 123.621094 159.722656 C 123.597656 159.648438 123.554688 159.582031 123.496094 159.527344 C 123.441406 159.46875 123.375 159.425781 123.300781 159.402344 C 123.230469 159.363281 123.152344 159.347656 123.070312 159.351562 C 123.015625 159.355469 122.960938 159.363281 122.90625 159.371094 C 122.804688 159.402344 122.714844 159.453125 122.640625 159.527344 C 122.609375 159.570312 122.578125 159.609375 122.546875 159.652344 C 122.492188 159.746094 122.464844 159.847656 122.464844 159.957031 C 122.464844 160.023438 122.464844 160.089844 122.464844 160.152344 C 122.460938 160.238281 122.476562 160.316406 122.515625 160.386719 C 122.539062 160.464844 122.582031 160.527344 122.640625 160.582031 C 122.695312 160.640625 122.761719 160.683594 122.835938 160.707031 C 122.90625 160.746094 122.984375 160.765625 123.070312 160.761719 C 123.121094 160.753906 123.175781 160.746094 123.230469 160.738281 C 123.332031 160.710938 123.421875 160.660156 123.496094 160.582031 C 123.527344 160.542969 123.558594 160.5 123.589844 160.460938 C 123.644531 160.367188 123.671875 160.261719 123.671875 160.152344 Z M 123.671875 160.152344 " fill-opacity="1" fill-rule="nonzero"/><path fill="#cc662b" d="M 129.511719 150.769531 C 130.289062 150.769531 130.289062 149.554688 129.511719 149.554688 C 128.730469 149.554688 128.730469 150.769531 129.511719 150.769531 Z M 129.511719 150.769531 " fill-opacity="1" fill-rule="nonzero"/><path fill="#cc662b" d="M 119.980469 140.921875 C 120.054688 140.988281 120.136719 141.054688 120.238281 141.078125 C 120.421875 141.125 120.609375 141.003906 120.726562 140.851562 C 121.160156 140.300781 120.90625 139.492188 120.578125 138.871094 C 119.828125 137.445312 118.613281 135.71875 117.167969 134.917969 C 116.550781 134.578125 114.34375 133.855469 113.804688 134.722656 C 113.230469 135.652344 115.824219 136.519531 116.4375 137.058594 C 117.75 138.214844 118.640625 139.78125 119.980469 140.921875 Z M 119.980469 140.921875 " fill-opacity="1" fill-rule="nonzero"/><path fill="#cc662b" d="M 106.160156 141.15625 C 106.53125 141.429688 106.9375 141.683594 107.394531 141.761719 C 107.847656 141.835938 108.363281 141.707031 108.632812 141.332031 C 109.097656 140.691406 108.632812 139.785156 108.0625 139.238281 C 107.496094 138.695312 106.792969 138.257812 106.015625 138.160156 C 102.898438 137.757812 104.863281 140.214844 106.160156 141.15625 Z M 106.160156 141.15625 " fill-opacity="1" fill-rule="nonzero"/><g clip-path="url(#7ebf30aae9)"><path fill="#3ea073" d="M 97.351562 113.488281 C 99.945312 110.261719 103.296875 107.738281 106.753906 105.472656 C 108.0625 104.613281 109.390625 103.789062 110.777344 103.0625 C 113.960938 101.394531 117.394531 100.285156 120.8125 99.183594 C 120.085938 102.457031 118.765625 105.597656 116.9375 108.402344 C 114.257812 112.503906 110.53125 115.835938 106.449219 118.53125 C 104.367188 119.90625 102.183594 121.121094 99.957031 122.242188 C 98.675781 122.886719 95.210938 125.304688 93.800781 124.585938 C 90.851562 123.078125 96.136719 115.003906 97.351562 113.488281 Z M 97.351562 113.488281 " fill-opacity="1" fill-rule="nonzero"/></g><g clip-path="url(#b67503d27b)"><path fill="#3ea073" d="M 80.441406 126.070312 C 76.222656 123.863281 71.972656 121.636719 68.253906 118.660156 C 66.3125 117.109375 64.496094 115.339844 62.257812 114.261719 C 61.195312 113.746094 60.015625 113.375 59.203125 112.519531 C 62.136719 111.195312 65.46875 110.945312 68.667969 111.300781 C 71.867188 111.652344 74.972656 112.582031 78.046875 113.535156 C 80.867188 114.414062 83.757812 115.355469 86.050781 117.226562 C 87.703125 118.574219 88.960938 120.339844 90.1875 122.089844 C 91.535156 124.007812 95.074219 128.574219 90.777344 129.480469 C 87.480469 130.175781 83.234375 127.53125 80.441406 126.070312 Z M 80.441406 126.070312 " fill-opacity="1" fill-rule="nonzero"/></g><path fill="#45b280" d="M 97.417969 136.578125 C 99.761719 136.375 102.15625 134.742188 102.433594 132.398438 C 100.882812 132.375 99.5 133.316406 98.011719 133.738281 C 96.839844 134.074219 88.574219 133.503906 88.574219 133.503906 C 89.972656 137.847656 96.339844 136.660156 97.417969 136.578125 Z M 97.417969 136.578125 " fill-opacity="1" fill-rule="nonzero"/><path fill="#45b280" d="M 93.222656 111.949219 L 89.480469 111.949219 C 89.859375 118.492188 92.582031 129.875 92.390625 135.648438 C 93 136.597656 97.363281 136.382812 98.179688 134.726562 C 96.949219 131.78125 92.667969 119.726562 93.222656 111.949219 Z M 93.222656 111.949219 " fill-opacity="1" fill-rule="nonzero"/><path fill="#5e2617" d="M 88.453125 107.492188 C 88.554688 106.730469 88.9375 105.964844 89.609375 105.597656 C 90.050781 105.351562 90.574219 105.304688 91.082031 105.28125 C 91.589844 105.261719 92.097656 105.261719 92.605469 105.285156 C 93.050781 105.304688 93.523438 105.351562 93.875 105.628906 C 94.449219 106.078125 94.476562 106.933594 94.339844 107.648438 C 94.121094 108.796875 93.613281 109.90625 93.636719 111.074219 C 93.640625 111.4375 93.695312 111.824219 93.503906 112.132812 C 93.167969 112.6875 92.242188 112.734375 91.679688 112.855469 C 91.144531 112.976562 90.554688 113.132812 90.023438 112.902344 C 89.109375 112.503906 88.914062 111.179688 88.730469 110.320312 C 88.539062 109.40625 88.332031 108.429688 88.453125 107.492188 Z M 88.453125 107.492188 " fill-opacity="1" fill-rule="nonzero"/></svg>