<svg xmlns="http://www.w3.org/2000/svg" xmlns:xlink="http://www.w3.org/1999/xlink" width="375" zoomAndPan="magnify" viewBox="0 0 281.25 281.249989" height="375" preserveAspectRatio="xMidYMid meet" version="1.0"><defs><clipPath id="36fc8c0d88"><path d="M 63 121 L 217.828125 121 L 217.828125 159.542969 L 63 159.542969 Z M 63 121 " clip-rule="nonzero"/></clipPath></defs><g clip-path="url(#36fc8c0d88)"><path fill="#231f20" d="M 112.058594 159.445312 C 106.746094 159.445312 101.285156 159.382812 97.226562 159.332031 C 94.734375 159.304688 92.765625 159.28125 91.613281 159.28125 C 87.15625 159.28125 85.433594 158.457031 84.832031 156.574219 C 82.632812 158.6875 78.609375 157.835938 74.386719 156.941406 C 72.773438 156.601562 71.109375 156.25 69.554688 156.074219 C 67.023438 155.785156 63.875 155.074219 63.25 153.300781 C 62.996094 152.578125 63.234375 151.804688 63.925781 151.121094 C 64.867188 150.183594 66.960938 150.222656 69.390625 150.269531 C 71.257812 150.300781 73.191406 150.335938 74.683594 149.910156 C 76.191406 149.476562 77.316406 148.558594 78.402344 147.671875 C 78.921875 147.246094 79.433594 146.832031 79.96875 146.480469 C 79.191406 145.683594 78.539062 144.757812 78.019531 143.707031 C 76.695312 141.023438 76.421875 138.082031 77.230469 135.195312 C 78.085938 132.140625 80.144531 129.296875 83.179688 126.976562 C 85.828125 124.949219 90.261719 123.46875 96.347656 122.570312 C 100.867188 121.902344 104.664062 121.824219 104.703125 121.824219 C 104.773438 121.820312 104.832031 121.847656 104.875 121.890625 C 104.921875 121.9375 104.949219 121.996094 104.949219 122.0625 C 104.949219 124.71875 105.234375 126.734375 105.503906 128.035156 C 105.832031 125.03125 107.480469 122.128906 107.5625 121.980469 C 107.597656 121.921875 107.65625 121.878906 107.726562 121.867188 C 107.976562 121.816406 113.894531 120.664062 117.527344 122.3125 C 118.304688 122.667969 118.914062 123.191406 119.378906 123.828125 C 121.542969 120.992188 125.734375 121.84375 129.222656 122.550781 L 129.4375 122.59375 C 130.582031 122.828125 131.214844 123.148438 131.480469 123.636719 C 131.808594 124.234375 131.527344 124.945312 131.171875 125.839844 C 130.78125 126.824219 130.292969 128.046875 130.414062 129.59375 C 130.605469 132.066406 132.496094 134.238281 133.859375 135.496094 C 131.609375 131.984375 131.058594 128.226562 132.566406 125.949219 C 133.628906 124.351562 135.558594 123.785156 137.859375 124.398438 C 141.117188 125.269531 143.664062 126.730469 146.128906 128.144531 C 148.328125 129.402344 150.402344 130.59375 152.796875 131.25 C 154.140625 131.617188 155.636719 131.734375 157.230469 131.707031 C 157.710938 130.273438 158.894531 128.863281 160.632812 127.695312 C 162.734375 126.289062 165.398438 125.414062 167.585938 125.414062 C 170.910156 125.414062 173.886719 126.007812 176.589844 127.222656 C 176.980469 125.859375 177.839844 124.71875 179.160156 123.8125 C 181.015625 122.539062 183.03125 122.253906 184.984375 122.988281 C 187.546875 123.953125 189.777344 126.6875 190.535156 129.789062 C 191.171875 132.386719 190.808594 134.523438 189.515625 135.804688 C 188.527344 136.78125 187.082031 137.191406 185.28125 137.011719 C 185.5625 138.230469 185.664062 139.5 185.578125 140.785156 C 185.324219 144.550781 183.753906 148.058594 183.234375 149.128906 C 184.070312 149.179688 186.242188 149.367188 188.96875 150.019531 C 190.019531 150.269531 190.789062 150.476562 191.40625 150.640625 C 192.863281 151.03125 193.597656 151.226562 195.660156 151.394531 C 197.253906 151.523438 198.136719 151.21875 198.988281 150.925781 C 199.695312 150.683594 200.425781 150.433594 201.515625 150.433594 C 203.707031 150.433594 205.300781 151.214844 209.152344 153.109375 C 209.5625 153.3125 210.003906 153.527344 210.46875 153.757812 C 212.65625 154.824219 214.402344 155.257812 215.554688 155.542969 C 216.929688 155.882812 217.835938 156.105469 217.628906 157.136719 C 217.296875 158.777344 212.496094 158.082031 211.535156 157.925781 C 211.484375 157.917969 211.441406 157.894531 211.40625 157.859375 C 210.5625 157.027344 209.484375 156.460938 208.574219 156.097656 C 208.976562 156.371094 209.375 156.675781 209.683594 156.980469 C 210.015625 157.308594 210.117188 157.613281 209.988281 157.878906 C 209.890625 158.085938 209.59375 158.707031 206.097656 158.347656 C 203.257812 158.054688 195.738281 157.667969 190.632812 158.34375 C 186.464844 158.894531 180.355469 159.519531 175.40625 158.59375 C 173.921875 158.316406 172.488281 158.328125 170.964844 158.335938 C 167.8125 158.355469 164.234375 158.375 158.597656 156.039062 C 152.914062 153.6875 149.402344 150.496094 146.835938 148.167969 C 145.628906 147.074219 144.679688 146.210938 143.867188 145.78125 C 141.675781 144.628906 137.90625 141.535156 136.738281 140.558594 C 136.648438 141.394531 136.441406 143.320312 136.109375 145.644531 C 136.035156 146.171875 136.054688 146.605469 136.164062 146.941406 C 136.640625 146.871094 137.1875 146.632812 137.859375 146.1875 C 138.125 146.015625 138.363281 145.855469 138.582031 145.707031 C 140.191406 144.632812 140.859375 144.1875 141.515625 144.835938 C 141.71875 145.039062 141.808594 145.289062 141.777344 145.5625 C 141.6875 146.316406 140.679688 147.078125 139.851562 147.582031 C 138.835938 148.203125 137.3125 148.59375 136.375 147.984375 C 136.15625 147.84375 135.984375 147.660156 135.855469 147.433594 C 134.863281 147.433594 134.121094 146.8125 133.300781 146 C 132 144.710938 125.464844 139.871094 117.761719 136.101562 C 110.347656 132.472656 105.261719 131.464844 99.847656 130.605469 C 97.078125 130.164062 95.492188 130.347656 95.183594 130.558594 C 95.296875 130.660156 95.78125 130.972656 97.671875 131.292969 C 102.519531 132.109375 112.855469 134.746094 119.957031 138.347656 C 126.75 141.796875 131.546875 145.996094 133.109375 149.871094 C 134.066406 152.234375 134.140625 154.429688 133.324219 156.050781 C 132.660156 157.367188 131.445312 158.273438 129.714844 158.738281 C 127.609375 159.300781 120 159.445312 112.058594 159.445312 Z M 85.203125 156.167969 C 85.652344 157.984375 87.113281 158.804688 91.613281 158.804688 C 92.769531 158.804688 94.738281 158.828125 97.234375 158.859375 C 107.335938 158.976562 126.144531 159.203125 129.585938 158.277344 C 131.179688 157.851562 132.292969 157.03125 132.894531 155.835938 C 133.648438 154.339844 133.566406 152.285156 132.664062 150.046875 C 131.140625 146.277344 126.429688 142.167969 119.738281 138.773438 C 112.683594 135.195312 102.410156 132.574219 97.59375 131.761719 C 94.554688 131.25 94.652344 130.675781 94.683594 130.488281 C 94.816406 129.695312 97.492188 129.746094 99.921875 130.132812 C 105.375 131.003906 110.5 132.019531 117.976562 135.675781 C 125.726562 139.46875 132.324219 144.359375 133.640625 145.664062 C 134.375 146.390625 134.964844 146.871094 135.664062 146.949219 C 135.570312 146.570312 135.558594 146.109375 135.636719 145.578125 C 136.074219 142.46875 136.300781 140.085938 136.304688 140.0625 C 136.3125 139.972656 136.371094 139.894531 136.453125 139.863281 C 136.535156 139.828125 136.632812 139.84375 136.699219 139.902344 C 136.746094 139.945312 141.582031 144.035156 144.09375 145.363281 C 144.957031 145.820312 145.929688 146.703125 147.160156 147.816406 C 149.699219 150.121094 153.179688 153.28125 158.78125 155.601562 C 164.332031 157.898438 167.855469 157.878906 170.964844 157.859375 C 172.507812 157.851562 173.964844 157.839844 175.496094 158.128906 C 180.378906 159.039062 186.4375 158.417969 190.570312 157.871094 C 195.71875 157.191406 203.289062 157.578125 206.148438 157.875 C 208.644531 158.132812 209.46875 157.855469 209.554688 157.675781 C 209.582031 157.625 209.523438 157.496094 209.34375 157.320312 C 208.445312 156.425781 206.636719 155.511719 206.617188 155.503906 C 206.511719 155.449219 206.460938 155.328125 206.5 155.214844 C 206.539062 155.101562 206.65625 155.035156 206.769531 155.054688 C 206.894531 155.078125 209.78125 155.621094 211.691406 157.46875 C 213.878906 157.816406 216.980469 157.914062 217.15625 157.042969 C 217.265625 156.507812 216.949219 156.378906 215.441406 156.003906 C 214.265625 155.714844 212.488281 155.273438 210.257812 154.183594 C 209.789062 153.957031 209.351562 153.738281 208.9375 153.535156 C 205.15625 151.679688 203.59375 150.910156 201.515625 150.910156 C 200.503906 150.910156 199.84375 151.136719 199.144531 151.375 C 198.246094 151.683594 197.316406 152.003906 195.621094 151.867188 C 193.515625 151.699219 192.765625 151.496094 191.28125 151.101562 C 190.664062 150.9375 189.902344 150.730469 188.859375 150.480469 C 185.410156 149.660156 182.875 149.589844 182.847656 149.589844 C 182.765625 149.585938 182.691406 149.542969 182.648438 149.472656 C 182.605469 149.398438 182.601562 149.3125 182.640625 149.238281 C 182.664062 149.199219 184.804688 145.148438 185.097656 140.753906 C 185.1875 139.457031 185.070312 138.175781 184.773438 136.945312 C 184.480469 136.902344 184.183594 136.84375 183.878906 136.769531 C 181.597656 136.222656 180.140625 135.039062 178.734375 133.894531 C 178.394531 133.617188 178.054688 133.339844 177.707031 133.074219 C 177.871094 133.488281 178.058594 133.910156 178.265625 134.34375 L 178.335938 134.492188 C 178.613281 135.070312 178.710938 136.097656 178.078125 137.082031 C 177.484375 138.007812 176.109375 139.113281 172.933594 139.113281 C 171.730469 139.113281 168.871094 139.277344 168.226562 140.820312 C 168.015625 141.324219 168.136719 141.882812 168.542969 142.285156 C 169.386719 143.121094 170.539062 143.015625 173.058594 142.78125 C 173.660156 142.726562 174.34375 142.664062 175.113281 142.605469 C 178.144531 142.375 180.03125 142.703125 181.054688 143.640625 C 181.613281 144.152344 181.898438 144.855469 181.898438 145.722656 C 181.898438 146.550781 181.832031 147.496094 181.046875 148.207031 C 179.652344 149.464844 176.210938 149.746094 169.53125 149.152344 C 159.285156 148.234375 151.765625 143.117188 148.144531 138.632812 C 145.351562 135.175781 140.1875 129.59375 140.136719 129.539062 C 140.066406 129.460938 140.050781 129.347656 140.105469 129.257812 C 140.160156 129.167969 140.265625 129.121094 140.367188 129.144531 C 143.296875 129.8125 145.667969 132.550781 148.179688 135.449219 C 149.863281 137.390625 151.597656 139.398438 153.582031 140.863281 C 157.753906 143.941406 163.914062 146.046875 165.628906 146.597656 C 165.476562 146.132812 165.242188 145.300781 164.988281 143.996094 C 164.867188 143.382812 164.851562 142.808594 164.835938 142.296875 C 164.796875 140.949219 164.773438 140.136719 163.105469 139.742188 C 162.164062 139.519531 161.1875 139.523438 160.351562 139.726562 C 160.371094 139.964844 160.359375 140.21875 160.308594 140.484375 C 159.988281 142.125 159.152344 142.777344 158.511719 142.6875 C 158.097656 142.628906 157.707031 142.238281 157.773438 141.496094 C 157.832031 140.882812 158.175781 140.335938 158.777344 139.90625 C 159.078125 139.691406 159.421875 139.519531 159.800781 139.390625 C 159.640625 138.808594 159.242188 138.296875 158.785156 137.703125 C 157.984375 136.664062 156.984375 135.367188 156.984375 133.152344 C 156.984375 132.832031 157.023438 132.507812 157.09375 132.1875 C 155.511719 132.207031 154.023438 132.082031 152.667969 131.707031 C 150.214844 131.035156 148.113281 129.832031 145.890625 128.554688 C 143.449219 127.15625 140.929688 125.710938 137.734375 124.859375 C 135.617188 124.292969 133.921875 124.773438 132.96875 126.210938 C 131.351562 128.644531 132.316406 132.960938 135.3125 136.703125 C 135.386719 136.792969 135.382812 136.925781 135.300781 137.011719 C 135.21875 137.097656 135.085938 137.113281 134.988281 137.046875 C 134.796875 136.910156 130.253906 133.742188 129.933594 129.628906 C 129.804688 127.976562 130.316406 126.695312 130.722656 125.667969 C 131.035156 124.886719 131.28125 124.269531 131.058594 123.863281 C 130.871094 123.519531 130.308594 123.257812 129.339844 123.0625 L 129.128906 123.019531 C 125.574219 122.296875 121.621094 121.492188 119.660156 124.261719 C 121.113281 126.746094 120.722656 130.566406 119.707031 133.046875 C 119.5625 133.398438 119.125 134.46875 118.476562 134.253906 C 117.402344 133.902344 117.320312 129.875 118.308594 126.125 C 118.503906 125.386719 118.765625 124.769531 119.085938 124.25 C 118.675781 123.636719 118.109375 123.101562 117.324219 122.746094 C 114.097656 121.28125 108.757812 122.164062 107.929688 122.3125 C 107.578125 122.957031 105.621094 126.71875 105.96875 129.820312 C 105.980469 129.9375 105.902344 130.046875 105.785156 130.078125 C 105.667969 130.105469 105.546875 130.039062 105.503906 129.929688 C 105.460938 129.816406 104.5 127.191406 104.46875 122.304688 C 102.5 122.371094 89.210938 122.964844 83.472656 127.351562 C 80.519531 129.609375 78.523438 132.367188 77.691406 135.324219 C 76.917969 138.09375 77.179688 140.921875 78.453125 143.5 C 78.964844 144.535156 79.613281 145.441406 80.390625 146.222656 C 81.117188 145.808594 81.910156 145.535156 82.84375 145.535156 C 84.46875 145.535156 85.332031 146.441406 86.332031 147.488281 C 86.984375 148.171875 87.683594 148.90625 88.699219 149.550781 C 90.480469 149.628906 92.410156 149.445312 94.453125 148.976562 C 96.058594 148.609375 97.769531 148.054688 99.578125 147.46875 C 102.921875 146.382812 106.710938 145.152344 110.527344 144.980469 C 114.910156 144.777344 118.703125 146 122.113281 148.707031 C 122.203125 148.777344 122.230469 148.910156 122.167969 149.011719 C 122.109375 149.113281 121.984375 149.15625 121.875 149.113281 C 121.804688 149.085938 114.75 146.394531 107.886719 147.699219 C 105.273438 148.199219 102.988281 149.035156 100.976562 149.769531 C 97.542969 151.027344 94.578125 152.113281 91.230469 151.167969 C 90.148438 150.863281 89.28125 150.464844 88.5625 150.023438 C 85.210938 149.851562 82.382812 148.757812 80.320312 146.824219 C 79.769531 147.171875 79.246094 147.601562 78.707031 148.039062 C 77.582031 148.957031 76.417969 149.90625 74.816406 150.367188 C 73.253906 150.816406 71.285156 150.777344 69.378906 150.742188 C 67.160156 150.703125 65.0625 150.664062 64.265625 151.457031 C 63.710938 152.003906 63.511719 152.605469 63.703125 153.144531 C 64.121094 154.328125 66.273438 155.222656 69.605469 155.601562 C 71.1875 155.78125 72.863281 156.132812 74.484375 156.476562 C 78.691406 157.367188 82.695312 158.210938 84.6875 156.019531 C 84.578125 155.445312 84.535156 154.792969 84.535156 154.054688 C 84.535156 152.414062 85.175781 151.261719 85.777344 151.015625 C 86.015625 150.917969 86.25 150.957031 86.421875 151.128906 C 86.910156 151.609375 86.71875 153.011719 85.898438 154.972656 C 85.707031 155.433594 85.472656 155.828125 85.203125 156.167969 Z M 86.027344 151.441406 C 86.011719 151.441406 85.988281 151.445312 85.960938 151.457031 C 85.578125 151.613281 85.015625 152.546875 85.015625 154.054688 C 85.015625 154.582031 85.035156 155.0625 85.085938 155.5 C 85.222656 155.285156 85.347656 155.046875 85.453125 154.789062 C 86.378906 152.582031 86.269531 151.648438 86.082031 151.464844 C 86.070312 151.453125 86.058594 151.441406 86.027344 151.441406 Z M 89.589844 150.046875 C 90.105469 150.292969 90.6875 150.519531 91.363281 150.710938 C 94.558594 151.613281 97.457031 150.550781 100.808594 149.324219 C 102.839844 148.582031 105.140625 147.738281 107.796875 147.234375 C 112.925781 146.253906 118.152344 147.46875 120.605469 148.195312 C 113.535156 143.441406 106.222656 145.8125 99.726562 147.921875 C 97.90625 148.511719 96.1875 149.070312 94.558594 149.441406 C 92.816406 149.839844 91.152344 150.039062 89.589844 150.046875 Z M 80.753906 146.570312 C 82.554688 148.207031 84.953125 149.199219 87.773438 149.484375 C 87.042969 148.925781 86.484375 148.339844 85.980469 147.816406 C 85.019531 146.808594 84.261719 146.011719 82.84375 146.011719 C 82.066406 146.011719 81.386719 146.230469 80.753906 146.570312 Z M 141.082031 129.859375 C 142.527344 131.433594 146.277344 135.5625 148.519531 138.335938 C 152.078125 142.742188 159.480469 147.773438 169.574219 148.675781 C 176.019531 149.253906 179.457031 149 180.722656 147.855469 C 181.300781 147.332031 181.417969 146.652344 181.417969 145.722656 C 181.417969 144.980469 181.191406 144.414062 180.726562 143.988281 C 179.824219 143.160156 178 142.863281 175.152344 143.078125 C 174.382812 143.136719 173.703125 143.203125 173.101562 143.257812 C 170.429688 143.503906 169.207031 143.617188 168.203125 142.621094 C 167.65625 142.082031 167.496094 141.320312 167.78125 140.636719 C 168.035156 140.035156 169.039062 138.636719 172.933594 138.636719 C 175.242188 138.636719 176.925781 137.992188 177.675781 136.824219 C 178.199219 136.003906 178.125 135.164062 177.902344 134.695312 L 177.832031 134.550781 C 177.503906 133.863281 177.226562 133.203125 177.007812 132.570312 C 175.628906 131.632812 174.015625 130.9375 171.515625 130.9375 C 169.046875 130.9375 166.433594 131.265625 163.90625 131.578125 C 161.710938 131.851562 159.582031 132.117188 157.589844 132.175781 C 157.507812 132.5 157.464844 132.824219 157.464844 133.152344 C 157.464844 135.207031 158.371094 136.378906 159.167969 137.414062 C 159.625 138.011719 160.070312 138.582031 160.261719 139.253906 C 161.164062 139.039062 162.199219 139.039062 163.21875 139.277344 C 165.242188 139.757812 165.277344 140.929688 165.316406 142.285156 C 165.332031 142.800781 165.347656 143.332031 165.457031 143.90625 C 165.871094 146.003906 166.234375 146.867188 166.238281 146.875 C 166.273438 146.960938 166.257812 147.058594 166.195312 147.125 C 166.132812 147.195312 166.035156 147.222656 165.945312 147.195312 C 165.871094 147.171875 158.226562 144.882812 153.296875 141.242188 C 151.269531 139.746094 149.515625 137.71875 147.816406 135.761719 C 145.605469 133.207031 143.503906 130.78125 141.082031 129.859375 Z M 136.398438 147.375 C 136.46875 147.457031 136.546875 147.527344 136.636719 147.585938 C 137.359375 148.054688 138.703125 147.726562 139.597656 147.179688 C 140.613281 146.558594 141.25 145.933594 141.300781 145.507812 C 141.316406 145.378906 141.277344 145.273438 141.175781 145.171875 C 140.828125 144.828125 140.503906 144.996094 138.847656 146.101562 C 138.628906 146.25 138.390625 146.410156 138.128906 146.582031 C 137.464844 147.019531 136.898438 147.273438 136.398438 147.375 Z M 159.878906 139.871094 C 159.574219 139.980469 159.296875 140.121094 159.058594 140.292969 C 158.574219 140.636719 158.296875 141.070312 158.253906 141.539062 C 158.21875 141.917969 158.347656 142.183594 158.578125 142.214844 C 158.917969 142.261719 159.5625 141.808594 159.835938 140.394531 C 159.871094 140.210938 159.886719 140.035156 159.878906 139.871094 Z M 185.160156 136.519531 C 186.890625 136.726562 188.265625 136.371094 189.175781 135.46875 C 190.347656 134.3125 190.664062 132.332031 190.070312 129.902344 C 189.347656 126.945312 187.234375 124.347656 184.8125 123.433594 C 183.015625 122.757812 181.15625 123.023438 179.433594 124.203125 C 178.195312 125.054688 177.398438 126.136719 177.046875 127.4375 C 178.03125 127.910156 178.984375 128.46875 179.902344 129.117188 C 182.539062 130.96875 184.363281 133.585938 185.160156 136.519531 Z M 177.414062 132.273438 C 177.988281 132.667969 178.519531 133.097656 179.042969 133.527344 C 180.40625 134.636719 181.816406 135.785156 183.992188 136.308594 C 184.210938 136.359375 184.425781 136.40625 184.636719 136.441406 C 183.84375 133.695312 182.105469 131.246094 179.625 129.503906 C 178.761719 128.898438 177.867188 128.367188 176.9375 127.914062 C 176.707031 129.175781 176.867188 130.632812 177.414062 132.273438 Z M 119.367188 124.726562 C 119.128906 125.160156 118.925781 125.664062 118.773438 126.246094 C 117.664062 130.457031 118.136719 133.640625 118.625 133.800781 C 118.671875 133.816406 118.917969 133.707031 119.261719 132.867188 C 119.976562 131.117188 120.28125 128.980469 120.066406 127.15625 C 119.980469 126.398438 119.78125 125.523438 119.367188 124.726562 Z M 171.515625 130.464844 C 173.835938 130.464844 175.449219 131.054688 176.78125 131.859375 C 176.332031 130.308594 176.230469 128.917969 176.476562 127.695312 C 173.8125 126.484375 170.875 125.886719 167.585938 125.886719 C 163.746094 125.886719 158.941406 128.546875 157.742188 131.695312 C 159.667969 131.628906 161.726562 131.371094 163.847656 131.105469 C 166.386719 130.789062 169.015625 130.464844 171.515625 130.464844 Z M 171.515625 130.464844 " fill-opacity="1" fill-rule="nonzero"/></g></svg>