<svg xmlns="http://www.w3.org/2000/svg" xmlns:xlink="http://www.w3.org/1999/xlink" width="375" zoomAndPan="magnify" viewBox="0 0 281.25 281.249989" height="375" preserveAspectRatio="xMidYMid meet" version="1.0"><defs><clipPath id="07d49258a9"><path d="M 87.027344 134 L 103 134 L 103 164 L 87.027344 164 Z M 87.027344 134 " clip-rule="nonzero"/></clipPath></defs><path stroke-linecap="round" transform="matrix(0.00443994, 0, 0, -0.00444853, 79.932563, 223.887045)" fill="none" stroke-linejoin="round" d="M 11342.579733 5217.742034 C 11130.548568 5764.798168 11065.443563 6438.300664 10734.639754 6944.086111 C 10399.436958 7455.140156 9910.269622 7861.700332 9490.606279 8291.969202 C 8835.157242 8962.837398 8038.940626 10082.414559 7621.916675 10916.609306 C 7277.036108 11605.039497 6926.876756 12294.347788 6647.980991 13017.023869 C 6588.154771 13169.813222 6418.353879 13712.478858 6275.826706 13787.117335 C 6221.279269 13816.094626 6067.31473 13744.090448 6022.445065 13718.625556 C 5500.725227 13426.218344 5740.03011 12717.591859 5872.879512 12275.029594 " stroke="#0c0c0c" stroke-width="149.755005" stroke-opacity="1" stroke-miterlimit="4"/><path stroke-linecap="round" transform="matrix(0.00443994, 0, 0, -0.00444853, 79.932563, 223.887045)" fill="none" stroke-linejoin="round" d="M 11543.173533 10520.586326 C 11731.450169 9919.966108 11494.784677 9220.12062 11531.736167 8592.279311 C 11611.797727 7225.956125 11782.478416 5927.246619 11642.590635 4560.923433 C 11620.595701 4341.3985 11694.498679 4165.778553 11595.961375 3950.644119 C 11290.671689 3285.04452 10708.245833 2173.370258 9763.343462 2326.159611 C 9556.591081 2359.527401 9407.905327 2569.393237 9224.907475 2652.812712 C 9035.751041 2739.744586 8824.599673 2800.333467 8673.274527 2956.63522 C 8025.743666 3628.381516 7587.604578 4492.431654 7063.245348 5250.231724 C 6691.97086 5785.872562 5680.203889 7989.902893 5488.408064 8506.225537 C 4900.703424 10086.805057 3991.872745 12068.676156 3266.919716 13588.666795 " stroke="#0c0c0c" stroke-width="149.755005" stroke-opacity="1" stroke-miterlimit="4"/><g clip-path="url(#07d49258a9)"><path stroke-linecap="round" transform="matrix(0.005589, 0, 0, -0.00559981, 79.932563, 223.887045)" fill="none" stroke-linejoin="round" d="M 2595.265112 10794.937481 C 2412.84764 11173.717409 2250.698777 11573.424405 2045.217028 11940.345661 C 1760.757599 12448.873409 1393.126987 13004.835845 1346.299513 13594.979158 C 1323.235235 13872.611591 1551.082345 14089.555527 1658.715642 14325.333825 C 2141.667645 15382.150751 2689.618976 16300.15146 4014.067666 15834.872985 " stroke="#0c0c0c" stroke-width="118.966003" stroke-opacity="1" stroke-miterlimit="4"/></g><path stroke-linecap="round" transform="matrix(0.00543316, 0, 0, -0.00544366, 79.932563, 223.887045)" fill="none" stroke-linejoin="round" d="M 4276.593313 16299.836267 C 4477.903505 16228.078502 4421.824237 16005.629431 4262.932979 15923.108001 C 3930.771162 15748.736633 3533.902499 15822.647131 3229.061351 15582.976196 C 2901.213325 15326.083398 2912.716764 14497.998793 2642.385935 14122.705683 " stroke="#0c0c0c" stroke-width="122.377998" stroke-opacity="1" stroke-miterlimit="4"/><path stroke-linecap="round" transform="matrix(0.00536745, 0, 0, -0.00537782, 79.932563, 223.887045)" fill="none" stroke-linejoin="round" d="M 2988.402634 14582.515102 C 3124.495033 14575.251476 3275.870536 14740.135773 3387.946629 14806.961127 C 3855.900707 15084.431617 4094.60823 15890.694038 4607.683852 16088.264649 C 5157.147816 16300.362511 5104.020837 15499.184628 5041.432888 15221.714138 C 4880.596417 14501.162497 4213.234225 14111.832175 3709.619572 13630.25381 " stroke="#0c0c0c" stroke-width="123.878998" stroke-opacity="1" stroke-miterlimit="4"/><path stroke-linecap="round" transform="matrix(0.00489637, 0, 0, -0.00490583, 79.932563, 223.887045)" fill="none" stroke-linejoin="round" d="M 5610.235306 16199.68614 C 5711.554014 16300.013103 5919.775926 16180.576242 5997.958866 16096.174194 C 6181.449439 15897.909005 6171.078233 15609.668047 6103.266499 15366.813096 C 5986.789874 14954.357803 5690.013816 14721.057802 5433.924798 14393.800803 C 5143.531021 14021.157797 4843.563822 13623.034927 4694.378008 13169.174856 " stroke="#0c0c0c" stroke-width="135.794998" stroke-opacity="1" stroke-miterlimit="4"/><path stroke-linecap="round" transform="matrix(0.00450876, 0, 0, -0.00451748, 79.932563, 223.887045)" fill="none" stroke-linejoin="round" d="M 6648.741229 16299.61017 C 6972.763087 16176.8232 6899.121756 15744.474715 6849.738745 15468.636382 C 6718.050717 14734.508655 6136.717383 14194.073049 5876.806802 13509.233049 " stroke="#0c0c0c" stroke-width="147.468002" stroke-opacity="1" stroke-miterlimit="4"/><path stroke-linecap="round" transform="matrix(0.00589003, 0, 0, -0.00590142, 79.932563, 223.887045)" fill="none" stroke-linejoin="round" d="M 2845.290903 15298.954112 C 2812.79424 15435.971031 2827.384579 15569.678362 2782.28717 15706.695281 C 2704.693098 15940.352152 2641.689365 16033.682517 2398.295997 16101.1981 C 2365.136137 16109.803028 2270.298939 16166.066014 2241.78146 16121.055625 C 2138.985895 15963.519264 2318.712334 15461.123895 2223.211938 15211.581004 C 2197.347248 15143.403503 2026.90557 14879.298428 1924.110006 14930.927992 C 1778.869821 15003.738915 1837.894371 15887.398754 1871.05423 16008.529653 C 1902.887696 16124.365212 1983.797753 16299.773345 2127.048346 16217.695577 " stroke="#0c0c0c" stroke-width="112.886002" stroke-opacity="1" stroke-miterlimit="4"/><path stroke-linecap="round" transform="matrix(0.00693208, 0, 0, -0.00694548, 79.932563, 223.887045)" fill="none" stroke-linejoin="round" d="M 14552.052598 14502.499617 C 15244.597903 14522.184169 16088.72554 13812.415489 16204.243675 13126.268271 C 16300.039201 12557.103529 16225.656792 11979.502552 16157.472918 11409.775394 " stroke="#0c0c0c" stroke-width="95.917" stroke-opacity="1" stroke-miterlimit="4"/><path stroke-linecap="round" transform="matrix(0.00649963, 0, 0, -0.0065122, 79.932563, 223.887045)" fill="none" stroke-linejoin="round" d="M 16299.757665 7364.234766 C 16281.126804 7324.045764 16261.894948 7283.856763 16242.062096 7243.067926 C 15870.646874 6481.876244 15524.473462 5744.07816 15086.347738 5013.478107 C 14819.505734 4568.999749 14871.792343 4047.742403 14638.606087 3600.864702 " stroke="#0c0c0c" stroke-width="102.301003" stroke-opacity="1" stroke-miterlimit="4"/><path stroke-linecap="round" transform="matrix(0.00583719, 0, 0, -0.00584848, 79.932563, 223.887045)" fill="none" stroke-linejoin="round" d="M 16299.882938 4009.512521 C 16206.864126 3827.173411 16124.552516 3571.364331 15934.499693 3469.174281 C 15715.671266 3350.954419 15423.23083 3423.088572 15188.341602 3430.435569 C 14387.309103 3455.148196 13623.08261 3928.695553 12996.711333 4390.220551 C 12757.806904 4566.548481 12549.685678 4799.648661 12283.344046 4934.566244 " stroke="#0c0c0c" stroke-width="113.912003" stroke-opacity="1" stroke-miterlimit="4"/><path stroke-linecap="round" transform="matrix(0.00443994, 0, 0, -0.00444853, 79.932563, 223.887045)" fill="none" stroke-linejoin="round" d="M 16291.439914 6405.810974 C 15756.523116 6603.383414 14943.59035 7393.673174 14512.489641 7754.572165 C 13398.666176 8687.992182 12513.590027 9861.133426 11681.301719 11050.958565 C 11515.020017 11288.045493 10324.654181 12876.527911 11127.029379 12916.920499 " stroke="#0c0c0c" stroke-width="149.755005" stroke-opacity="1" stroke-miterlimit="4"/><path stroke-linecap="round" transform="matrix(0.00462109, 0, 0, -0.00463003, 79.932563, 223.887045)" fill="none" stroke-linejoin="round" d="M 7393.29391 16299.924446 C 7238.602396 16079.724556 7637.588158 15781.906315 7793.970289 15528.802993 C 8032.347375 15145.7733 8382.305225 14831.081503 8666.328988 14484.329953 C 9054.325734 14011.870419 9247.901453 13459.261501 9711.130685 13027.298499 C 10076.304094 12686.452692 10558.975428 12784.31931 10972.331439 12580.992975 C 11447.394994 12346.450564 11803.270006 11866.39793 12157.4544 11489.273981 " stroke="#0c0c0c" stroke-width="143.886993" stroke-opacity="1" stroke-miterlimit="4"/><path stroke-linecap="round" transform="matrix(0.00464596, 0, 0, -0.00465494, 79.932563, 223.887045)" fill="none" stroke-linejoin="round" d="M 7436.123872 16299.962628 C 8730.091905 16041.500576 9355.635905 14296.881732 10504.148142 13805.132505 C 11221.337701 13497.159866 12238.687486 13558.418729 12999.597862 13633.104192 C 13259.400411 13658.279067 13917.735024 13749.74778 14129.61283 13587.789417 C 14425.569131 13362.054703 14308.700024 12776.319276 13900.07854 12731.004501 C 13568.809271 12694.08135 13129.919529 13176.59979 12898.703669 13341.914803 " stroke="#0c0c0c" stroke-width="143.121994" stroke-opacity="1" stroke-miterlimit="4"/><path stroke-linecap="round" transform="matrix(0.00654758, 0, 0, -0.00656024, 79.932563, 223.887045)" fill="none" stroke-linejoin="round" d="M 8267.758819 16193.716586 C 8420.486916 16002.579395 8616.766384 16300.300877 8804.096941 16227.656835 C 8990.234309 16156.20368 9092.848499 15938.866999 9267.053985 15845.382453 C 9327.906586 15812.633091 9751.488417 15815.014862 9712.113204 15697.117156 C 9689.442628 15628.641215 9109.553135 15204.685826 9003.955974 15120.132925 " stroke="#0c0c0c" stroke-width="101.546997" stroke-opacity="1" stroke-miterlimit="4"/><path stroke-linecap="round" transform="matrix(0.0065054, 0, 0, -0.00651798, 79.932563, 223.887045)" fill="none" stroke-linejoin="round" d="M 8314.761272 16299.91305 C 8085.384635 16299.91305 7947.878745 16220.804957 7920.857937 15907.369105 " stroke="#0c0c0c" stroke-width="102.206001" stroke-opacity="1" stroke-miterlimit="4"/><path stroke-linecap="round" transform="matrix(0.00629584, 0, 0, -0.00630801, 79.932563, 223.887045)" fill="none" stroke-linejoin="round" d="M 9005.988982 16300.010317 C 9005.988982 15738.96775 9135.042489 14661.468781 8786.970289 14186.502281 C 8613.864862 13951.186415 8414.700555 13720.205314 8216.777147 13502.847763 C 8009.546995 13274.962924 7412.674523 12882.97623 7769.433017 12494.085797 C 8084.621391 12149.781529 8721.823085 12502.136077 9093.472369 12283.540022 C 9154.276426 12248.242642 9501.728177 11986.298927 9409.281193 11880.406787 C 9312.491062 11769.560628 8175.827476 11920.658185 8015.131041 11933.043231 C 7945.640691 11937.997249 7605.013885 12000.541729 7655.270299 11836.439875 C 7690.635924 11721.258951 8142.94365 11755.317826 8251.522322 11739.836519 C 8697.625552 11676.053534 9679.797199 11433.925892 9952.795004 11950.382295 C 10143.273017 12309.548618 9336.068145 12560.965044 9084.786075 12406.151973 C 9030.806964 12372.71235 8998.543587 12210.468253 9040.734157 12160.92807 C 9202.051041 11973.294629 9624.577189 11961.528836 9839.252735 11977.010143 C 9911.224884 11981.964161 10086.191658 12048.843407 10145.754816 11994.349206 C 10218.347414 11928.708465 10228.895056 11761.510349 10189.806734 11678.530543 C 10082.468961 11450.026451 9584.868417 11524.336725 9417.967487 11617.224567 C 9280.227685 11694.01185 9096.574617 11772.65689 8988.616394 11889.076319 C 8697.005103 12203.037225 8494.118098 12778.322594 7953.706535 12643.325597 C 7789.287403 12602.454946 7750.81953 12123.772933 7909.654617 12055.655182 C 8177.688825 11941.09351 8335.903462 12168.359097 8541.272264 12301.498338 " stroke="#0c0c0c" stroke-width="46.178001" stroke-opacity="1" stroke-miterlimit="4"/><path stroke-linecap="round" transform="matrix(0.00526533, 0, 0, -0.00527551, 79.932563, 223.887045)" fill="none" stroke-linejoin="round" d="M 9786.356054 14741.682617 C 9513.343621 14141.91805 8320.39799 14435.136283 8757.366259 15023.053649 C 8955.448649 15290.356129 10148.394281 14677.26346 9512.60174 14489.929589 C 8946.54607 14323.32832 8410.165665 14795.735473 8246.209829 15299.98198 C 8166.086614 15546.551858 8265.49875 15893.082497 8076.318939 16101.14897 C 7988.776909 16198.147931 7814.434731 16249.979437 7703.89437 16300.330043 " stroke="#0c0c0c" stroke-width="55.216" stroke-opacity="1" stroke-miterlimit="4"/><path stroke-linecap="round" transform="matrix(0.006251, 0, 0, -0.00626308, 79.932563, 223.887045)" fill="none" stroke-linejoin="round" d="M 8768.143373 16299.688771 C 8722.525638 15999.067938 8889.998965 15982.851877 8881.250358 15726.513366 C 8869.377249 15366.641538 8703.778624 15020.490994 8700.654122 14659.995472 C 8699.404321 14483.489879 8776.267079 14302.618424 8718.776236 14124.865441 C 8608.168852 13785.575538 7880.784703 13922.164672 7930.776741 13278.511768 C 7951.398456 13007.828279 8383.829583 12872.486535 8545.053904 12712.820698 C 8619.417061 12638.601032 8696.279819 12460.84805 8785.015686 12410.328781 C 8932.492197 12326.753694 9194.325495 12473.945638 9349.300812 12492.656478 C 9486.154015 12509.496234 9798.604251 12503.882982 9784.85644 12308.666549 C 9756.735919 11930.083881 9113.088433 11968.752951 8876.251154 12100.976222 C 8773.142577 12158.356132 8686.906312 12263.136838 8596.920644 12340.474977 " stroke="#0c0c0c" stroke-width="46.507999" stroke-opacity="1" stroke-miterlimit="4"/><path stroke-linecap="round" transform="matrix(0.00627586, 0, 0, -0.00628799, 79.932563, 223.887045)" fill="none" stroke-linejoin="round" d="M 8402.276106 16299.720452 C 8322.605736 15772.92272 8776.35339 16047.503614 8735.273355 15582.207032 C 8693.570896 15105.728422 8169.489244 14776.47984 8209.946854 14248.43966 C 8219.90565 14124.194912 8236.711118 13839.674439 8299.57602 13734.066403 C 8376.756691 13603.609417 8556.015023 13459.485509 8486.925874 13283.679191 C 8381.736089 13019.037877 8099.155245 13186.147063 7926.743585 13083.645146 C 7589.389363 12883.611101 8087.9516 12324.509735 8188.161987 12151.188311 " stroke="#0c0c0c" stroke-width="46.323002" stroke-opacity="1" stroke-miterlimit="4"/><path stroke-linecap="round" transform="matrix(0.00626476, 0, 0, -0.00627687, 79.932563, 223.887045)" fill="none" stroke-linejoin="round" d="M 8328.621414 16299.972396 C 8328.621414 16123.854594 8213.268825 15954.582361 8267.515718 15770.374342 C 8315.527336 15606.703028 8576.161834 15502.774855 8679.667401 15376.443004 C 8816.843452 15209.660068 8813.102287 14871.115602 8784.420022 14668.860175 C 8751.996592 14441.08945 8381.621252 14444.823396 8323.009666 14194.648992 C 8250.680475 13888.465393 8544.361932 13788.271167 8525.656106 13492.667083 C 8516.303194 13342.064581 8241.327563 12765.169873 8334.856689 12624.524562 C 8420.903485 12496.325738 8972.101802 12693.602569 9092.442611 12711.027652 C 9552.605912 12776.994037 9420.41808 12386.796646 9639.899763 12304.649826 C 9790.79342 12248.018307 10348.850539 12538.643796 10403.72096 12470.810438 C 10434.897335 12431.604002 10419.309148 12231.837873 10409.332707 12187.652842 C 10388.132772 12089.325588 10346.979957 12014.024337 10243.47439 11996.599254 C 9911.134229 11941.212384 9928.592999 12239.305766 9763.358209 12440.316543 C 9704.746624 12511.261523 9607.476332 12565.403745 9523.300119 12600.253911 C 9387.371122 12656.263106 8917.854909 12691.735596 9036.948663 12402.97708 C 9395.47698 11532.345261 10495.379503 12955.601136 10772.849244 11984.775091 " stroke="#0c0c0c" stroke-width="46.407001" stroke-opacity="1" stroke-miterlimit="4"/><path stroke-linecap="round" transform="matrix(0.00630738, 0, 0, -0.00631958, 79.932563, 223.887045)" fill="none" stroke-linejoin="round" d="M 8985.788738 16299.847472 C 8985.788738 16124.919819 8871.215667 15956.791474 8924.476662 15773.828275 C 8972.783146 15611.263 9231.656356 15508.65526 9334.462463 15382.559002 C 9470.092207 15216.903132 9466.995637 14880.646442 9438.507198 14679.757795 C 9406.302875 14453.526272 9038.430419 14457.234986 8979.595599 14208.751182 C 8908.3745 13904.636675 9200.071347 13805.11953 9181.49193 13512.131164 C 9172.202221 13362.546387 8899.084792 12788.932034 8991.981877 12649.855278 C 9077.447195 12521.904662 9624.301367 12718.466477 9743.82895 12735.155688 C 10201.501921 12800.676293 10069.588061 12413.733852 10288.205867 12331.524037 C 10437.460517 12275.893334 10992.36577 12564.554868 11046.246079 12497.179906 C 11077.211774 12458.238414 11062.34824 12259.822242 11052.439218 12215.317681 C 11031.382546 12117.654892 10990.507828 12043.480622 10887.701721 12026.173292 C 10557.607413 11971.160709 10574.948202 12266.62155 10410.210705 12466.27396 C 10351.995199 12537.357635 10256.001544 12590.515862 10172.394168 12625.130521 C 10036.764424 12680.761224 9571.040372 12715.994002 9688.710013 12429.804944 C 10045.434819 11564.438463 11137.904536 12978.076422 11413.499221 12013.810914 " stroke="#0c0c0c" stroke-width="46.092999" stroke-opacity="1" stroke-miterlimit="4"/><path stroke-linecap="round" transform="matrix(0.00473609, 0, 0, -0.00474524, 79.932563, 223.887045)" fill="none" stroke-linejoin="round" d="M 13630.603366 15998.820121 C 13663.594739 16161.812288 13770.816702 16217.789396 13907.7309 16300.108672 " stroke="#0c0c0c" stroke-width="61.383999" stroke-opacity="1" stroke-miterlimit="4"/><path stroke-linecap="round" transform="matrix(0.006251, 0, 0, -0.00626308, 79.932563, 223.887045)" fill="none" stroke-linejoin="round" d="M 9293.059769 16299.688771 C 9246.817134 16062.684795 9276.187456 15940.440639 9189.951191 15704.060357 C 9150.582462 15596.161179 9058.722092 15519.446734 9059.346993 15396.578883 C 9060.596794 15103.442386 9299.308774 14905.107479 9163.080471 14582.657332 C 8986.858538 14166.02929 8365.707469 13958.338963 8586.922236 13402.003313 C 8729.399544 13044.00257 9302.433276 12705.336362 9672.374355 12632.98778 C 9864.843701 12595.566099 10081.684164 12659.806651 10256.656296 12544.423136 C 10436.002732 12425.921148 10542.235812 12047.33848 10231.035377 12018.648525 C 9911.086336 11988.711181 9943.58116 12381.638826 10014.194913 12579.350038 C 10106.055283 12838.183328 10521.614096 12724.670897 10670.340409 12598.060878 C 10768.449783 12515.109486 11000.287858 12159.603522 10930.923905 12029.251335 C 10895.929479 11964.387089 10396.634002 11897.028064 10356.640372 11942.557775 C 10258.530998 12055.446511 10597.227054 12351.077787 10720.332446 12261.889448 C 10897.80418 12134.03204 10779.073091 11792.871053 10635.345982 11696.198378 C 10414.131215 11547.135351 10006.071207 11713.038135 9846.096687 11882.059392 " stroke="#0c0c0c" stroke-width="46.507999" stroke-opacity="1" stroke-miterlimit="4"/><path stroke-linecap="round" transform="matrix(0.00628607, 0, 0, -0.00629822, 79.932563, 223.887045)" fill="none" stroke-linejoin="round" d="M 8421.560988 16299.911271 C 8375.576382 16064.22973 8404.782821 15942.667672 8319.027745 15707.606345 C 8279.878689 15600.309223 8188.53089 15523.402615 8189.152304 15401.840557 C 8190.395131 15110.339703 8427.775124 14913.111466 8292.30696 14592.460528 C 8117.068326 14178.157187 7499.383212 13971.625732 7719.363625 13418.394325 C 7861.045925 13062.391155 8430.882192 12725.614638 8798.759041 12653.669746 C 8990.154429 12616.456871 9205.784947 12680.338973 9379.780754 12565.599276 C 9558.747869 12447.758505 9663.766767 12071.288254 9354.302796 12042.138169 C 9036.139035 12012.988084 9068.452542 12403.72327 9138.672278 12600.331292 C 9230.020077 12857.720344 9643.260118 12744.84129 9791.156554 12618.93773 C 9888.718489 12536.44919 10119.884347 12182.926879 10050.286024 12053.302031 C 10015.486862 11988.799715 9518.977399 11921.81654 9479.828343 11967.092205 C 9381.644994 12079.351044 9718.451163 12373.332755 9840.869642 12284.64207 C 10017.351103 12157.498081 9899.903934 11818.240705 9756.357393 11722.107445 C 9536.37698 11573.87616 9130.593902 11738.853239 8971.512021 11906.93139 " stroke="#0c0c0c" stroke-width="46.247002" stroke-opacity="1" stroke-miterlimit="4"/><path stroke-linecap="round" transform="matrix(0.00630072, 0, 0, -0.0063129, 79.932563, 223.887045)" fill="none" stroke-linejoin="round" d="M 8608.42753 16299.751265 C 8561.929885 16064.617797 8591.068409 15943.338429 8505.512742 15708.823733 C 8467.074689 15601.776128 8375.939306 15525.667137 8376.559274 15403.768997 C 8377.799211 15112.946023 8614.627216 14916.176436 8478.854093 14596.271165 C 8304.022948 14182.931278 7687.774162 13976.880108 7907.243046 13424.935229 C 8048.595886 13070.37871 8617.727059 12733.766587 8984.1285 12661.989002 C 9175.078828 12624.862665 9390.8279 12688.59621 9564.419107 12574.123338 C 9742.350094 12457.175376 9847.124787 12080.961826 9538.380426 12052.498301 C 9220.956504 12022.797232 9253.194871 12412.623771 9323.251323 12608.774586 C 9414.386706 12865.565084 9827.285792 12753.5673 9974.838319 12627.337754 C 10072.173388 12545.04104 10302.181738 12192.340838 10232.745255 12063.01743 C 10198.646982 11998.665113 9702.672104 11932.456478 9663.614083 11977.008083 C 9565.659044 12089.005866 9901.682024 12382.303929 10023.815838 12293.819492 C 10199.886919 12166.971174 10082.712855 11828.502734 9939.500109 11732.59303 C 9720.031225 11584.706454 9315.191731 11749.299882 9156.47977 11916.987171 " stroke="#0c0c0c" stroke-width="46.139999" stroke-opacity="1" stroke-miterlimit="4"/><path stroke-linecap="round" transform="matrix(0.00531017, 0, 0, -0.00532044, 79.932563, 223.887045)" fill="none" stroke-linejoin="round" d="M 4871.446878 16299.97166 C 5203.94556 16109.080409 5658.55659 16175.15815 6023.422401 16139.182491 C 7083.445854 16034.926499 8194.962466 16142.119279 9259.399619 16151.663842 " stroke="#0c0c0c" stroke-width="122.530998" stroke-opacity="1" stroke-miterlimit="4"/><path stroke-linecap="round" transform="matrix(0.0046535, 0, 0, -0.0046625, 79.932563, 223.887045)" fill="none" stroke-linejoin="round" d="M 15611.777441 9975.772519 C 15338.965542 11048.15844 15338.126121 12558.714546 15503.492103 13657.910116 C 15566.448695 14073.45966 15738.530046 14152.213001 16075.137959 14332.340324 C 16133.058024 14363.338979 16300.102848 14494.873815 16271.562526 14582.005171 C 16212.80304 14761.294692 15787.216478 14799.833561 15663.821557 14742.025258 C 15187.0303 14518.332257 14725.348625 14169.806833 14465.967465 13706.502603 " stroke="#0c0c0c" stroke-width="139.820007" stroke-opacity="1" stroke-miterlimit="4"/><path stroke-linecap="round" transform="matrix(0.00510149, 0, 0, -0.00511136, 79.932563, 223.887045)" fill="none" stroke-linejoin="round" d="M 14750.783619 13837.204209 C 15201.019395 14112.326848 15695.666183 13977.822447 15952.178062 14563.222286 C 16070.862663 14832.995318 15805.162299 15174.605929 15639.769564 15364.134859 C 15184.939546 15883.810956 14655.070231 16190.267007 13981.247981 16300.316063 " stroke="#0c0c0c" stroke-width="127.544998" stroke-opacity="1" stroke-miterlimit="4"/><path stroke-linecap="round" transform="matrix(0.00519651, 0, 0, -0.00520656, 79.932563, 223.887045)" fill="none" stroke-linejoin="round" d="M 7027.903307 14691.57736 C 7064.736931 14882.142406 7021.137948 15156.736132 7113.59786 15329.295032 C 7318.062055 15712.67589 8410.291744 15988.019873 8813.206481 16088.554188 C 9659.628113 16300.126404 10482.746839 16225.851052 11341.195776 16161.329029 C 12231.968097 16094.556237 13070.872662 16069.04753 13957.88645 15896.488631 " stroke="#0c0c0c" stroke-width="125.216003" stroke-opacity="1" stroke-miterlimit="4"/><path stroke-linecap="round" transform="matrix(0.00473032, 0, 0, -0.00473946, 79.932563, 223.887045)" fill="none" stroke-linejoin="round" d="M 15868.611008 14925.456772 C 15281.473855 14717.759066 14756.271001 14792.761016 14242.629216 14670.779824 C 12752.07709 14318.023404 10913.041309 14773.804479 9449.740275 15154.583605 C 8865.906284 15306.235898 7887.344362 15604.595299 7824.584273 16300.217772 " stroke="#0c0c0c" stroke-width="137.552002" stroke-opacity="1" stroke-miterlimit="4"/><path stroke-linecap="round" transform="matrix(0.00607651, 0, 0, -0.00608825, 79.932563, 223.887045)" fill="none" stroke-linejoin="round" d="M 12599.928155 16300.013268 C 12279.791433 16193.506939 12070.866864 15803.411468 11759.729969 15636.594325 C 10880.961094 15163.090283 10285.043941 14975.7418 9295.062911 14905.165316 " stroke="#0c0c0c" stroke-width="107.079002" stroke-opacity="1" stroke-miterlimit="4"/><path stroke-linecap="round" transform="matrix(0.00724776, 0, 0, -0.00726177, 79.932563, 223.887045)" fill="none" stroke-linejoin="round" d="M 11158.758601 16300.081555 C 11158.758601 15982.709052 11209.959749 15595.944934 11101.628899 15292.558338 C 10970.661754 14926.235161 10798.733689 14515.802586 10746.993582 14124.735112 C 10701.182029 13783.156231 10755.616934 13427.591444 10735.675434 13082.785047 C 10688.247003 12282.898756 10606.864126 11755.19973 11101.628899 11056.442304 " stroke="#0c0c0c" stroke-width="89.774002" stroke-opacity="1" stroke-miterlimit="4"/><path stroke-linecap="round" transform="matrix(0.00965377, 0, 0, -0.00967243, 79.932563, 223.887045)" fill="none" stroke-linejoin="round" d="M 6061.535412 15291.561679 C 6061.535412 15692.992557 6510.679993 15877.149981 6837.220242 15993.863788 C 7694.641293 16299.985121 8144.595143 16258.388159 8870.509898 15700.261929 C 10039.499712 14800.879067 10303.321574 13291.676664 10389.913412 11906.053584 C 10420.261019 11421.428783 10451.013261 10929.534609 10327.195025 10459.852405 " stroke="#0c0c0c" stroke-width="67.399002" stroke-opacity="1" stroke-miterlimit="4"/><path stroke-linecap="round" transform="matrix(0.00942467, 0, 0, -0.00944289, 79.932563, 223.887045)" fill="none" stroke-linejoin="round" d="M 6558.281801 16184.089136 C 6377.572505 16299.917044 5373.724075 16052.541725 5258.501176 15974.357887 C 4684.873502 15584.679708 4475.151245 15081.655647 4496.289259 14478.109508 C 4513.697035 13989.977607 4654.202658 13762.872172 4271.646052 13351.683096 " stroke="#0c0c0c" stroke-width="69.039001" stroke-opacity="1" stroke-miterlimit="4"/><path stroke-linecap="round" transform="matrix(0.00771795, 0, 0, -0.00773287, 79.932563, 223.887045)" fill="none" stroke-linejoin="round" d="M 5218.283526 16300.175188 C 5042.658109 15736.93457 4793.138424 15119.137911 4996.094598 14508.91848 C 5127.181005 14114.397473 5528.032101 13847.679046 5572.571112 13408.704969 " stroke="#0c0c0c" stroke-width="84.306" stroke-opacity="1" stroke-miterlimit="4"/><path stroke-linecap="round" transform="matrix(0.00644547, 0, 0, -0.00645793, 79.932563, 223.887045)" fill="none" stroke-linejoin="round" d="M 6678.18361 16300.273377 C 6753.333346 16097.034737 6866.663997 15871.415652 6848.482609 15649.425828 C 6776.363104 14746.344611 5104.281475 14157.799383 4403.085953 13896.492561 " stroke="#0c0c0c" stroke-width="100.950996" stroke-opacity="1" stroke-miterlimit="4"/><path stroke-linecap="round" transform="matrix(0.00573507, 0, 0, -0.00574616, 79.932563, 223.887045)" fill="none" stroke-linejoin="round" d="M 12690.047974 8038.03 C 12940.698585 7182.839689 13672.216944 6349.403027 14615.562314 6228.398356 C 15365.470799 6132.546342 15558.907683 6613.845818 16299.961663 6116.910907 " stroke="#0c0c0c" stroke-width="113.456001" stroke-opacity="1" stroke-miterlimit="4"/><path stroke-linecap="round" transform="matrix(0.00903972, 0, 0, -0.0090572, 79.932563, 223.887045)" fill="none" stroke-linejoin="round" d="M 6781.813058 16240.56803 C 7015.590247 16300.085594 7875.077913 16009.398359 7961.934132 15666.094145 C 8013.356471 15463.820683 8101.076932 15236.963879 8089.409679 15027.78983 C 8066.075172 14601.67857 8098.052088 14030.65498 8318.865662 13650.691397 C 8671.475986 13044.302297 9546.08787 13190.077202 9902.587279 12594.901556 " stroke="#0c0c0c" stroke-width="71.980003" stroke-opacity="1" stroke-miterlimit="4"/><path stroke-linecap="round" transform="matrix(0.0090042, 0, 0, -0.00902161, 79.932563, 223.887045)" fill="none" stroke-linejoin="round" d="M 6798.154734 16299.870666 C 6399.903235 16260.468755 5960.438346 16034.881991 5684.959368 15736.120249 " stroke="#0c0c0c" stroke-width="72.261002" stroke-opacity="1" stroke-miterlimit="4"/><path stroke-linecap="round" transform="matrix(0.00802076, 0, 0, -0.00803626, 79.932563, 223.887045)" fill="none" stroke-linejoin="round" d="M 6497.430791 15645.917996 C 6452.625168 15594.87981 6463.339556 15470.443853 6486.229385 15435.932318 C 6566.100278 15310.524204 6794.024533 15392.185301 6733.634345 15549.67456 C 6710.257499 15609.948227 6572.918525 15642.51545 6518.859567 15650.778776 C 6440.449727 15662.930725 6343.533217 15672.652284 6264.63636 15660.500335 C 6081.517728 15632.307813 5926.159101 15316.35714 5926.159101 15748.480446 C 5926.159101 15803.893333 5920.31489 15862.708766 5926.159101 15917.635575 C 5957.815248 16218.031754 6242.233548 16300.178929 6486.229385 16178.173362 C 6743.374698 16049.362702 6934.77263 15722.232236 6994.188782 15455.375436 " stroke="#0c0c0c" stroke-width="34.308998" stroke-opacity="1" stroke-miterlimit="4"/><path stroke-linecap="round" transform="matrix(0.00761983, 0, 0, -0.00763456, 79.932563, 223.887045)" fill="none" stroke-linejoin="round" d="M 7410.385291 16299.788376 C 7410.385291 15914.513289 7223.27071 15616.730951 7025.390633 15295.412552 C 6937.216091 15152.149572 6800.853136 14992.002026 6850.579476 14805.760151 C 6916.710383 14557.09655 7279.148763 14420.485065 7505.224189 14525.885686 C 7592.886088 14566.817966 7737.963969 14730.547087 7560.076956 14730.547087 " stroke="#0c0c0c" stroke-width="36.115002" stroke-opacity="1" stroke-miterlimit="4"/><path stroke-linecap="round" transform="matrix(0.00686682, 0, 0, -0.00688009, 79.932563, 223.887045)" fill="none" stroke-linejoin="round" d="M 8352.707654 16299.910035 C 8338.486178 16159.672964 8174.08591 16075.644274 8106.96054 15954.711092 C 8038.697453 15832.074626 8040.972889 15644.145596 8027.320272 15507.882856 " stroke="#0c0c0c" stroke-width="40.076" stroke-opacity="1" stroke-miterlimit="4"/><path stroke-linecap="round" transform="matrix(0.00807448, 0, 0, -0.00809009, 79.932563, 223.887045)" fill="none" stroke-linejoin="round" d="M 8454.618402 15438.487008 C 8419.786442 15243.418126 8681.509921 15265.628939 8657.804837 15428.347289 C 8642.323966 15533.124387 8402.370462 15482.425791 8499.609684 15342.883942 C 8610.878446 15182.579811 8902.596112 15254.040689 8858.572385 15423.518852 C 8776.814034 15735.435926 8197.248919 15513.327792 8040.505098 15466.974791 C 7896.823262 15424.484539 7758.462976 15571.751888 7772.492516 15713.225112 C 7820.386461 16189.791911 8397.048913 16299.88029 8788.424687 16178.686505 C 8894.3719 16145.370285 9004.18933 16047.353 9084.012572 15976.374966 " stroke="#0c0c0c" stroke-width="35.807999" stroke-opacity="1" stroke-miterlimit="4"/><path stroke-linecap="round" transform="matrix(0.005478, 0, 0, -0.00548859, 79.932563, 223.887045)" fill="none" stroke-linejoin="round" d="M 10724.903553 16300.204609 C 10781.236832 16069.612678 10853.25786 15842.579263 10911.017298 15611.275628 " stroke="#0c0c0c" stroke-width="118.776001" stroke-opacity="1" stroke-miterlimit="4"/><path stroke-linecap="round" transform="matrix(0.00482977, 0, 0, -0.00483911, 79.932563, 223.887045)" fill="none" stroke-linejoin="round" d="M 13439.001933 16300.369933 C 13891.11332 16300.369933 15469.054852 16237.406352 15034.736757 15369.63905 C 14918.27157 15136.35091 14185.511432 14935.351786 13993.829145 15147.652066 C 13933.170193 15215.458999 13952.581057 15388.205234 13952.581057 15467.313323 C 13952.581057 15917.745094 14596.374732 15742.577183 14826.878749 15577.903202 " stroke="#0c0c0c" stroke-width="49.931" stroke-opacity="1" stroke-miterlimit="4"/><path stroke-linecap="round" transform="matrix(0.00472854, 0, 0, -0.00473768, 79.932563, 223.887045)" fill="none" stroke-linejoin="round" d="M 15059.210591 15864.40509 C 14884.077208 15771.235817 14530.506038 15569.23164 14454.504758 15877.597199 C 14447.06985 15907.279446 14415.678017 16036.72702 14424.765127 16059.813211 C 14516.462323 16299.744703 14991.47032 16246.151758 15154.21219 16172.770649 " stroke="#0c0c0c" stroke-width="50.995998" stroke-opacity="1" stroke-miterlimit="4"/><path stroke-linecap="round" transform="matrix(0.00631582, 0, 0, -0.00632803, 79.932563, 223.887045)" fill="none" stroke-linejoin="round" d="M 8279.226787 16229.309618 C 8395.502296 16197.210367 8467.246759 16300.298347 8572.389506 16298.446467 C 8657.740678 16297.21188 8738.143955 16271.902855 8822.258153 16264.495336 C 8938.533662 16253.384056 9051.716737 16272.520149 9166.136786 16287.335188 " stroke="#0c0c0c" stroke-width="106.408997" stroke-opacity="1" stroke-miterlimit="4"/></svg>